{
.appVersion = "3192";
.formatVersion = 3;
axes = (
{
name = Weight;
tag = wght;
}
);
classes = (
{
automatic = 1;
code = "A Aacute Abreve Acaron Acircumflex Adieresis Agrave Amacron Aogonek Aring Atilde AE AEacute B C Cacute Ccaron Ccedilla Cdotaccent D Dcaron Dcroat Eth E Eacute Ebreve Ecaron Ecircumflex Edieresis Edotaccent Egrave Emacron Eogonek Ereversed Etilde Schwa F G Gbreve Gcommaaccent Gdotaccent H Hbar I IJ Iacute Ibreve Icircumflex Idieresis Idotaccent Igrave Imacron Iogonek Itilde J Jacute K Kcommaaccent L Lacute Lcaron Lcommaaccent Ldot Lslash M N Nacute Ncaron Ncommaaccent Ntilde Eng O Oacute Obreve Ocircumflex Odieresis Ograve Ohungarumlaut Omacron Oslash Otilde OE P Thorn Q R Racute Rcaron Rcommaaccent S Sacute Scaron Scedilla Scommaaccent Germandbls T Tcaron Tcedilla Tcommaaccent U Uacute Ubreve Ucircumflex Udieresis Ugrave Uhungarumlaut Umacron Uogonek Uring Utilde V W Wacute Wcircumflex Wdieresis Wgrave X Y Yacute Ycircumflex Ydieresis Ygrave Ytilde Z Zacute Zcaron Zdotaccent Saltillo Ya-cy Delta Pi Omega";
name = Uppercase;
}
);
customParameters = (
{
name = blueScale;
value = 0.037;
},
{
name = "Use Typo Metrics";
value = 1;
},
{
name = fsType;
value = (
);
},
{
name = "Axis Mappings";
value = {
wght = {
400 = 400;
500 = 550;
600 = 600;
700 = 700;
800 = 800;
};
};
},
{
name = "Variable Font Origin";
value = "E8FC3098-FD3B-4CCD-A487-BB9306939620";
}
);
date = "2021-03-04 17:58:23 +0000";
familyName = "Rethink Sans";
featurePrefixes = (
{
automatic = 1;
code = "languagesystem DFLT dflt;

languagesystem latn dflt;
languagesystem latn AZE;
languagesystem latn CRT;
languagesystem latn KAZ;
languagesystem latn TAT;
languagesystem latn TRK;
languagesystem latn ROM;
languagesystem latn MOL;
languagesystem latn CAT;
languagesystem latn NLD;
";
name = Languagesystems;
}
);
features = (
{
automatic = 1;
code = "feature locl;
feature subs;
feature sinf;
feature sups;
feature numr;
feature dnom;
feature frac;
feature ordn;
feature case;
";
tag = aalt;
},

glyphs = (
{
glyphname = A;
kernLeft = A;
kernRight = A;
lastChange = "2023-05-13 01:05:57 +0000";
layers = (
{
anchors = (
{
name = bottom;
pos = (347,0);
},
{
name = ogonek;
pos = (675,0);
},
{
name = top;
pos = (347,700);
}
);
background = {
anchors = (
{
name = bottom;
pos = (347,0);
},
{
name = ogonek;
pos = (675,0);
},
{
name = top;
pos = (347,700);
}
);
shapes = (
{
closed = 1;
nodes = (
(153,0,l),
(209,159,l),
(484,159,l),
(539,0,l),
(675,0,l),
(419,700,l),
(275,700,l),
(19,0,l)
);
},
{
closed = 1;
nodes = (
(346,553,l),
(448,262,l),
(245,262,l)
);
}
);
};
hints = (
{
horizontal = 1;
place = (158,96);
type = Stem;
},
{
place = (19,652);
type = Stem;
}
);
layerId = m01;
shapes = (
{
closed = 1;
nodes = (
(153,0,l),
(209,159,l),
(484,159,l),
(539,0,l),
(675,0,l),
(419,700,l),
(275,700,l),
(19,0,l)
);
},
{
closed = 1;
nodes = (
(346,553,l),
(448,262,l),
(245,262,l)
);
}
);
width = 694;
},
{
anchors = (
{
name = bottom;
pos = (332,0);
},
{
name = ogonek;
pos = (634,0);
},
{
name = top;
pos = (332,700);
}
);
background = {
anchors = (
{
name = bottom;
pos = (332,0);
},
{
name = ogonek;
pos = (634,0);
},
{
name = top;
pos = (332,700);
}
);
shapes = (
{
closed = 1;
nodes = (
(118,0,l),
(183,180,l),
(481,180,l),
(545,0,l),
(634,0,l),
(377,700,l),
(288,700,l),
(30,0,l)
);
},
{
closed = 1;
nodes = (
(332,594,l),
(456,248,l),
(208,248,l)
);
}
);
};
hints = (
{
horizontal = 1;
place = (180,68);
type = Stem;
},
{
place = (30,604);
type = Stem;
}
);
layerId = "E8FC3098-FD3B-4CCD-A487-BB9306939620";
shapes = (
{
closed = 1;
nodes = (
(118,0,l),
(183,180,l),
(481,180,l),
(545,0,l),
(634,0,l),
(377,700,l),
(288,700,l),
(30,0,l)
);
},
{
closed = 1;
nodes = (
(332,594,l),
(456,248,l),
(208,248,l)
);
}
);
width = 664;
},
{
anchors = (
{
name = bottom;
pos = (346,0);
},
{
name = ogonek;
pos = (692,0);
},
{
name = top;
pos = (346,700);
}
);
background = {
anchors = (
{
name = bottom;
pos = (346,0);
},
{
name = ogonek;
pos = (692,0);
},
{
name = top;
pos = (346,700);
}
);
shapes = (
{
closed = 1;
nodes = (
(166,0,l),
(216,145,l),
(476,145,l),
(525,0,l),
(692,0,l),
(437,700,l),
(256,700,l),
(2,0,l)
);
},
{
closed = 1;
nodes = (
(345,526,l),
(433,271,l),
(260,271,l)
);
}
);
};
hints = (
{
horizontal = 1;
place = (133,105);
type = Stem;
},
{
place = (2,674);
type = Stem;
}
);
layerId = "E93BD6B3-FA9D-4EFB-B4A0-6094DEE674CC";
shapes = (
{
closed = 1;
nodes = (
(166,0,l),
(216,145,l),
(476,145,l),
(525,0,l),
(692,0,l),
(437,700,l),
(256,700,l),
(2,0,l)
);
},
{
closed = 1;
nodes = (
(345,526,l),
(433,271,l),
(260,271,l)
);
}
);
width = 692;
}
);
note = A;
unicode = 65;
},
{
glyphname = Aacute;
kernLeft = A;
lastChange = "2023-05-03 08:05:36 +0000";
layers = (
{
background = {
anchors = (
{
name = bottom;
pos = (347,0);
},
{
name = ogonek;
pos = (675,0);
},
{
name = top;
pos = (347,952);
}
);
hints = (
{
horizontal = 1;
place = (158,96);
type = Stem;
},
{
place = (19,652);
type = Stem;
},
{
horizontal = 1;
place = (740,212);
type = Stem;
},
{
place = (234,226);
type = Stem;
}
);
shapes = (
{
closed = 1;
nodes = (
(153,0,l),
(209,159,l),
(484,159,l),
(539,0,l),
(675,0,l),
(419,700,l),
(275,700,l),
(19,0,l)
);
},
{
closed = 1;
nodes = (
(346,553,l),
(448,262,l),
(245,262,l)
);
},
{
closed = 1;
nodes = (
(460,848,l),
(460,952,l),
(234,830,l),
(234,740,l)
);
}
);
};
hints = (
{
horizontal = 1;
place = (158,96);
type = Stem;
},
{
place = (297,222);
type = Stem;
}
);
layerId = m01;
shapes = (
{
ref = A;
},
{
pos = (234,0);
ref = acutecomb.case;
}
);
width = 694;
},
{
background = {
anchors = (
{
name = bottom;
pos = (332,0);
},
{
name = ogonek;
pos = (634,0);
},
{
name = top;
pos = (332,931);
}
);
hints = (
{
horizontal = 1;
place = (180,68);
type = Stem;
},
{
place = (30,604);
type = Stem;
},
{
horizontal = 1;
place = (741,190);
type = Stem;
},
{
place = (227,210);
type = Stem;
}
);
shapes = (
{
closed = 1;
nodes = (
(118,0,l),
(183,180,l),
(481,180,l),
(545,0,l),
(634,0,l),
(377,700,l),
(288,700,l),
(30,0,l)
);
},
{
closed = 1;
nodes = (
(332,594,l),
(456,248,l),
(208,248,l)
);
},
{
closed = 1;
nodes = (
(437,858,l),
(437,931,l),
(227,804,l),
(227,741,l)
);
}
);
};
hints = (
{
horizontal = 1;
place = (180,68);
type = Stem;
},
{
place = (288,210);
type = Stem;
}
);
layerId = "E8FC3098-FD3B-4CCD-A487-BB9306939620";
shapes = (
{
ref = A;
},
{
pos = (227,0);
ref = acutecomb.case;
}
);
width = 664;
},
{
background = {
anchors = (
{
name = bottom;
pos = (346,0);
},
{
name = ogonek;
pos = (692,0);
},
{
name = top;
pos = (346,966);
}
);
hints = (
{
horizontal = 1;
place = (133,105);
type = Stem;
},
{
place = (2,674);
type = Stem;
},
{
horizontal = 1;
place = (739,227);
type = Stem;
},
{
place = (227,237);
type = Stem;
}
);
shapes = (
{
closed = 1;
nodes = (
(166,0,l),
(216,145,l),
(476,145,l),
(525,0,l),
(692,0,l),
(437,700,l),
(256,700,l),
(2,0,l)
);
},
{
closed = 1;
nodes = (
(345,526,l),
(433,271,l),
(260,271,l)
);
},
{
closed = 1;
nodes = (
(464,841,l),
(464,966,l),
(227,847,l),
(227,739,l)
);
}
);
};
hints = (
{
horizontal = 1;
place = (133,105);
type = Stem;
},
{
place = (293,220);
type = Stem;
}
);
layerId = "E93BD6B3-FA9D-4EFB-B4A0-6094DEE674CC";
shapes = (
{
ref = A;
},
{
pos = (227,0);
ref = acutecomb.case;
}
);
width = 692;
}
);
note = Aacute;
unicode = 193;
},
{
glyphname = Abreve;
kernLeft = A;
lastChange = "2023-05-08 22:22:48 +0000";
layers = (
{
background = {
anchors = (
{
name = bottom;
pos = (347,0);
},
{
name = ogonek;
pos = (675,0);
},
{
name = top;
pos = (347,917);
}
);
hints = (
{
horizontal = 1;
place = (158,96);
type = Stem;
},
{
place = (19,652);
type = Stem;
},
{
horizontal = 1;
place = (749,96);
type = Stem;
},
{
place = (191,68);
type = Stem;
},
{
place = (434,68);
type = Stem;
}
);
shapes = (
{
closed = 1;
nodes = (
(153,0,l),
(209,159,l),
(484,159,l),
(539,0,l),
(675,0,l),
(419,700,l),
(275,700,l),
(19,0,l)
);
},
{
closed = 1;
nodes = (
(346,553,l),
(448,262,l),
(245,262,l)
);
},
{
closed = 1;
nodes = (
(442,749,o),
(502,808,o),
(502,900,cs),
(502,917,l),
(434,917,l),
(434,872,o),
(411,845,o),
(346,845,cs),
(282,845,o),
(259,872,o),
(259,917,c),
(191,917,l),
(191,901,ls),
(191,808,o),
(250,749,o),
(346,749,cs)
);
}
);
};
hints = (
{
horizontal = 1;
place = (158,96);
type = Stem;
},
{
horizontal = 1;
place = (745,92);
type = Stem;
},
{
place = (192,64);
type = Stem;
},
{
place = (435,64);
type = Stem;
}
);
layerId = m01;
shapes = (
{
ref = A;
},
{
pos = (191,0);
ref = brevecomb.case;
}
);
width = 694;
},
{
background = {
anchors = (
{
name = bottom;
pos = (332,0);
},
{
name = ogonek;
pos = (634,0);
},
{
name = top;
pos = (332,901);
}
);
hints = (
{
horizontal = 1;
place = (180,68);
type = Stem;
},
{
place = (30,604);
type = Stem;
},
{
horizontal = 1;
place = (757,66);
type = Stem;
},
{
place = (191,50);
type = Stem;
},
{
place = (421,51);
type = Stem;
}
);
shapes = (
{
closed = 1;
nodes = (
(118,0,l),
(183,180,l),
(481,180,l),
(545,0,l),
(634,0,l),
(377,700,l),
(288,700,l),
(30,0,l)
);
},
{
closed = 1;
nodes = (
(332,594,l),
(456,248,l),
(208,248,l)
);
},
{
closed = 1;
nodes = (
(422,757,o),
(472,814,o),
(472,887,cs),
(472,901,l),
(421,901,l),
(421,852,o),
(395,823,o),
(331,823,cs),
(267,823,o),
(241,852,o),
(241,901,c),
(191,901,l),
(191,887,ls),
(191,814,o),
(239,757,o),
(331,757,cs)
);
}
);
};
hints = (
{
horizontal = 1;
place = (180,68);
type = Stem;
},
{
horizontal = 1;
place = (757,66);
type = Stem;
},
{
place = (193,50);
type = Stem;
},
{
place = (423,51);
type = Stem;
}
);
layerId = "E8FC3098-FD3B-4CCD-A487-BB9306939620";
shapes = (
{
ref = A;
},
{
pos = (191,0);
ref = brevecomb.case;
}
);
width = 664;
},
{
background = {
anchors = (
{
name = bottom;
pos = (346,0);
},
{
name = ogonek;
pos = (692,0);
},
{
name = top;
pos = (346,928);
}
);
hints = (
{
horizontal = 1;
place = (133,105);
type = Stem;
},
{
place = (2,674);
type = Stem;
},
{
horizontal = 1;
place = (744,116);
type = Stem;
},
{
place = (180,80);
type = Stem;
},
{
place = (432,79);
type = Stem;
}
);
shapes = (
{
closed = 1;
nodes = (
(166,0,l),
(216,145,l),
(476,145,l),
(525,0,l),
(692,0,l),
(437,700,l),
(256,700,l),
(2,0,l)
);
},
{
closed = 1;
nodes = (
(345,526,l),
(433,271,l),
(260,271,l)
);
},
{
closed = 1;
nodes = (
(444,746,o),
(511,804,o),
(511,909,cs),
(511,928,l),
(432,928,l),
(432,885,o),
(411,860,o),
(345,860,cs),
(281,860,o),
(260,885,o),
(260,928,c),
(180,928,l),
(180,910,ls),
(180,804,o),
(246,746,o),
(345,746,cs)
);
}
);
};
hints = (
{
horizontal = 1;
place = (133,105);
type = Stem;
},
{
horizontal = 1;
place = (727,99);
type = Stem;
},
{
place = (181,63);
type = Stem;
},
{
place = (433,63);
type = Stem;
}
);
layerId = "E93BD6B3-FA9D-4EFB-B4A0-6094DEE674CC";
shapes = (
{
ref = A;
},
{
pos = (180,0);
ref = brevecomb.case;
}
);
width = 692;
}
);
note = Abreve;
unicode = 258;
},
{
glyphname = Acaron;
lastChange = "2023-05-08 22:22:48 +0000";
layers = (
{
background = {
anchors = (
{
name = bottom;
pos = (332,0);
},
{
name = ogonek;
pos = (634,0);
},
{
name = top;
pos = (332,901);
}
);
hints = (
{
horizontal = 1;
place = (180,68);
type = Stem;
},
{
place = (30,604);
type = Stem;
},
{
horizontal = 1;
place = (754,147);
type = Stem;
},
{
place = (195,274);
type = Stem;
}
);
shapes = (
{
closed = 1;
nodes = (
(118,0,l),
(183,180,l),
(481,180,l),
(545,0,l),
(634,0,l),
(377,700,l),
(288,700,l),
(30,0,l)
);
},
{
closed = 1;
nodes = (
(332,594,l),
(456,248,l),
(208,248,l)
);
},
{
closed = 1;
nodes = (
(469,836,l),
(469,901,l),
(332,817,l),
(195,901,l),
(195,836,l),
(332,754,l)
);
}
);
};
layerId = "E8FC3098-FD3B-4CCD-A487-BB9306939620";
shapes = (
{
ref = A;
},
{
pos = (195,0);
ref = caroncomb.case;
}
);
width = 664;
},
{
background = {
anchors = (
{
name = bottom;
pos = (347,0);
},
{
name = ogonek;
pos = (675,0);
},
{
name = top;
pos = (347,918);
}
);
hints = (
{
horizontal = 1;
place = (158,96);
type = Stem;
},
{
place = (19,652);
type = Stem;
},
{
horizontal = 1;
place = (746,172);
type = Stem;
},
{
place = (201,292);
type = Stem;
}
);
shapes = (
{
closed = 1;
nodes = (
(153,0,l),
(209,159,l),
(484,159,l),
(539,0,l),
(675,0,l),
(419,700,l),
(275,700,l),
(19,0,l)
);
},
{
closed = 1;
nodes = (
(346,553,l),
(448,262,l),
(245,262,l)
);
},
{
closed = 1;
nodes = (
(493,826,l),
(493,918,l),
(347,833,l),
(201,918,l),
(201,826,l),
(347,746,l)
);
}
);
};
layerId = m01;
shapes = (
{
ref = A;
},
{
pos = (201,0);
ref = caroncomb.case;
}
);
width = 694;
},
{
background = {
anchors = (
{
name = bottom;
pos = (346,0);
},
{
name = ogonek;
pos = (692,0);
},
{
name = top;
pos = (346,929);
}
);
hints = (
{
horizontal = 1;
place = (133,105);
type = Stem;
},
{
place = (2,674);
type = Stem;
},
{
horizontal = 1;
place = (741,189);
type = Stem;
},
{
place = (194,304);
type = Stem;
}
);
shapes = (
{
closed = 1;
nodes = (
(166,0,l),
(216,145,l),
(476,145,l),
(525,0,l),
(692,0,l),
(437,700,l),
(256,700,l),
(2,0,l)
);
},
{
closed = 1;
nodes = (
(345,526,l),
(433,271,l),
(260,271,l)
);
},
{
closed = 1;
nodes = (
(498,819,l),
(498,929,l),
(346,844,l),
(194,929,l),
(194,819,l),
(346,741,l)
);
}
);
};
layerId = "E93BD6B3-FA9D-4EFB-B4A0-6094DEE674CC";
shapes = (
{
ref = A;
},
{
pos = (194,0);
ref = caroncomb.case;
}
);
width = 692;
}
);
unicode = 461;
},
{
glyphname = Acircumflex;
kernLeft = A;
lastChange = "2023-05-08 22:22:48 +0000";
layers = (
{
background = {
anchors = (
{
name = bottom;
pos = (347,0);
},
{
name = ogonek;
pos = (675,0);
},
{
name = top;
pos = (347,919);
}
);
hints = (
{
horizontal = 1;
place = (158,96);
type = Stem;
},
{
place = (19,652);
type = Stem;
},
{
horizontal = 1;
place = (747,172);
type = Stem;
},
{
place = (201,292);
type = Stem;
}
);
shapes = (
{
closed = 1;
nodes = (
(153,0,l),
(209,159,l),
(484,159,l),
(539,0,l),
(675,0,l),
(419,700,l),
(275,700,l),
(19,0,l)
);
},
{
closed = 1;
nodes = (
(346,553,l),
(448,262,l),
(245,262,l)
);
},
{
closed = 1;
nodes = (
(347,829,l),
(493,747,l),
(493,839,l),
(347,919,l),
(201,839,l),
(201,747,l)
);
}
);
};
hints = (
{
horizontal = 1;
place = (158,96);
type = Stem;
},
{
place = (201,288);
type = Stem;
}
);
layerId = m01;
shapes = (
{
ref = A;
},
{
pos = (201,0);
ref = circumflexcomb.case;
}
);
width = 694;
},
{
background = {
anchors = (
{
name = bottom;
pos = (332,0);
},
{
name = ogonek;
pos = (634,0);
},
{
name = top;
pos = (332,902);
}
);
hints = (
{
horizontal = 1;
place = (180,68);
type = Stem;
},
{
place = (30,604);
type = Stem;
},
{
horizontal = 1;
place = (755,147);
type = Stem;
},
{
place = (195,274);
type = Stem;
}
);
shapes = (
{
closed = 1;
nodes = (
(118,0,l),
(183,180,l),
(481,180,l),
(545,0,l),
(634,0,l),
(377,700,l),
(288,700,l),
(30,0,l)
);
},
{
closed = 1;
nodes = (
(332,594,l),
(456,248,l),
(208,248,l)
);
},
{
closed = 1;
nodes = (
(332,839,l),
(469,755,l),
(469,821,l),
(332,902,l),
(195,821,l),
(195,755,l)
);
}
);
};
hints = (
{
horizontal = 1;
place = (180,68);
type = Stem;
},
{
place = (196,274);
type = Stem;
}
);
layerId = "E8FC3098-FD3B-4CCD-A487-BB9306939620";
shapes = (
{
ref = A;
},
{
pos = (195,0);
ref = circumflexcomb.case;
}
);
width = 664;
},
{
background = {
anchors = (
{
name = bottom;
pos = (346,0);
},
{
name = ogonek;
pos = (692,0);
},
{
name = top;
pos = (346,930);
}
);
hints = (
{
horizontal = 1;
place = (133,105);
type = Stem;
},
{
place = (2,674);
type = Stem;
},
{
horizontal = 1;
place = (742,189);
type = Stem;
},
{
place = (194,304);
type = Stem;
}
);
shapes = (
{
closed = 1;
nodes = (
(166,0,l),
(216,145,l),
(476,145,l),
(525,0,l),
(692,0,l),
(437,700,l),
(256,700,l),
(2,0,l)
);
},
{
closed = 1;
nodes = (
(345,526,l),
(433,271,l),
(260,271,l)
);
},
{
closed = 1;
nodes = (
(346,822,l),
(498,742,l),
(498,851,l),
(346,930,l),
(194,851,l),
(194,742,l)
);
}
);
};
hints = (
{
horizontal = 1;
place = (133,105);
type = Stem;
},
{
place = (194,287);
type = Stem;
}
);
layerId = "E93BD6B3-FA9D-4EFB-B4A0-6094DEE674CC";
shapes = (
{
ref = A;
},
{
pos = (194,0);
ref = circumflexcomb.case;
}
);
width = 692;
}
);
note = Acircumflex;
unicode = 194;
},
{
glyphname = Adieresis;
kernLeft = A;
lastChange = "2023-05-08 22:22:48 +0000";
layers = (
{
background = {
anchors = (
{
name = bottom;
pos = (347,0);
},
{
name = ogonek;
pos = (675,0);
},
{
name = top;
pos = (347,934);
}
);
hints = (
{
horizontal = 1;
place = (158,96);
type = Stem;
},
{
place = (19,652);
type = Stem;
},
{
horizontal = 1;
place = (768,124);
type = Stem;
},
{
place = (153,124);
type = Stem;
},
{
place = (333,124);
type = Stem;
}
);
shapes = (
{
closed = 1;
nodes = (
(153,0,l),
(209,159,l),
(484,159,l),
(539,0,l),
(675,0,l),
(419,700,l),
(275,700,l),
(19,0,l)
);
},
{
closed = 1;
nodes = (
(346,553,l),
(448,262,l),
(245,262,l)
);
},
{
closed = 1;
nodes = (
(283,768,o),
(319,804,o),
(319,851,cs),
(319,898,o),
(283,934,o),
(236,934,cs),
(189,934,o),
(153,898,o),
(153,851,cs),
(153,804,o),
(189,768,o),
(236,768,cs)
);
},
{
closed = 1;
nodes = (
(505,768,o),
(541,804,o),
(541,851,cs),
(541,898,o),
(505,934,o),
(458,934,cs),
(411,934,o),
(375,898,o),
(375,851,cs),
(375,804,o),
(411,768,o),
(458,768,cs)
);
}
);
};
hints = (
{
horizontal = 1;
place = (158,96);
type = Stem;
},
{
horizontal = 1;
place = (764,120);
type = Stem;
},
{
place = (195,120);
type = Stem;
},
{
place = (375,120);
type = Stem;
}
);
layerId = m01;
shapes = (
{
ref = A;
},
{
pos = (153,0);
ref = dieresiscomb.case;
}
);
width = 694;
},
{
background = {
anchors = (
{
name = bottom;
pos = (332,0);
},
{
name = ogonek;
pos = (634,0);
},
{
name = top;
pos = (332,889);
}
);
hints = (
{
horizontal = 1;
place = (180,68);
type = Stem;
},
{
place = (30,604);
type = Stem;
},
{
horizontal = 1;
place = (775,100);
type = Stem;
},
{
place = (185,100);
type = Stem;
},
{
place = (345,99);
type = Stem;
}
);
shapes = (
{
closed = 1;
nodes = (
(118,0,l),
(183,180,l),
(481,180,l),
(545,0,l),
(634,0,l),
(377,700,l),
(288,700,l),
(30,0,l)
);
},
{
closed = 1;
nodes = (
(332,594,l),
(456,248,l),
(208,248,l)
);
},
{
closed = 1;
nodes = (
(275,775,o),
(301,800,o),
(301,833,cs),
(301,865,o),
(275,889,o),
(243,889,cs),
(210,889,o),
(185,865,o),
(185,833,cs),
(185,800,o),
(210,775,o),
(243,775,cs)
);
},
{
closed = 1;
nodes = (
(452,775,o),
(478,800,o),
(478,833,cs),
(478,865,o),
(452,889,o),
(420,889,cs),
(387,889,o),
(362,865,o),
(362,833,cs),
(362,800,o),
(387,775,o),
(420,775,cs)
);
}
);
};
hints = (
{
horizontal = 1;
place = (180,68);
type = Stem;
},
{
horizontal = 1;
place = (775,100);
type = Stem;
},
{
place = (204,100);
type = Stem;
},
{
place = (364,99);
type = Stem;
}
);
layerId = "E8FC3098-FD3B-4CCD-A487-BB9306939620";
shapes = (
{
ref = A;
},
{
pos = (185,0);
ref = dieresiscomb.case;
}
);
width = 664;
},
{
background = {
anchors = (
{
name = bottom;
pos = (346,0);
},
{
name = ogonek;
pos = (692,0);
},
{
name = top;
pos = (346,949);
}
);
hints = (
{
horizontal = 1;
place = (133,105);
type = Stem;
},
{
place = (2,674);
type = Stem;
},
{
horizontal = 1;
place = (763,140);
type = Stem;
},
{
place = (132,140);
type = Stem;
},
{
place = (325,141);
type = Stem;
}
);
shapes = (
{
closed = 1;
nodes = (
(166,0,l),
(216,145,l),
(476,145,l),
(525,0,l),
(692,0,l),
(437,700,l),
(256,700,l),
(2,0,l)
);
},
{
closed = 1;
nodes = (
(345,526,l),
(433,271,l),
(260,271,l)
);
},
{
closed = 1;
nodes = (
(282,759,o),
(322,801,o),
(322,854,cs),
(322,909,o),
(282,949,o),
(227,949,cs),
(173,949,o),
(132,909,o),
(132,854,cs),
(132,801,o),
(173,759,o),
(227,759,cs)
);
},
{
closed = 1;
nodes = (
(519,759,o),
(560,801,o),
(560,854,cs),
(560,909,o),
(519,949,o),
(465,949,cs),
(411,949,o),
(370,909,o),
(370,854,cs),
(370,801,o),
(411,759,o),
(465,759,cs)
);
}
);
};
hints = (
{
horizontal = 1;
place = (133,105);
type = Stem;
},
{
horizontal = 1;
place = (747,123);
type = Stem;
},
{
place = (179,123);
type = Stem;
},
{
place = (372,124);
type = Stem;
}
);
layerId = "E93BD6B3-FA9D-4EFB-B4A0-6094DEE674CC";
shapes = (
{
ref = A;
},
{
pos = (132,0);
ref = dieresiscomb.case;
}
);
width = 692;
}
);
note = Adieresis;
unicode = 196;
},
{
glyphname = Agrave;
kernLeft = A;
lastChange = "2023-05-08 22:22:48 +0000";
layers = (
{
background = {
anchors = (
{
name = bottom;
pos = (347,0);
},
{
name = ogonek;
pos = (675,0);
},
{
name = top;
pos = (347,952);
}
);
hints = (
{
horizontal = 1;
place = (158,96);
type = Stem;
},
{
place = (19,652);
type = Stem;
},
{
horizontal = 1;
place = (740,212);
type = Stem;
},
{
place = (234,226);
type = Stem;
}
);
shapes = (
{
closed = 1;
nodes = (
(153,0,l),
(209,159,l),
(484,159,l),
(539,0,l),
(675,0,l),
(419,700,l),
(275,700,l),
(19,0,l)
);
},
{
closed = 1;
nodes = (
(346,553,l),
(448,262,l),
(245,262,l)
);
},
{
closed = 1;
nodes = (
(460,830,l),
(234,952,l),
(234,848,l),
(460,740,l)
);
}
);
};
hints = (
{
horizontal = 1;
place = (158,96);
type = Stem;
},
{
place = (171,222);
type = Stem;
}
);
layerId = m01;
shapes = (
{
ref = A;
},
{
pos = (234,0);
ref = gravecomb.case;
}
);
width = 694;
},
{
background = {
anchors = (
{
name = bottom;
pos = (332,0);
},
{
name = ogonek;
pos = (634,0);
},
{
name = top;
pos = (332,931);
}
);
hints = (
{
horizontal = 1;
place = (180,68);
type = Stem;
},
{
place = (30,604);
type = Stem;
},
{
horizontal = 1;
place = (741,190);
type = Stem;
},
{
place = (227,210);
type = Stem;
}
);
shapes = (
{
closed = 1;
nodes = (
(118,0,l),
(183,180,l),
(481,180,l),
(545,0,l),
(634,0,l),
(377,700,l),
(288,700,l),
(30,0,l)
);
},
{
closed = 1;
nodes = (
(332,594,l),
(456,248,l),
(208,248,l)
);
},
{
closed = 1;
nodes = (
(437,804,l),
(227,931,l),
(227,858,l),
(437,741,l)
);
}
);
};
hints = (
{
horizontal = 1;
place = (180,68);
type = Stem;
},
{
place = (167,210);
type = Stem;
}
);
layerId = "E8FC3098-FD3B-4CCD-A487-BB9306939620";
shapes = (
{
ref = A;
},
{
pos = (227,0);
ref = gravecomb.case;
}
);
width = 664;
},
{
background = {
anchors = (
{
name = bottom;
pos = (346,0);
},
{
name = ogonek;
pos = (692,0);
},
{
name = top;
pos = (346,966);
}
);
hints = (
{
horizontal = 1;
place = (133,105);
type = Stem;
},
{
place = (2,674);
type = Stem;
},
{
horizontal = 1;
place = (739,227);
type = Stem;
},
{
place = (227,237);
type = Stem;
}
);
shapes = (
{
closed = 1;
nodes = (
(166,0,l),
(216,145,l),
(476,145,l),
(525,0,l),
(692,0,l),
(437,700,l),
(256,700,l),
(2,0,l)
);
},
{
closed = 1;
nodes = (
(345,526,l),
(433,271,l),
(260,271,l)
);
},
{
closed = 1;
nodes = (
(465,847,l),
(228,966,l),
(228,841,l),
(465,739,l)
);
}
);
};
hints = (
{
horizontal = 1;
place = (133,105);
type = Stem;
},
{
place = (164,220);
type = Stem;
}
);
layerId = "E93BD6B3-FA9D-4EFB-B4A0-6094DEE674CC";
shapes = (
{
ref = A;
},
{
pos = (227,0);
ref = gravecomb.case;
}
);
width = 692;
}
);
note = Agrave;
unicode = 192;
},
{
glyphname = Amacron;
kernLeft = A;
lastChange = "2023-05-08 22:59:23 +0000";
layers = (
{
background = {
anchors = (
{
name = bottom;
pos = (347,0);
},
{
name = ogonek;
pos = (675,0);
},
{
name = top;
pos = (347,874);
}
);
hints = (
{
horizontal = 1;
place = (158,96);
type = Stem;
},
{
place = (19,652);
type = Stem;
},
{
horizontal = 1;
place = (783,91);
type = Stem;
},
{
place = (160,374);
type = Stem;
}
);
shapes = (
{
closed = 1;
nodes = (
(153,0,l),
(209,159,l),
(484,159,l),
(539,0,l),
(675,0,l),
(419,700,l),
(275,700,l),
(19,0,l)
);
},
{
closed = 1;
nodes = (
(346,553,l),
(448,262,l),
(245,262,l)
);
},
{
closed = 1;
nodes = (
(534,783,l),
(534,874,l),
(160,874,l),
(160,783,l)
);
}
);
};
hints = (
{
horizontal = 1;
place = (158,96);
type = Stem;
},
{
horizontal = 1;
place = (779,87);
type = Stem;
},
{
place = (19,652);
type = Stem;
}
);
layerId = m01;
shapes = (
{
ref = A;
},
{
pos = (170,0);
ref = macroncomb.case;
}
);
width = 694;
},
{
background = {
anchors = (
{
name = bottom;
pos = (332,0);
},
{
name = ogonek;
pos = (634,0);
},
{
name = top;
pos = (332,859);
}
);
hints = (
{
horizontal = 1;
place = (180,68);
type = Stem;
},
{
place = (30,604);
type = Stem;
},
{
horizontal = 1;
place = (796,63);
type = Stem;
},
{
place = (158,347);
type = Stem;
}
);
shapes = (
{
closed = 1;
nodes = (
(118,0,l),
(183,180,l),
(481,180,l),
(545,0,l),
(634,0,l),
(377,700,l),
(288,700,l),
(30,0,l)
);
},
{
closed = 1;
nodes = (
(332,594,l),
(456,248,l),
(208,248,l)
);
},
{
closed = 1;
nodes = (
(505,796,l),
(505,859,l),
(158,859,l),
(158,796,l)
);
}
);
};
hints = (
{
horizontal = 1;
place = (180,68);
type = Stem;
},
{
horizontal = 1;
place = (796,63);
type = Stem;
},
{
place = (30,604);
type = Stem;
}
);
layerId = "E8FC3098-FD3B-4CCD-A487-BB9306939620";
shapes = (
{
ref = A;
},
{
pos = (158,0);
ref = macroncomb.case;
}
);
width = 664;
},
{
background = {
anchors = (
{
name = bottom;
pos = (346,0);
},
{
name = ogonek;
pos = (692,0);
},
{
name = top;
pos = (346,884);
}
);
hints = (
{
horizontal = 1;
place = (133,105);
type = Stem;
},
{
place = (2,674);
type = Stem;
},
{
horizontal = 1;
place = (774,110);
type = Stem;
},
{
place = (150,392);
type = Stem;
}
);
shapes = (
{
closed = 1;
nodes = (
(166,0,l),
(216,145,l),
(476,145,l),
(525,0,l),
(692,0,l),
(437,700,l),
(256,700,l),
(2,0,l)
);
},
{
closed = 1;
nodes = (
(345,526,l),
(433,271,l),
(260,271,l)
);
},
{
closed = 1;
nodes = (
(542,774,l),
(542,884,l),
(150,884,l),
(150,774,l)
);
}
);
};
hints = (
{
horizontal = 1;
place = (133,105);
type = Stem;
},
{
horizontal = 1;
place = (758,93);
type = Stem;
},
{
place = (2,674);
type = Stem;
}
);
layerId = "E93BD6B3-FA9D-4EFB-B4A0-6094DEE674CC";
shapes = (
{
ref = A;
},
{
pos = (160,0);
ref = macroncomb.case;
}
);
width = 692;
}
);
note = Amacron;
unicode = 256;
},
{
glyphname = Aogonek;
kernLeft = A;
lastChange = "2023-05-08 22:22:48 +0000";
layers = (
{
background = {
anchors = (
{
name = bottom;
pos = (347,0);
},
{
name = ogonek;
pos = (675,0);
},
{
name = top;
pos = (347,700);
}
);
hints = (
{
horizontal = 1;
place = (158,96);
type = Stem;
},
{
place = (19,652);
type = Stem;
},
{
horizontal = 1;
place = (-210,75);
type = Stem;
},
{
place = (460,97);
type = Stem;
},
{
place = (460,220);
type = Stem;
}
);
shapes = (
{
closed = 1;
nodes = (
(153,0,l),
(209,159,l),
(484,159,l),
(539,0,l),
(675,0,l),
(419,700,l),
(275,700,l),
(19,0,l)
);
},
{
closed = 1;
nodes = (
(346,553,l),
(448,262,l),
(245,262,l)
);
},
{
closed = 1;
nodes = (
(624,-210,o),
(655,-204,o),
(680,-196,c),
(680,-120,l),
(654,-130,o),
(630,-135,o),
(609,-135,cs),
(577,-135,o),
(557,-119,o),
(557,-94,cs),
(557,-70,o),
(575,-50,o),
(623,-26,cs),
(675,0,l),
(646,60,l),
(600,40,ls),
(494,-6,o),
(460,-53,o),
(460,-106,cs),
(460,-178,o),
(521,-210,o),
(593,-210,cs)
);
}
);
};
hints = (
{
horizontal = 1;
place = (-214,71);
type = Stem;
},
{
horizontal = 1;
place = (158,96);
type = Stem;
},
{
place = (460,94);
type = Stem;
},
{
place = (460,216);
type = Stem;
}
);
layerId = m01;
shapes = (
{
ref = A;
},
{
pos = (460,0);
ref = ogonekcomb.case;
}
);
width = 694;
},
{
background = {
anchors = (
{
name = bottom;
pos = (332,0);
},
{
name = ogonek;
pos = (634,0);
},
{
name = top;
pos = (332,700);
}
);
hints = (
{
horizontal = 1;
place = (180,68);
type = Stem;
},
{
place = (30,604);
type = Stem;
},
{
horizontal = 1;
place = (-203,54);
type = Stem;
},
{
place = (444,68);
type = Stem;
}
);
shapes = (
{
closed = 1;
nodes = (
(118,0,l),
(183,180,l),
(481,180,l),
(545,0,l),
(634,0,l),
(377,700,l),
(288,700,l),
(30,0,l)
);
},
{
closed = 1;
nodes = (
(332,594,l),
(456,248,l),
(208,248,l)
);
},
{
closed = 1;
nodes = (
(587,-203,o),
(612,-199,o),
(637,-190,c),
(637,-134,l),
(614,-144,o),
(592,-149,o),
(572,-149,cs),
(536,-149,o),
(512,-131,o),
(512,-100,cs),
(512,-75,o),
(528,-51,o),
(576,-28,cs),
(634,0,l),
(613,43,l),
(560,20,ls),
(473,-18,o),
(444,-61,o),
(444,-108,cs),
(444,-174,o),
(500,-203,o),
(562,-203,cs)
);
}
);
};
hints = (
{
horizontal = 1;
place = (-203,54);
type = Stem;
},
{
horizontal = 1;
place = (180,68);
type = Stem;
},
{
place = (445,68);
type = Stem;
}
);
layerId = "E8FC3098-FD3B-4CCD-A487-BB9306939620";
shapes = (
{
ref = A;
},
{
pos = (444,0);
ref = ogonekcomb.case;
}
);
width = 664;
},
{
background = {
anchors = (
{
name = bottom;
pos = (346,0);
},
{
name = ogonek;
pos = (692,0);
},
{
name = top;
pos = (346,700);
}
);
hints = (
{
horizontal = 1;
place = (133,105);
type = Stem;
},
{
place = (2,674);
type = Stem;
},
{
horizontal = 1;
place = (-215,89);
type = Stem;
},
{
place = (460,162);
type = Stem;
},
{
place = (460,321);
type = Stem;
}
);
shapes = (
{
closed = 1;
nodes = (
(166,0,l),
(216,145,l),
(476,145,l),
(525,0,l),
(692,0,l),
(437,700,l),
(256,700,l),
(2,0,l)
);
},
{
closed = 1;
nodes = (
(345,526,l),
(433,271,l),
(260,271,l)
);
},
{
closed = 1;
nodes = (
(638,-215,o),
(673,-207,o),
(698,-200,c),
(698,-111,l),
(670,-121,o),
(645,-126,o),
(623,-126,cs),
(594,-126,o),
(576,-111,o),
(576,-90,cs),
(576,-67,o),
(596,-50,o),
(644,-25,cs),
(692,0,l),
(657,71,l),
(616,53,ls),
(497,1,o),
(460,-48,o),
(460,-105,cs),
(460,-181,o),
(524,-215,o),
(603,-215,cs)
);
}
);
};
hints = (
{
horizontal = 1;
place = (-231,72);
type = Stem;
},
{
horizontal = 1;
place = (133,105);
type = Stem;
},
{
place = (757,147);
type = Stem;
},
{
place = (460,305);
type = Stem;
}
);
layerId = "E93BD6B3-FA9D-4EFB-B4A0-6094DEE674CC";
shapes = (
{
ref = A;
},
{
pos = (460,0);
ref = ogonekcomb.case;
}
);
width = 692;
}
);
note = Aogonek;
unicode = 260;
},
{
glyphname = Aring;
kernLeft = A;
lastChange = "2023-05-08 22:22:48 +0000";
layers = (
{
background = {
anchors = (
{
name = bottom;
pos = (347,0);
},
{
name = ogonek;
pos = (675,0);
},
{
name = top;
pos = (347,975);
}
);
hints = (
{
horizontal = 1;
place = (158,96);
type = Stem;
},
{
place = (19,652);
type = Stem;
},
{
horizontal = 1;
place = (751,58);
type = Stem;
},
{
horizontal = 1;
place = (917,58);
type = Stem;
},
{
place = (233,62);
type = Stem;
},
{
place = (399,62);
type = Stem;
}
);
shapes = (
{
closed = 1;
nodes = (
(153,0,l),
(209,159,l),
(484,159,l),
(539,0,l),
(675,0,l),
(419,700,l),
(275,700,l),
(19,0,l)
);
},
{
closed = 1;
nodes = (
(346,553,l),
(448,262,l),
(245,262,l)
);
},
{
closed = 1;
nodes = (
(410,751,o),
(461,794,o),
(461,863,cs),
(461,932,o),
(410,975,o),
(346,975,cs),
(285,975,o),
(233,932,o),
(233,863,cs),
(233,794,o),
(285,751,o),
(346,751,cs)
);
},
{
closed = 1;
nodes = (
(318,809,o),
(295,831,o),
(295,863,cs),
(295,896,o),
(318,917,o),
(346,917,cs),
(377,917,o),
(399,896,o),
(399,863,cs),
(399,831,o),
(377,809,o),
(346,809,cs)
);
}
);
};
hints = (
{
horizontal = 1;
place = (158,96);
type = Stem;
},
{
horizontal = 1;
place = (747,54);
type = Stem;
},
{
horizontal = 1;
place = (913,54);
type = Stem;
},
{
place = (234,58);
type = Stem;
},
{
place = (400,58);
type = Stem;
}
);
layerId = m01;
shapes = (
{
ref = A;
},
{
pos = (233,0);
ref = ringcomb.case;
}
);
width = 694;
},
{
background = {
anchors = (
{
name = bottom;
pos = (332,0);
},
{
name = ogonek;
pos = (634,0);
},
{
name = top;
pos = (332,967);
}
);
hints = (
{
horizontal = 1;
place = (180,68);
type = Stem;
},
{
place = (30,604);
type = Stem;
},
{
horizontal = 1;
place = (761,43);
type = Stem;
},
{
horizontal = 1;
place = (923,44);
type = Stem;
},
{
place = (227,48);
type = Stem;
},
{
place = (389,48);
type = Stem;
}
);
shapes = (
{
closed = 1;
nodes = (
(118,0,l),
(183,180,l),
(481,180,l),
(545,0,l),
(634,0,l),
(377,700,l),
(288,700,l),
(30,0,l)
);
},
{
closed = 1;
nodes = (
(332,594,l),
(456,248,l),
(208,248,l)
);
},
{
closed = 1;
nodes = (
(391,761,o),
(437,800,o),
(437,864,cs),
(437,928,o),
(391,967,o),
(332,967,cs),
(275,967,o),
(227,928,o),
(227,864,cs),
(227,800,o),
(275,761,o),
(332,761,cs)
);
},
{
closed = 1;
nodes = (
(300,804,o),
(275,828,o),
(275,864,cs),
(275,900,o),
(300,923,o),
(332,923,cs),
(364,923,o),
(389,900,o),
(389,864,cs),
(389,828,o),
(364,804,o),
(332,804,cs)
);
}
);
};
hints = (
{
horizontal = 1;
place = (180,68);
type = Stem;
},
{
horizontal = 1;
place = (761,43);
type = Stem;
},
{
horizontal = 1;
place = (923,44);
type = Stem;
},
{
place = (228,48);
type = Stem;
},
{
place = (390,48);
type = Stem;
}
);
layerId = "E8FC3098-FD3B-4CCD-A487-BB9306939620";
shapes = (
{
ref = A;
},
{
pos = (227,0);
ref = ringcomb.case;
}
);
width = 664;
},
{
background = {
anchors = (
{
name = bottom;
pos = (346,0);
},
{
name = ogonek;
pos = (692,0);
},
{
name = top;
pos = (346,980);
}
);
hints = (
{
horizontal = 1;
place = (133,105);
type = Stem;
},
{
place = (2,674);
type = Stem;
},
{
horizontal = 1;
place = (744,68);
type = Stem;
},
{
horizontal = 1;
place = (913,67);
type = Stem;
},
{
place = (226,71);
type = Stem;
},
{
place = (395,71);
type = Stem;
}
);
shapes = (
{
closed = 1;
nodes = (
(166,0,l),
(216,145,l),
(476,145,l),
(525,0,l),
(692,0,l),
(437,700,l),
(256,700,l),
(2,0,l)
);
},
{
closed = 1;
nodes = (
(345,526,l),
(433,271,l),
(260,271,l)
);
},
{
closed = 1;
nodes = (
(412,744,o),
(466,790,o),
(466,862,cs),
(466,935,o),
(412,980,o),
(344,980,cs),
(281,980,o),
(226,935,o),
(226,862,cs),
(226,790,o),
(281,744,o),
(344,744,cs)
);
},
{
closed = 1;
nodes = (
(319,812,o),
(297,833,o),
(297,862,cs),
(297,893,o),
(319,913,o),
(344,913,cs),
(375,913,o),
(395,893,o),
(395,862,cs),
(395,833,o),
(375,812,o),
(344,812,cs)
);
}
);
};
hints = (
{
horizontal = 1;
place = (133,105);
type = Stem;
},
{
horizontal = 1;
place = (728,51);
type = Stem;
},
{
horizontal = 1;
place = (896,51);
type = Stem;
},
{
place = (228,55);
type = Stem;
},
{
place = (397,55);
type = Stem;
}
);
layerId = "E93BD6B3-FA9D-4EFB-B4A0-6094DEE674CC";
shapes = (
{
ref = A;
},
{
pos = (226,0);
ref = ringcomb.case;
}
);
width = 692;
}
);
note = Aring;
unicode = 197;
},
{
glyphname = Atilde;
kernLeft = A;
lastChange = "2023-05-10 16:40:43 +0000";
layers = (
{
background = {
anchors = (
{
name = bottom;
pos = (347,0);
},
{
name = ogonek;
pos = (675,0);
},
{
name = top;
pos = (347,877);
}
);
hints = (
{
horizontal = 1;
place = (158,96);
type = Stem;
},
{
place = (19,652);
type = Stem;
},
{
horizontal = 1;
place = (752,79);
type = Stem;
},
{
place = (171,351);
type = Stem;
},
{
horizontal = 1;
place = (798,79);
type = Stem;
}
);
shapes = (
{
closed = 1;
nodes = (
(153,0,l),
(209,159,l),
(484,159,l),
(539,0,l),
(675,0,l),
(419,700,l),
(275,700,l),
(19,0,l)
);
},
{
closed = 1;
nodes = (
(346,553,l),
(448,262,l),
(245,262,l)
);
},
{
closed = 1;
nodes = (
(465,752,o),
(510,791,o),
(522,876,c),
(454,876,l),
(450,845,o),
(434,831,o),
(411,831,cs),
(364,831,o),
(343,877,o),
(288,877,cs),
(227,877,o),
(184,838,o),
(171,753,c),
(239,753,l),
(244,783,o),
(258,798,o),
(282,798,cs),
(329,798,o),
(350,752,o),
(405,752,cs)
);
}
);
};
hints = (
{
horizontal = 1;
place = (158,96);
type = Stem;
},
{
horizontal = 1;
place = (748,75);
type = Stem;
},
{
place = (19,652);
type = Stem;
},
{
horizontal = 1;
place = (794,75);
type = Stem;
}
);
layerId = m01;
shapes = (
{
ref = A;
},
{
pos = (171,0);
ref = tildecomb.case;
}
);
width = 694;
},
{
background = {
anchors = (
{
name = bottom;
pos = (332,0);
},
{
name = ogonek;
pos = (634,0);
},
{
name = top;
pos = (332,859);
}
);
hints = (
{
horizontal = 1;
place = (180,68);
type = Stem;
},
{
place = (30,604);
type = Stem;
},
{
horizontal = 1;
place = (756,56);
type = Stem;
},
{
place = (181,49);
type = Stem;
},
{
place = (434,49);
type = Stem;
},
{
horizontal = 1;
place = (803,56);
type = Stem;
}
);
shapes = (
{
closed = 1;
nodes = (
(118,0,l),
(183,180,l),
(481,180,l),
(545,0,l),
(634,0,l),
(377,700,l),
(288,700,l),
(30,0,l)
);
},
{
closed = 1;
nodes = (
(332,594,l),
(456,248,l),
(208,248,l)
);
},
{
closed = 1;
nodes = (
(438,756,o),
(475,792,o),
(483,857,c),
(434,857,l),
(430,826,o),
(412,812,o),
(391,812,cs),
(345,812,o),
(330,859,o),
(276,859,cs),
(225,859,o),
(190,826,o),
(181,758,c),
(230,758,l),
(234,788,o),
(248,803,o),
(272,803,cs),
(319,803,o),
(332,756,o),
(387,756,cs)
);
}
);
};
hints = (
{
horizontal = 1;
place = (180,68);
type = Stem;
},
{
horizontal = 1;
place = (756,56);
type = Stem;
},
{
place = (191,49);
type = Stem;
},
{
place = (444,49);
type = Stem;
},
{
horizontal = 1;
place = (803,56);
type = Stem;
}
);
layerId = "E8FC3098-FD3B-4CCD-A487-BB9306939620";
shapes = (
{
ref = A;
},
{
pos = (181,0);
ref = tildecomb.case;
}
);
width = 664;
},
{
background = {
anchors = (
{
name = bottom;
pos = (346,0);
},
{
name = ogonek;
pos = (692,0);
},
{
name = top;
pos = (346,889);
}
);
hints = (
{
horizontal = 1;
place = (133,105);
type = Stem;
},
{
place = (2,674);
type = Stem;
},
{
horizontal = 1;
place = (749,94);
type = Stem;
},
{
place = (-15,552);
type = Stem;
},
{
horizontal = 1;
place = (795,94);
type = Stem;
}
);
shapes = (
{
closed = 1;
nodes = (
(166,0,l),
(216,145,l),
(476,145,l),
(525,0,l),
(692,0,l),
(437,700,l),
(256,700,l),
(2,0,l)
);
},
{
closed = 1;
nodes = (
(345,526,l),
(433,271,l),
(260,271,l)
);
},
{
closed = 1;
nodes = (
(473,749,o),
(523,790,o),
(538,889,c),
(457,889,l),
(453,858,o),
(438,844,o),
(414,844,cs),
(366,844,o),
(341,889,o),
(286,889,cs),
(218,889,o),
(170,846,o),
(154,750,c),
(235,750,l),
(240,780,o),
(254,795,o),
(278,795,cs),
(325,795,o),
(352,749,o),
(407,749,cs)
);
}
);
};
hints = (
{
horizontal = 1;
place = (133,105);
type = Stem;
},
{
horizontal = 1;
place = (733,78);
type = Stem;
},
{
place = (-274,1044);
type = Stem;
},
{
horizontal = 1;
place = (778,78);
type = Stem;
}
);
layerId = "E93BD6B3-FA9D-4EFB-B4A0-6094DEE674CC";
shapes = (
{
ref = A;
},
{
pos = (164,0);
ref = tildecomb.case;
}
);
width = 692;
}
);
note = Atilde;
unicode = 195;
},
{
glyphname = AE;
kernLeft = AE;
lastChange = "2023-05-03 07:58:21 +0000";
layers = (
{
anchors = (
{
name = bottom;
pos = (466,0);
},
{
name = top;
pos = (546,700);
}
);
background = {
anchors = (
{
name = bottom;
pos = (466,0);
},
{
name = top;
pos = (546,700);
}
);
shapes = (
{
closed = 1;
nodes = (
(158,0,l),
(232,136,l),
(482,136,l),
(482,0,l),
(881,0,l),
(881,109,l),
(610,109,l),
(610,315,l),
(837,315,l),
(837,424,l),
(610,424,l),
(610,591,l),
(881,591,l),
(881,700,l),
(398,700,l),
(19,0,l)
);
},
{
closed = 1;
nodes = (
(482,602,l),
(482,237,l),
(286,237,l)
);
}
);
};
hints = (
{
horizontal = 1;
place = (-4,97);
type = Stem;
},
{
horizontal = 1;
place = (134,95);
type = Stem;
},
{
horizontal = 1;
place = (302,95);
type = Stem;
},
{
horizontal = 1;
place = (595,97);
type = Stem;
},
{
place = (482,124);
type = Stem;
}
);
layerId = m01;
shapes = (
{
closed = 1;
nodes = (
(158,0,l),
(232,136,l),
(482,136,l),
(482,0,l),
(881,0,l),
(881,109,l),
(610,109,l),
(610,315,l),
(837,315,l),
(837,424,l),
(610,424,l),
(610,591,l),
(881,591,l),
(881,700,l),
(398,700,l),
(19,0,l)
);
},
{
closed = 1;
nodes = (
(482,602,l),
(482,237,l),
(286,237,l)
);
}
);
width = 931;
},
{
anchors = (
{
name = bottom;
pos = (456,0);
},
{
name = top;
pos = (526,700);
}
);
background = {
anchors = (
{
name = bottom;
pos = (456,0);
},
{
name = top;
pos = (526,700);
}
);
shapes = (
{
closed = 1;
nodes = (
(122,0,l),
(212,159,l),
(481,159,l),
(481,0,l),
(854,0,l),
(854,67,l),
(565,67,l),
(565,338,l),
(808,338,l),
(808,406,l),
(565,406,l),
(565,633,l),
(854,633,l),
(854,700,l),
(429,700,l),
(30,0,l)
);
},
{
closed = 1;
nodes = (
(481,631,l),
(481,226,l),
(250,226,l)
);
}
);
};
hints = (
{
horizontal = 1;
place = (0,67);
type = Stem;
},
{
horizontal = 1;
place = (159,67);
type = Stem;
},
{
horizontal = 1;
place = (320,66);
type = Stem;
},
{
horizontal = 1;
place = (633,67);
type = Stem;
},
{
place = (481,84);
type = Stem;
}
);
layerId = "E8FC3098-FD3B-4CCD-A487-BB9306939620";
shapes = (
{
closed = 1;
nodes = (
(122,0,l),
(212,159,l),
(481,159,l),
(481,0,l),
(854,0,l),
(854,67,l),
(565,67,l),
(565,338,l),
(808,338,l),
(808,406,l),
(565,406,l),
(565,633,l),
(854,633,l),
(854,700,l),
(429,700,l),
(30,0,l)
);
},
{
closed = 1;
nodes = (
(481,631,l),
(481,226,l),
(250,226,l)
);
}
);
width = 911;
},
{
anchors = (
{
name = bottom;
pos = (462,0);
},
{
name = top;
pos = (558,700);
}
);
background = {
anchors = (
{
name = bottom;
pos = (462,0);
},
{
name = top;
pos = (558,700);
}
);
shapes = (
{
closed = 1;
nodes = (
(172,0,l),
(235,121,l),
(473,121,l),
(473,0,l),
(889,0,l),
(889,136,l),
(630,136,l),
(630,301,l),
(842,301,l),
(842,437,l),
(630,437,l),
(630,564,l),
(889,564,l),
(889,700,l),
(367,700,l),
(2,0,l)
);
},
{
closed = 1;
nodes = (
(473,583,l),
(473,244,l),
(300,244,l)
);
}
);
};
hints = (
{
horizontal = 1;
place = (-17,107);
type = Stem;
},
{
horizontal = 1;
place = (107,104);
type = Stem;
},
{
horizontal = 1;
place = (280,104);
type = Stem;
},
{
horizontal = 1;
place = (560,107);
type = Stem;
},
{
place = (473,141);
type = Stem;
}
);
layerId = "E93BD6B3-FA9D-4EFB-B4A0-6094DEE674CC";
shapes = (
{
closed = 1;
nodes = (
(172,0,l),
(235,121,l),
(473,121,l),
(473,0,l),
(889,0,l),
(889,136,l),
(630,136,l),
(630,301,l),
(842,301,l),
(842,437,l),
(630,437,l),
(630,564,l),
(889,564,l),
(889,700,l),
(367,700,l),
(2,0,l)
);
},
{
closed = 1;
nodes = (
(473,583,l),
(473,244,l),
(300,244,l)
);
}
);
width = 924;
}
);
note = AE;
unicode = 198;
},
{
glyphname = AEacute;
kernLeft = AE;
lastChange = "2023-05-03 07:58:28 +0000";
layers = (
{
background = {
anchors = (
{
name = bottom;
pos = (466,0);
},
{
name = top;
pos = (546,952);
}
);
hints = (
{
horizontal = 1;
place = (-4,97);
type = Stem;
},
{
horizontal = 1;
place = (134,95);
type = Stem;
},
{
horizontal = 1;
place = (302,95);
type = Stem;
},
{
horizontal = 1;
place = (595,97);
type = Stem;
},
{
place = (482,124);
type = Stem;
},
{
horizontal = 1;
place = (740,212);
type = Stem;
},
{
place = (433,226);
type = Stem;
}
);
shapes = (
{
closed = 1;
nodes = (
(158,0,l),
(232,136,l),
(482,136,l),
(482,0,l),
(881,0,l),
(881,109,l),
(610,109,l),
(610,315,l),
(837,315,l),
(837,424,l),
(610,424,l),
(610,591,l),
(881,591,l),
(881,700,l),
(398,700,l),
(19,0,l)
);
},
{
closed = 1;
nodes = (
(482,602,l),
(482,237,l),
(286,237,l)
);
},
{
closed = 1;
nodes = (
(659,848,l),
(659,952,l),
(433,830,l),
(433,740,l)
);
}
);
};
hints = (
{
horizontal = 1;
place = (-4,97);
type = Stem;
},
{
horizontal = 1;
place = (134,95);
type = Stem;
},
{
horizontal = 1;
place = (302,95);
type = Stem;
},
{
horizontal = 1;
place = (595,97);
type = Stem;
},
{
place = (523,83);
type = Stem;
},
{
place = (523,222);
type = Stem;
},
{
place = (482,124);
type = Stem;
}
);
layerId = m01;
shapes = (
{
ref = AE;
},
{
pos = (433,0);
ref = acutecomb.case;
}
);
width = 931;
},
{
background = {
anchors = (
{
name = bottom;
pos = (456,0);
},
{
name = top;
pos = (526,931);
}
);
hints = (
{
horizontal = 1;
place = (0,67);
type = Stem;
},
{
horizontal = 1;
place = (159,67);
type = Stem;
},
{
horizontal = 1;
place = (320,66);
type = Stem;
},
{
horizontal = 1;
place = (633,67);
type = Stem;
},
{
place = (481,84);
type = Stem;
},
{
horizontal = 1;
place = (741,190);
type = Stem;
},
{
place = (421,210);
type = Stem;
}
);
shapes = (
{
closed = 1;
nodes = (
(122,0,l),
(212,159,l),
(481,159,l),
(481,0,l),
(854,0,l),
(854,67,l),
(565,67,l),
(565,338,l),
(808,338,l),
(808,406,l),
(565,406,l),
(565,633,l),
(854,633,l),
(854,700,l),
(429,700,l),
(30,0,l)
);
},
{
closed = 1;
nodes = (
(481,631,l),
(481,226,l),
(250,226,l)
);
},
{
closed = 1;
nodes = (
(631,858,l),
(631,931,l),
(421,804,l),
(421,741,l)
);
}
);
};
hints = (
{
horizontal = 1;
place = (0,67);
type = Stem;
},
{
horizontal = 1;
place = (159,67);
type = Stem;
},
{
horizontal = 1;
place = (320,66);
type = Stem;
},
{
horizontal = 1;
place = (633,67);
type = Stem;
},
{
place = (521,44);
type = Stem;
},
{
place = (521,210);
type = Stem;
},
{
place = (481,84);
type = Stem;
}
);
layerId = "E8FC3098-FD3B-4CCD-A487-BB9306939620";
shapes = (
{
ref = AE;
},
{
pos = (421,0);
ref = acutecomb.case;
}
);
width = 911;
},
{
background = {
anchors = (
{
name = bottom;
pos = (462,0);
},
{
name = top;
pos = (558,966);
}
);
hints = (
{
horizontal = 1;
place = (-17,107);
type = Stem;
},
{
horizontal = 1;
place = (107,104);
type = Stem;
},
{
horizontal = 1;
place = (280,104);
type = Stem;
},
{
horizontal = 1;
place = (560,107);
type = Stem;
},
{
place = (473,141);
type = Stem;
},
{
horizontal = 1;
place = (739,227);
type = Stem;
},
{
place = (439,237);
type = Stem;
}
);
shapes = (
{
closed = 1;
nodes = (
(172,0,l),
(235,121,l),
(473,121,l),
(473,0,l),
(889,0,l),
(889,136,l),
(630,136,l),
(630,301,l),
(842,301,l),
(842,437,l),
(630,437,l),
(630,564,l),
(889,564,l),
(889,700,l),
(367,700,l),
(2,0,l)
);
},
{
closed = 1;
nodes = (
(473,583,l),
(473,244,l),
(300,244,l)
);
},
{
closed = 1;
nodes = (
(676,841,l),
(676,966,l),
(439,847,l),
(439,739,l)
);
}
);
};
hints = (
{
horizontal = 1;
place = (-17,107);
type = Stem;
},
{
horizontal = 1;
place = (107,104);
type = Stem;
},
{
horizontal = 1;
place = (280,104);
type = Stem;
},
{
horizontal = 1;
place = (560,107);
type = Stem;
},
{
place = (514,99);
type = Stem;
},
{
place = (514,220);
type = Stem;
},
{
place = (473,141);
type = Stem;
}
);
layerId = "E93BD6B3-FA9D-4EFB-B4A0-6094DEE674CC";
shapes = (
{
ref = AE;
},
{
pos = (439,0);
ref = acutecomb.case;
}
);
width = 924;
}
);
note = AEacute;
unicode = 508;
},
{
glyphname = B;
lastChange = "2023-05-11 00:43:19 +0000";
layers = (
{
background = {
shapes = (
{
closed = 1;
nodes = (
(355,0,ls),
(502,0,o),
(585,86,o),
(585,197,cs),
(585,280,o),
(525,349,o),
(455,375,c),
(511,399,o),
(553,447,o),
(553,524,cs),
(553,629,o),
(474,700,o),
(329,700,cs),
(64,700,l),
(64,0,l)
);
},
{
closed = 1;
nodes = (
(192,311,l),
(341,311,ls),
(416,311,o),
(455,275,o),
(455,210,cs),
(455,144,o),
(419,109,o),
(343,109,cs),
(192,109,l)
);
},
{
closed = 1;
nodes = (
(192,591,l),
(316,591,ls),
(392,591,o),
(422,561,o),
(422,506,cs),
(422,448,o),
(390,420,o),
(318,420,cs),
(192,420,l)
);
}
);
};
hints = (
{
horizontal = 1;
place = (-4,100);
type = Stem;
},
{
horizontal = 1;
place = (306,92);
type = Stem;
},
{
horizontal = 1;
place = (593,99);
type = Stem;
},
{
place = (64,124);
type = Stem;
},
{
place = (455,126);
type = Stem;
},
{
place = (438,127);
type = Stem;
}
);
layerId = m01;
shapes = (
{
closed = 1;
nodes = (
(355,0,ls),
(502,0,o),
(585,86,o),
(585,197,cs),
(585,280,o),
(525,349,o),
(455,375,c),
(511,399,o),
(553,447,o),
(553,524,cs),
(553,629,o),
(474,700,o),
(329,700,cs),
(64,700,l),
(64,0,l)
);
},
{
closed = 1;
nodes = (
(192,311,l),
(341,311,ls),
(416,311,o),
(455,275,o),
(455,210,cs),
(455,144,o),
(419,109,o),
(343,109,cs),
(192,109,l)
);
},
{
closed = 1;
nodes = (
(192,591,l),
(316,591,ls),
(392,591,o),
(422,561,o),
(422,506,cs),
(422,448,o),
(390,420,o),
(318,420,cs),
(192,420,l)
);
}
);
width = 623;
},
{
background = {
shapes = (
{
closed = 1;
nodes = (
(338,0,ls),
(490,0,o),
(561,83,o),
(561,199,cs),
(561,284,o),
(513,348,o),
(421,377,c),
(481,395,o),
(529,451,o),
(529,529,cs),
(529,630,o),
(447,700,o),
(315,700,cs),
(74,700,l),
(74,0,l)
);
},
{
closed = 1;
nodes = (
(158,339,l),
(310,339,ls),
(406,339,o),
(476,298,o),
(476,204,cs),
(476,111,o),
(415,70,o),
(312,70,cs),
(158,70,l)
);
},
{
closed = 1;
nodes = (
(158,630,l),
(306,630,ls),
(397,630,o),
(444,588,o),
(444,518,cs),
(444,450,o),
(395,406,o),
(309,406,cs),
(158,406,l)
);
}
);
};
hints = (
{
horizontal = 1;
place = (0,70);
type = Stem;
},
{
horizontal = 1;
place = (327,67);
type = Stem;
},
{
horizontal = 1;
place = (630,70);
type = Stem;
},
{
place = (74,84);
type = Stem;
},
{
place = (453,86);
type = Stem;
},
{
place = (469,86);
type = Stem;
}
);
layerId = "E8FC3098-FD3B-4CCD-A487-BB9306939620";
shapes = (
{
closed = 1;
nodes = (
(338,0,ls),
(490,0,o),
(561,83,o),
(561,199,cs),
(561,284,o),
(513,348,o),
(421,377,c),
(481,395,o),
(529,451,o),
(529,529,cs),
(529,630,o),
(447,700,o),
(315,700,cs),
(74,700,l),
(74,0,l)
);
},
{
closed = 1;
nodes = (
(158,339,l),
(310,339,ls),
(406,339,o),
(476,298,o),
(476,204,cs),
(476,111,o),
(415,70,o),
(312,70,cs),
(158,70,l)
);
},
{
closed = 1;
nodes = (
(158,630,l),
(306,630,ls),
(397,630,o),
(444,588,o),
(444,518,cs),
(444,450,o),
(395,406,o),
(309,406,cs),
(158,406,l)
);
}
);
width = 602;
},
{
background = {
shapes = (
{
closed = 1;
nodes = (
(356,0,ls),
(500,0,o),
(591,88,o),
(591,196,cs),
(591,277,o),
(523,350,o),
(468,374,c),
(521,402,o),
(559,444,o),
(559,521,cs),
(559,628,o),
(482,700,o),
(328,700,cs),
(47,700,l),
(47,0,l)
);
},
{
closed = 1;
nodes = (
(205,292,l),
(352,292,ls),
(413,292,o),
(431,260,o),
(431,214,cs),
(431,166,o),
(412,135,o),
(354,135,cs),
(205,135,l)
);
},
{
closed = 1;
nodes = (
(205,565,l),
(313,565,ls),
(379,565,o),
(397,543,o),
(397,498,cs),
(397,447,o),
(377,429,o),
(314,429,cs),
(205,429,l)
);
}
);
};
hints = (
{
horizontal = 1;
place = (-17,110);
type = Stem;
},
{
horizontal = 1;
place = (282,99);
type = Stem;
},
{
horizontal = 1;
place = (558,108);
type = Stem;
},
{
place = (47,141);
type = Stem;
},
{
place = (436,143);
type = Stem;
},
{
place = (418,144);
type = Stem;
}
);
layerId = "E93BD6B3-FA9D-4EFB-B4A0-6094DEE674CC";
shapes = (
{
closed = 1;
nodes = (
(356,0,ls),
(500,0,o),
(591,88,o),
(591,196,cs),
(591,277,o),
(523,350,o),
(468,374,c),
(521,402,o),
(559,444,o),
(559,521,cs),
(559,628,o),
(482,700,o),
(328,700,cs),
(47,700,l),
(47,0,l)
);
},
{
closed = 1;
nodes = (
(205,292,l),
(352,292,ls),
(413,292,o),
(431,260,o),
(431,214,cs),
(431,166,o),
(412,135,o),
(354,135,cs),
(205,135,l)
);
},
{
closed = 1;
nodes = (
(205,565,l),
(313,565,ls),
(379,565,o),
(397,543,o),
(397,498,cs),
(397,447,o),
(377,429,o),
(314,429,cs),
(205,429,l)
);
}
);
width = 617;
}
);
note = B;
unicode = 66;
},
{
glyphname = C;
kernLeft = C;
kernRight = C;
lastChange = "2023-05-13 01:06:18 +0000";
layers = (
{
anchors = (
{
name = bottom;
pos = (381,0);
},
{
name = top;
pos = (379,700);
}
);
background = {
anchors = (
{
name = bottom;
pos = (381,0);
},
{
name = top;
pos = (379,700);
}
);
shapes = (
{
closed = 1;
nodes = (
(549,-12,o),
(661,74,o),
(688,218,c),
(547,218,l),
(530,146,o),
(472,103,o),
(379,103,cs),
(250,103,o),
(172,196,o),
(172,349,cs),
(172,502,o),
(250,596,o),
(379,596,cs),
(472,596,o),
(530,550,o),
(547,474,c),
(688,474,l),
(661,625,o),
(549,712,o),
(381,712,cs),
(161,712,o),
(41,556,o),
(41,349,cs),
(41,141,o),
(165,-12,o),
(381,-12,cs)
);
}
);
};
hints = (
{
horizontal = 1;
place = (-16,111);
type = Stem;
},
{
horizontal = 1;
place = (592,112);
type = Stem;
},
{
place = (41,127);
type = Stem;
}
);
layerId = m01;
shapes = (
{
closed = 1;
nodes = (
(549,-12,o),
(661,74,o),
(688,218,c),
(547,218,l),
(530,146,o),
(472,103,o),
(379,103,cs),
(250,103,o),
(172,196,o),
(172,349,cs),
(172,502,o),
(250,596,o),
(379,596,cs),
(472,596,o),
(530,550,o),
(547,474,c),
(688,474,l),
(661,625,o),
(549,712,o),
(381,712,cs),
(161,712,o),
(41,556,o),
(41,349,cs),
(41,141,o),
(165,-12,o),
(381,-12,cs)
);
}
);
width = 729;
},
{
anchors = (
{
name = bottom;
pos = (381,0);
},
{
name = top;
pos = (381,700);
}
);
background = {
anchors = (
{
name = bottom;
pos = (381,0);
},
{
name = top;
pos = (381,700);
}
);
shapes = (
{
closed = 1;
nodes = (
(541,-12,o),
(645,68,o),
(673,203,c),
(580,203,l),
(559,118,o),
(493,62,o),
(381,62,cs),
(219,62,o),
(133,184,o),
(133,350,cs),
(133,512,o),
(215,638,o),
(381,638,cs),
(493,638,o),
(559,581,o),
(580,494,c),
(673,494,l),
(645,631,o),
(541,712,o),
(381,712,cs),
(166,712,o),
(47,553,o),
(47,350,cs),
(47,144,o),
(168,-12,o),
(381,-12,cs)
);
}
);
};
hints = (
{
horizontal = 1;
place = (-12,74);
type = Stem;
},
{
horizontal = 1;
place = (638,74);
type = Stem;
},
{
place = (47,86);
type = Stem;
}
);
layerId = "E8FC3098-FD3B-4CCD-A487-BB9306939620";
shapes = (
{
closed = 1;
nodes = (
(541,-12,o),
(645,68,o),
(673,203,c),
(580,203,l),
(559,118,o),
(493,62,o),
(381,62,cs),
(219,62,o),
(133,184,o),
(133,350,cs),
(133,512,o),
(215,638,o),
(381,638,cs),
(493,638,o),
(559,581,o),
(580,494,c),
(673,494,l),
(645,631,o),
(541,712,o),
(381,712,cs),
(166,712,o),
(47,553,o),
(47,350,cs),
(47,144,o),
(168,-12,o),
(381,-12,cs)
);
}
);
width = 720;
},
{
anchors = (
{
name = bottom;
pos = (371,0);
},
{
name = top;
pos = (369,700);
}
);
background = {
anchors = (
{
name = bottom;
pos = (371,0);
},
{
name = top;
pos = (369,700);
}
);
shapes = (
{
closed = 1;
nodes = (
(544,-12,o),
(662,78,o),
(688,228,c),
(515,228,l),
(501,165,o),
(448,130,o),
(368,130,cs),
(261,130,o),
(188,204,o),
(188,348,cs),
(188,495,o),
(263,568,o),
(368,568,cs),
(448,568,o),
(501,529,o),
(515,461,c),
(688,461,l),
(662,621,o),
(544,712,o),
(371,712,cs),
(148,712,o),
(27,558,o),
(27,348,cs),
(27,139,o),
(153,-12,o),
(371,-12,cs)
);
}
);
};
hints = (
{
horizontal = 1;
place = (-29,126);
type = Stem;
},
{
horizontal = 1;
place = (551,127);
type = Stem;
},
{
place = (27,144);
type = Stem;
}
);
layerId = "E93BD6B3-FA9D-4EFB-B4A0-6094DEE674CC";
shapes = (
{
closed = 1;
nodes = (
(544,-12,o),
(662,78,o),
(688,228,c),
(515,228,l),
(501,165,o),
(448,130,o),
(368,130,cs),
(261,130,o),
(188,204,o),
(188,348,cs),
(188,495,o),
(263,568,o),
(368,568,cs),
(448,568,o),
(501,529,o),
(515,461,c),
(688,461,l),
(662,621,o),
(544,712,o),
(371,712,cs),
(148,712,o),
(27,558,o),
(27,348,cs),
(27,139,o),
(153,-12,o),
(371,-12,cs)
);
}
);
width = 715;
}
);
note = C;
unicode = 67;
},
{
glyphname = Cacute;
kernLeft = C;
kernRight = C;
lastChange = "2023-05-03 08:05:36 +0000";
layers = (
{
background = {
anchors = (
{
name = bottom;
pos = (381,0);
},
{
name = top;
pos = (379,952);
}
);
hints = (
{
horizontal = 1;
place = (-16,111);
type = Stem;
},
{
horizontal = 1;
place = (592,112);
type = Stem;
},
{
place = (41,127);
type = Stem;
},
{
horizontal = 1;
place = (740,212);
type = Stem;
},
{
place = (266,226);
type = Stem;
}
);
shapes = (
{
closed = 1;
nodes = (
(549,-12,o),
(661,74,o),
(688,218,c),
(547,218,l),
(530,146,o),
(472,103,o),
(379,103,cs),
(250,103,o),
(172,196,o),
(172,349,cs),
(172,502,o),
(250,596,o),
(379,596,cs),
(472,596,o),
(530,550,o),
(547,474,c),
(688,474,l),
(661,625,o),
(549,712,o),
(381,712,cs),
(161,712,o),
(41,556,o),
(41,349,cs),
(41,141,o),
(165,-12,o),
(381,-12,cs)
);
},
{
closed = 1;
nodes = (
(492,848,l),
(492,952,l),
(266,830,l),
(266,740,l)
);
}
);
};
hints = (
{
horizontal = 1;
place = (-16,111);
type = Stem;
},
{
horizontal = 1;
place = (592,112);
type = Stem;
},
{
place = (41,127);
type = Stem;
},
{
place = (332,222);
type = Stem;
}
);
layerId = m01;
shapes = (
{
ref = C;
},
{
pos = (266,0);
ref = acutecomb.case;
}
);
width = 729;
},
{
background = {
anchors = (
{
name = bottom;
pos = (381,0);
},
{
name = top;
pos = (381,931);
}
);
hints = (
{
horizontal = 1;
place = (-12,74);
type = Stem;
},
{
horizontal = 1;
place = (638,74);
type = Stem;
},
{
place = (47,86);
type = Stem;
},
{
horizontal = 1;
place = (741,190);
type = Stem;
},
{
place = (276,210);
type = Stem;
}
);
shapes = (
{
closed = 1;
nodes = (
(541,-12,o),
(645,68,o),
(673,203,c),
(580,203,l),
(559,118,o),
(493,62,o),
(381,62,cs),
(219,62,o),
(133,184,o),
(133,350,cs),
(133,512,o),
(215,638,o),
(381,638,cs),
(493,638,o),
(559,581,o),
(580,494,c),
(673,494,l),
(645,631,o),
(541,712,o),
(381,712,cs),
(166,712,o),
(47,553,o),
(47,350,cs),
(47,144,o),
(168,-12,o),
(381,-12,cs)
);
},
{
closed = 1;
nodes = (
(486,858,l),
(486,931,l),
(276,804,l),
(276,741,l)
);
}
);
};
hints = (
{
horizontal = 1;
place = (-12,74);
type = Stem;
},
{
horizontal = 1;
place = (638,74);
type = Stem;
},
{
place = (47,86);
type = Stem;
},
{
place = (337,210);
type = Stem;
}
);
layerId = "E8FC3098-FD3B-4CCD-A487-BB9306939620";
shapes = (
{
ref = C;
},
{
pos = (276,0);
ref = acutecomb.case;
}
);
width = 720;
},
{
background = {
anchors = (
{
name = bottom;
pos = (371,0);
},
{
name = top;
pos = (369,966);
}
);
hints = (
{
horizontal = 1;
place = (-29,126);
type = Stem;
},
{
horizontal = 1;
place = (551,127);
type = Stem;
},
{
place = (27,144);
type = Stem;
},
{
horizontal = 1;
place = (739,227);
type = Stem;
},
{
place = (250,237);
type = Stem;
}
);
shapes = (
{
closed = 1;
nodes = (
(544,-12,o),
(662,78,o),
(688,228,c),
(515,228,l),
(501,165,o),
(448,130,o),
(368,130,cs),
(261,130,o),
(188,204,o),
(188,348,cs),
(188,495,o),
(263,568,o),
(368,568,cs),
(448,568,o),
(501,529,o),
(515,461,c),
(688,461,l),
(662,621,o),
(544,712,o),
(371,712,cs),
(148,712,o),
(27,558,o),
(27,348,cs),
(27,139,o),
(153,-12,o),
(371,-12,cs)
);
},
{
closed = 1;
nodes = (
(487,841,l),
(487,966,l),
(250,847,l),
(250,739,l)
);
}
);
};
hints = (
{
horizontal = 1;
place = (-29,126);
type = Stem;
},
{
horizontal = 1;
place = (551,127);
type = Stem;
},
{
place = (27,144);
type = Stem;
},
{
place = (319,220);
type = Stem;
}
);
layerId = "E93BD6B3-FA9D-4EFB-B4A0-6094DEE674CC";
shapes = (
{
ref = C;
},
{
pos = (250,0);
ref = acutecomb.case;
}
);
width = 715;
}
);
note = Cacute;
unicode = 262;
},
{
glyphname = Ccaron;
kernLeft = C;
kernRight = C;
lastChange = "2023-05-03 07:58:28 +0000";
layers = (
{
background = {
anchors = (
{
name = bottom;
pos = (381,0);
},
{
name = top;
pos = (379,918);
}
);
hints = (
{
horizontal = 1;
place = (-16,111);
type = Stem;
},
{
horizontal = 1;
place = (592,112);
type = Stem;
},
{
place = (41,127);
type = Stem;
},
{
horizontal = 1;
place = (746,172);
type = Stem;
},
{
place = (233,292);
type = Stem;
}
);
shapes = (
{
closed = 1;
nodes = (
(549,-12,o),
(661,74,o),
(688,218,c),
(547,218,l),
(530,146,o),
(472,103,o),
(379,103,cs),
(250,103,o),
(172,196,o),
(172,349,cs),
(172,502,o),
(250,596,o),
(379,596,cs),
(472,596,o),
(530,550,o),
(547,474,c),
(688,474,l),
(661,625,o),
(549,712,o),
(381,712,cs),
(161,712,o),
(41,556,o),
(41,349,cs),
(41,141,o),
(165,-12,o),
(381,-12,cs)
);
},
{
closed = 1;
nodes = (
(525,826,l),
(525,918,l),
(379,833,l),
(233,918,l),
(233,826,l),
(379,746,l)
);
}
);
};
hints = (
{
horizontal = 1;
place = (-16,111);
type = Stem;
},
{
horizontal = 1;
place = (592,112);
type = Stem;
},
{
place = (41,127);
type = Stem;
},
{
place = (236,288);
type = Stem;
}
);
layerId = m01;
shapes = (
{
ref = C;
},
{
pos = (233,0);
ref = caroncomb.case;
}
);
width = 729;
},
{
background = {
anchors = (
{
name = bottom;
pos = (381,0);
},
{
name = top;
pos = (381,901);
}
);
hints = (
{
horizontal = 1;
place = (-12,74);
type = Stem;
},
{
horizontal = 1;
place = (638,74);
type = Stem;
},
{
place = (47,86);
type = Stem;
},
{
horizontal = 1;
place = (754,147);
type = Stem;
},
{
place = (244,274);
type = Stem;
}
);
shapes = (
{
closed = 1;
nodes = (
(541,-12,o),
(645,68,o),
(673,203,c),
(580,203,l),
(559,118,o),
(493,62,o),
(381,62,cs),
(219,62,o),
(133,184,o),
(133,350,cs),
(133,512,o),
(215,638,o),
(381,638,cs),
(493,638,o),
(559,581,o),
(580,494,c),
(673,494,l),
(645,631,o),
(541,712,o),
(381,712,cs),
(166,712,o),
(47,553,o),
(47,350,cs),
(47,144,o),
(168,-12,o),
(381,-12,cs)
);
},
{
closed = 1;
nodes = (
(518,836,l),
(518,901,l),
(381,817,l),
(244,901,l),
(244,836,l),
(381,754,l)
);
}
);
};
hints = (
{
horizontal = 1;
place = (-12,74);
type = Stem;
},
{
horizontal = 1;
place = (638,74);
type = Stem;
},
{
place = (47,86);
type = Stem;
},
{
place = (245,274);
type = Stem;
}
);
layerId = "E8FC3098-FD3B-4CCD-A487-BB9306939620";
shapes = (
{
ref = C;
},
{
pos = (244,0);
ref = caroncomb.case;
}
);
width = 720;
},
{
background = {
anchors = (
{
name = bottom;
pos = (371,0);
},
{
name = top;
pos = (369,929);
}
);
hints = (
{
horizontal = 1;
place = (-29,126);
type = Stem;
},
{
horizontal = 1;
place = (551,127);
type = Stem;
},
{
place = (27,144);
type = Stem;
},
{
horizontal = 1;
place = (741,189);
type = Stem;
},
{
place = (217,304);
type = Stem;
}
);
shapes = (
{
closed = 1;
nodes = (
(544,-12,o),
(662,78,o),
(688,228,c),
(515,228,l),
(501,165,o),
(448,130,o),
(368,130,cs),
(261,130,o),
(188,204,o),
(188,348,cs),
(188,495,o),
(263,568,o),
(368,568,cs),
(448,568,o),
(501,529,o),
(515,461,c),
(688,461,l),
(662,621,o),
(544,712,o),
(371,712,cs),
(148,712,o),
(27,558,o),
(27,348,cs),
(27,139,o),
(153,-12,o),
(371,-12,cs)
);
},
{
closed = 1;
nodes = (
(521,819,l),
(521,929,l),
(369,844,l),
(217,929,l),
(217,819,l),
(369,741,l)
);
}
);
};
hints = (
{
horizontal = 1;
place = (-29,126);
type = Stem;
},
{
horizontal = 1;
place = (551,127);
type = Stem;
},
{
place = (27,144);
type = Stem;
},
{
place = (220,287);
type = Stem;
}
);
layerId = "E93BD6B3-FA9D-4EFB-B4A0-6094DEE674CC";
shapes = (
{
ref = C;
},
{
pos = (217,0);
ref = caroncomb.case;
}
);
width = 715;
}
);
note = Ccaron;
unicode = 268;
},
{
glyphname = Ccedilla;
kernLeft = C;
kernRight = C;
lastChange = "2023-05-03 07:58:28 +0000";
layers = (
{
background = {
anchors = (
{
name = bottom;
pos = (381,-263);
},
{
name = top;
pos = (379,700);
}
);
hints = (
{
horizontal = 1;
place = (-16,111);
type = Stem;
},
{
horizontal = 1;
place = (592,112);
type = Stem;
},
{
place = (41,127);
type = Stem;
},
{
horizontal = 1;
place = (-263,74);
type = Stem;
},
{
horizontal = 1;
place = (-118,125);
type = Stem;
},
{
place = (340,80);
type = Stem;
},
{
place = (454,96);
type = Stem;
},
{
horizontal = 1;
place = (-118,68);
type = Stem;
}
);
shapes = (
{
closed = 1;
nodes = (
(549,-12,o),
(661,74,o),
(688,218,c),
(547,218,l),
(530,146,o),
(472,103,o),
(379,103,cs),
(250,103,o),
(172,196,o),
(172,349,cs),
(172,502,o),
(250,596,o),
(379,596,cs),
(472,596,o),
(530,550,o),
(547,474,c),
(688,474,l),
(661,625,o),
(549,712,o),
(381,712,cs),
(161,712,o),
(41,556,o),
(41,349,cs),
(41,141,o),
(165,-12,o),
(381,-12,cs)
);
},
{
closed = 1;
nodes = (
(420,-263,ls),
(489,-263,o),
(550,-227,o),
(550,-155,cs),
(550,-83,o),
(490,-48,o),
(420,-50,c),
(420,17,l),
(340,17,l),
(340,-118,l),
(401,-118,ls),
(436,-118,o),
(454,-130,o),
(454,-153,cs),
(454,-177,o),
(436,-189,o),
(401,-189,cs),
(289,-189,l),
(289,-263,l)
);
}
);
};
hints = (
{
horizontal = 1;
place = (-269,70);
type = Stem;
},
{
horizontal = 1;
place = (-124,64);
type = Stem;
},
{
horizontal = 1;
place = (-15,110);
type = Stem;
},
{
horizontal = 1;
place = (592,112);
type = Stem;
},
{
place = (41,127);
type = Stem;
},
{
place = (348,76);
type = Stem;
},
{
place = (462,92);
type = Stem;
}
);
layerId = m01;
shapes = (
{
ref = C;
},
{
pos = (289,0);
ref = cedillacomb.case;
}
);
width = 729;
},
{
background = {
anchors = (
{
name = bottom;
pos = (381,-259);
},
{
name = top;
pos = (381,700);
}
);
hints = (
{
horizontal = 1;
place = (-12,74);
type = Stem;
},
{
horizontal = 1;
place = (638,74);
type = Stem;
},
{
place = (47,86);
type = Stem;
},
{
horizontal = 1;
place = (-259,53);
type = Stem;
},
{
horizontal = 1;
place = (-113,50);
type = Stem;
},
{
place = (352,56);
type = Stem;
},
{
place = (469,68);
type = Stem;
}
);
shapes = (
{
closed = 1;
nodes = (
(541,-12,o),
(645,68,o),
(673,203,c),
(580,203,l),
(559,118,o),
(493,62,o),
(381,62,cs),
(219,62,o),
(133,184,o),
(133,350,cs),
(133,512,o),
(215,638,o),
(381,638,cs),
(493,638,o),
(559,581,o),
(580,494,c),
(673,494,l),
(645,631,o),
(541,712,o),
(381,712,cs),
(166,712,o),
(47,553,o),
(47,350,cs),
(47,144,o),
(168,-12,o),
(381,-12,cs)
);
},
{
closed = 1;
nodes = (
(416,-259,ls),
(487,-259,o),
(537,-222,o),
(537,-159,cs),
(537,-94,o),
(484,-62,o),
(408,-63,c),
(408,17,l),
(352,17,l),
(352,-113,l),
(401,-113,ls),
(446,-113,o),
(469,-128,o),
(469,-158,cs),
(469,-190,o),
(446,-206,o),
(401,-206,cs),
(309,-206,l),
(309,-259,l)
);
}
);
};
hints = (
{
horizontal = 1;
place = (-260,53);
type = Stem;
},
{
horizontal = 1;
place = (-114,50);
type = Stem;
},
{
horizontal = 1;
place = (-11,73);
type = Stem;
},
{
horizontal = 1;
place = (638,74);
type = Stem;
},
{
place = (47,86);
type = Stem;
},
{
place = (358,56);
type = Stem;
},
{
place = (475,68);
type = Stem;
}
);
layerId = "E8FC3098-FD3B-4CCD-A487-BB9306939620";
shapes = (
{
ref = C;
},
{
pos = (309,0);
ref = cedillacomb.case;
}
);
width = 720;
},
{
background = {
anchors = (
{
name = bottom;
pos = (371,-266);
},
{
name = top;
pos = (369,700);
}
);
hints = (
{
horizontal = 1;
place = (-29,126);
type = Stem;
},
{
horizontal = 1;
place = (551,127);
type = Stem;
},
{
place = (27,144);
type = Stem;
},
{
horizontal = 1;
place = (-545,78);
type = Stem;
},
{
horizontal = 1;
place = (-121,175);
type = Stem;
},
{
place = (351,133);
type = Stem;
},
{
place = (512,123);
type = Stem;
},
{
horizontal = 1;
place = (-24,78);
type = Stem;
}
);
shapes = (
{
closed = 1;
nodes = (
(544,-12,o),
(662,78,o),
(688,228,c),
(515,228,l),
(501,165,o),
(448,130,o),
(368,130,cs),
(261,130,o),
(188,204,o),
(188,348,cs),
(188,495,o),
(263,568,o),
(368,568,cs),
(448,568,o),
(501,529,o),
(515,461,c),
(688,461,l),
(662,621,o),
(544,712,o),
(371,712,cs),
(148,712,o),
(27,558,o),
(27,348,cs),
(27,139,o),
(153,-12,o),
(371,-12,cs)
);
},
{
closed = 1;
nodes = (
(413,-266,ls),
(481,-266,o),
(549,-230,o),
(549,-152,cs),
(549,-76,o),
(484,-39,o),
(418,-41,c),
(418,17,l),
(322,17,l),
(322,-121,l),
(391,-121,ls),
(420,-121,o),
(434,-131,o),
(434,-150,cs),
(434,-168,o),
(420,-178,o),
(391,-178,cs),
(266,-178,l),
(266,-266,l)
);
}
);
};
hints = (
{
horizontal = 1;
place = (-285,71);
type = Stem;
},
{
horizontal = 1;
place = (-141,63);
type = Stem;
},
{
horizontal = 1;
place = (-28,125);
type = Stem;
},
{
horizontal = 1;
place = (551,127);
type = Stem;
},
{
place = (27,144);
type = Stem;
},
{
place = (331,79);
type = Stem;
},
{
place = (443,98);
type = Stem;
}
);
layerId = "E93BD6B3-FA9D-4EFB-B4A0-6094DEE674CC";
shapes = (
{
ref = C;
},
{
pos = (266,0);
ref = cedillacomb.case;
}
);
width = 715;
}
);
note = Ccedilla;
unicode = 199;
},
{
glyphname = Cdotaccent;
kernLeft = C;
kernRight = C;
lastChange = "2023-05-03 07:58:28 +0000";
layers = (
{
background = {
anchors = (
{
name = bottom;
pos = (381,0);
},
{
name = top;
pos = (379,934);
}
);
hints = (
{
horizontal = 1;
place = (-16,111);
type = Stem;
},
{
horizontal = 1;
place = (592,112);
type = Stem;
},
{
place = (41,127);
type = Stem;
},
{
horizontal = 1;
place = (764,124);
type = Stem;
},
{
place = (296,124);
type = Stem;
}
);
shapes = (
{
closed = 1;
nodes = (
(549,-12,o),
(661,74,o),
(688,218,c),
(547,218,l),
(530,146,o),
(472,103,o),
(379,103,cs),
(250,103,o),
(172,196,o),
(172,349,cs),
(172,502,o),
(250,596,o),
(379,596,cs),
(472,596,o),
(530,550,o),
(547,474,c),
(688,474,l),
(661,625,o),
(549,712,o),
(381,712,cs),
(161,712,o),
(41,556,o),
(41,349,cs),
(41,141,o),
(165,-12,o),
(381,-12,cs)
);
},
{
closed = 1;
nodes = (
(426,768,o),
(462,804,o),
(462,851,cs),
(462,898,o),
(426,934,o),
(379,934,cs),
(332,934,o),
(296,898,o),
(296,851,cs),
(296,804,o),
(332,768,o),
(379,768,cs)
);
}
);
};
hints = (
{
horizontal = 1;
place = (-16,111);
type = Stem;
},
{
horizontal = 1;
place = (592,112);
type = Stem;
},
{
horizontal = 1;
place = (760,120);
type = Stem;
},
{
place = (41,127);
type = Stem;
},
{
place = (320,120);
type = Stem;
}
);
layerId = m01;
shapes = (
{
ref = C;
},
{
pos = (296,0);
ref = dotaccentcomb.case;
}
);
width = 729;
},
{
background = {
anchors = (
{
name = bottom;
pos = (381,0);
},
{
name = top;
pos = (381,889);
}
);
hints = (
{
horizontal = 1;
place = (-12,74);
type = Stem;
},
{
horizontal = 1;
place = (638,74);
type = Stem;
},
{
place = (47,86);
type = Stem;
},
{
horizontal = 1;
place = (766,100);
type = Stem;
},
{
place = (323,100);
type = Stem;
}
);
shapes = (
{
closed = 1;
nodes = (
(541,-12,o),
(645,68,o),
(673,203,c),
(580,203,l),
(559,118,o),
(493,62,o),
(381,62,cs),
(219,62,o),
(133,184,o),
(133,350,cs),
(133,512,o),
(215,638,o),
(381,638,cs),
(493,638,o),
(559,581,o),
(580,494,c),
(673,494,l),
(645,631,o),
(541,712,o),
(381,712,cs),
(166,712,o),
(47,553,o),
(47,350,cs),
(47,144,o),
(168,-12,o),
(381,-12,cs)
);
},
{
closed = 1;
nodes = (
(413,775,o),
(439,800,o),
(439,833,cs),
(439,865,o),
(413,889,o),
(381,889,cs),
(348,889,o),
(323,865,o),
(323,833,cs),
(323,800,o),
(348,775,o),
(381,775,cs)
);
}
);
};
hints = (
{
horizontal = 1;
place = (-12,74);
type = Stem;
},
{
horizontal = 1;
place = (638,74);
type = Stem;
},
{
horizontal = 1;
place = (766,100);
type = Stem;
},
{
place = (47,86);
type = Stem;
},
{
place = (332,100);
type = Stem;
}
);
layerId = "E8FC3098-FD3B-4CCD-A487-BB9306939620";
shapes = (
{
ref = C;
},
{
pos = (323,0);
ref = dotaccentcomb.case;
}
);
width = 720;
},
{
background = {
anchors = (
{
name = bottom;
pos = (371,0);
},
{
name = top;
pos = (371,949);
}
);
hints = (
{
horizontal = 1;
place = (-29,126);
type = Stem;
},
{
horizontal = 1;
place = (551,127);
type = Stem;
},
{
place = (27,144);
type = Stem;
},
{
horizontal = 1;
place = (763,140);
type = Stem;
},
{
place = (275,140);
type = Stem;
}
);
shapes = (
{
closed = 1;
nodes = (
(544,-12,o),
(662,78,o),
(688,228,c),
(515,228,l),
(501,165,o),
(448,130,o),
(368,130,cs),
(261,130,o),
(188,204,o),
(188,348,cs),
(188,495,o),
(263,568,o),
(368,568,cs),
(448,568,o),
(501,529,o),
(515,461,c),
(688,461,l),
(662,621,o),
(544,712,o),
(371,712,cs),
(148,712,o),
(27,558,o),
(27,348,cs),
(27,139,o),
(153,-12,o),
(371,-12,cs)
);
},
{
closed = 1;
nodes = (
(424,759,o),
(466,800,o),
(466,854,cs),
(466,908,o),
(424,949,o),
(369,949,cs),
(319,949,o),
(275,908,o),
(275,854,cs),
(275,800,o),
(319,759,o),
(369,759,cs)
);
}
);
};
hints = (
{
horizontal = 1;
place = (-29,126);
type = Stem;
},
{
horizontal = 1;
place = (551,127);
type = Stem;
},
{
horizontal = 1;
place = (746,123);
type = Stem;
},
{
place = (27,144);
type = Stem;
},
{
place = (302,123);
type = Stem;
}
);
layerId = "E93BD6B3-FA9D-4EFB-B4A0-6094DEE674CC";
shapes = (
{
ref = C;
},
{
pos = (275,0);
ref = dotaccentcomb.case;
}
);
width = 715;
}
);
note = Cdotaccent;
unicode = 266;
},
{
glyphname = D;
kernRight = D;
lastChange = "2023-05-03 07:58:21 +0000";
layers = (
{
anchors = (
{
name = bottom;
pos = (346,0);
},
{
name = center;
pos = (346,350);
},
{
name = top;
pos = (346,700);
}
);
background = {
anchors = (
{
name = bottom;
pos = (346,0);
},
{
name = center;
pos = (346,350);
},
{
name = top;
pos = (346,700);
}
);
shapes = (
{
closed = 1;
nodes = (
(303,0,ls),
(535,0,o),
(662,125,o),
(662,350,cs),
(662,558,o),
(553,700,o),
(303,700,cs),
(64,700,l),
(64,0,l)
);
},
{
closed = 1;
nodes = (
(192,591,l),
(297,591,ls),
(456,591,o),
(531,517,o),
(531,350,cs),
(531,202,o),
(475,110,o),
(297,110,cs),
(192,110,l)
);
}
);
};
hints = (
{
horizontal = 1;
place = (-4,106);
type = Stem;
},
{
horizontal = 1;
place = (587,105);
type = Stem;
},
{
place = (64,124);
type = Stem;
},
{
place = (531,127);
type = Stem;
}
);
layerId = m01;
shapes = (
{
closed = 1;
nodes = (
(303,0,ls),
(535,0,o),
(662,125,o),
(662,350,cs),
(662,558,o),
(553,700,o),
(303,700,cs),
(64,700,l),
(64,0,l)
);
},
{
closed = 1;
nodes = (
(192,591,l),
(297,591,ls),
(456,591,o),
(531,517,o),
(531,350,cs),
(531,202,o),
(475,110,o),
(297,110,cs),
(192,110,l)
);
}
);
width = 703;
},
{
anchors = (
{
name = bottom;
pos = (342,0);
},
{
name = center;
pos = (342,350);
},
{
name = top;
pos = (342,700);
}
);
background = {
anchors = (
{
name = bottom;
pos = (342,0);
},
{
name = center;
pos = (342,350);
},
{
name = top;
pos = (342,700);
}
);
shapes = (
{
closed = 1;
nodes = (
(289,0,ls),
(536,0,o),
(649,133,o),
(649,348,cs),
(649,567,o),
(536,700,o),
(289,700,cs),
(74,700,l),
(74,0,l)
);
},
{
closed = 1;
nodes = (
(158,630,l),
(287,630,ls),
(478,630,o),
(562,539,o),
(562,348,cs),
(562,171,o),
(487,70,o),
(287,70,cs),
(158,70,l)
);
}
);
};
hints = (
{
horizontal = 1;
place = (0,70);
type = Stem;
},
{
horizontal = 1;
place = (630,70);
type = Stem;
},
{
place = (74,84);
type = Stem;
},
{
place = (562,87);
type = Stem;
}
);
layerId = "E8FC3098-FD3B-4CCD-A487-BB9306939620";
shapes = (
{
closed = 1;
nodes = (
(289,0,ls),
(536,0,o),
(649,133,o),
(649,348,cs),
(649,567,o),
(536,700,o),
(289,700,cs),
(74,700,l),
(74,0,l)
);
},
{
closed = 1;
nodes = (
(158,630,l),
(287,630,ls),
(478,630,o),
(562,539,o),
(562,348,cs),
(562,171,o),
(487,70,o),
(287,70,cs),
(158,70,l)
);
}
);
width = 696;
},
{
anchors = (
{
name = bottom;
pos = (334,0);
},
{
name = center;
pos = (334,350);
},
{
name = top;
pos = (334,700);
}
);
background = {
anchors = (
{
name = bottom;
pos = (334,0);
},
{
name = center;
pos = (334,350);
},
{
name = top;
pos = (334,700);
}
);
shapes = (
{
closed = 1;
nodes = (
(302,0,ls),
(524,0,o),
(661,120,o),
(661,351,cs),
(661,552,o),
(554,700,o),
(302,700,cs),
(47,700,l),
(47,0,l)
);
},
{
closed = 1;
nodes = (
(205,565,l),
(294,565,ls),
(431,565,o),
(500,502,o),
(500,351,cs),
(500,223,o),
(457,137,o),
(294,137,cs),
(205,137,l)
);
}
);
};
hints = (
{
horizontal = 1;
place = (-17,120);
type = Stem;
},
{
horizontal = 1;
place = (548,118);
type = Stem;
},
{
place = (47,141);
type = Stem;
},
{
place = (500,144);
type = Stem;
}
);
layerId = "E93BD6B3-FA9D-4EFB-B4A0-6094DEE674CC";
shapes = (
{
closed = 1;
nodes = (
(302,0,ls),
(524,0,o),
(661,120,o),
(661,351,cs),
(661,552,o),
(554,700,o),
(302,700,cs),
(47,700,l),
(47,0,l)
);
},
{
closed = 1;
nodes = (
(205,565,l),
(294,565,ls),
(431,565,o),
(500,502,o),
(500,351,cs),
(500,223,o),
(457,137,o),
(294,137,cs),
(205,137,l)
);
}
);
width = 688;
}
);
note = D;
unicode = 68;
},
{
glyphname = Eth;
kernRight = D;
lastChange = "2023-05-03 07:58:21 +0000";
layers = (
{
background = {
shapes = (
{
closed = 1;
nodes = (
(316,0,ls),
(548,0,o),
(675,125,o),
(675,350,cs),
(675,558,o),
(566,700,o),
(316,700,cs),
(77,700,l),
(77,405,l),
(2,405,l),
(2,295,l),
(77,295,l),
(77,0,l)
);
},
{
closed = 1;
nodes = (
(205,295,l),
(382,295,l),
(382,405,l),
(205,405,l),
(205,591,l),
(310,591,ls),
(469,591,o),
(544,517,o),
(544,350,cs),
(544,202,o),
(488,110,o),
(310,110,cs),
(205,110,l)
);
}
);
};
hints = (
{
horizontal = 1;
place = (-4,106);
type = Stem;
},
{
horizontal = 1;
place = (291,106);
type = Stem;
},
{
horizontal = 1;
place = (587,105);
type = Stem;
},
{
place = (77,124);
type = Stem;
},
{
place = (544,127);
type = Stem;
}
);
layerId = m01;
shapes = (
{
closed = 1;
nodes = (
(316,0,ls),
(548,0,o),
(675,125,o),
(675,350,cs),
(675,558,o),
(566,700,o),
(316,700,cs),
(77,700,l),
(77,405,l),
(2,405,l),
(2,295,l),
(77,295,l),
(77,0,l)
);
},
{
closed = 1;
nodes = (
(205,295,l),
(382,295,l),
(382,405,l),
(205,405,l),
(205,591,l),
(310,591,ls),
(469,591,o),
(544,517,o),
(544,350,cs),
(544,202,o),
(488,110,o),
(310,110,cs),
(205,110,l)
);
}
);
width = 716;
},
{
background = {
shapes = (
{
closed = 1;
nodes = (
(310,0,ls),
(557,0,o),
(670,133,o),
(670,348,cs),
(670,567,o),
(557,700,o),
(310,700,cs),
(95,700,l),
(95,387,l),
(8,387,l),
(8,311,l),
(95,311,l),
(95,0,l)
);
},
{
closed = 1;
nodes = (
(179,311,l),
(381,311,l),
(381,387,l),
(179,387,l),
(179,630,l),
(309,630,ls),
(499,630,o),
(584,538,o),
(584,348,cs),
(584,184,o),
(520,70,o),
(309,70,cs),
(179,70,l)
);
}
);
};
hints = (
{
horizontal = 1;
place = (0,70);
type = Stem;
},
{
horizontal = 1;
place = (311,76);
type = Stem;
},
{
horizontal = 1;
place = (630,70);
type = Stem;
},
{
place = (95,84);
type = Stem;
},
{
place = (584,86);
type = Stem;
}
);
layerId = "E8FC3098-FD3B-4CCD-A487-BB9306939620";
shapes = (
{
closed = 1;
nodes = (
(310,0,ls),
(557,0,o),
(670,133,o),
(670,348,cs),
(670,567,o),
(557,700,o),
(310,700,cs),
(95,700,l),
(95,387,l),
(8,387,l),
(8,311,l),
(95,311,l),
(95,0,l)
);
},
{
closed = 1;
nodes = (
(179,311,l),
(381,311,l),
(381,387,l),
(179,387,l),
(179,630,l),
(309,630,ls),
(499,630,o),
(584,538,o),
(584,348,cs),
(584,184,o),
(520,70,o),
(309,70,cs),
(179,70,l)
);
}
);
width = 717;
},
{
background = {
shapes = (
{
closed = 1;
nodes = (
(310,0,ls),
(532,0,o),
(668,120,o),
(668,351,cs),
(668,552,o),
(562,700,o),
(310,700,cs),
(55,700,l),
(55,417,l),
(-12,417,l),
(-12,284,l),
(55,284,l),
(55,0,l)
);
},
{
closed = 1;
nodes = (
(212,284,l),
(373,284,l),
(373,417,l),
(212,417,l),
(212,565,l),
(301,565,ls),
(439,565,o),
(507,503,o),
(507,351,cs),
(507,214,o),
(457,137,o),
(301,137,cs),
(212,137,l)
);
}
);
};
hints = (
{
horizontal = 1;
place = (-17,120);
type = Stem;
},
{
horizontal = 1;
place = (268,116);
type = Stem;
},
{
horizontal = 1;
place = (548,118);
type = Stem;
},
{
place = (55,141);
type = Stem;
},
{
place = (507,144);
type = Stem;
}
);
layerId = "E93BD6B3-FA9D-4EFB-B4A0-6094DEE674CC";
shapes = (
{
closed = 1;
nodes = (
(310,0,ls),
(532,0,o),
(668,120,o),
(668,351,cs),
(668,552,o),
(562,700,o),
(310,700,cs),
(55,700,l),
(55,417,l),
(-12,417,l),
(-12,284,l),
(55,284,l),
(55,0,l)
);
},
{
closed = 1;
nodes = (
(212,284,l),
(373,284,l),
(373,417,l),
(212,417,l),
(212,565,l),
(301,565,ls),
(439,565,o),
(507,503,o),
(507,351,cs),
(507,214,o),
(457,137,o),
(301,137,cs),
(212,137,l)
);
}
);
width = 695;
}
);
note = Eth;
unicode = 208;
},
{
glyphname = Dcaron;
kernRight = D;
lastChange = "2023-05-03 07:58:28 +0000";
layers = (
{
background = {
anchors = (
{
name = bottom;
pos = (346,0);
},
{
name = center;
pos = (346,350);
},
{
name = top;
pos = (346,918);
}
);
hints = (
{
horizontal = 1;
place = (-4,106);
type = Stem;
},
{
horizontal = 1;
place = (587,105);
type = Stem;
},
{
place = (64,124);
type = Stem;
},
{
place = (531,127);
type = Stem;
},
{
horizontal = 1;
place = (746,172);
type = Stem;
},
{
place = (200,292);
type = Stem;
}
);
shapes = (
{
closed = 1;
nodes = (
(303,0,ls),
(535,0,o),
(662,125,o),
(662,350,cs),
(662,558,o),
(553,700,o),
(303,700,cs),
(64,700,l),
(64,0,l)
);
},
{
closed = 1;
nodes = (
(192,591,l),
(297,591,ls),
(456,591,o),
(531,517,o),
(531,350,cs),
(531,202,o),
(475,110,o),
(297,110,cs),
(192,110,l)
);
},
{
closed = 1;
nodes = (
(492,826,l),
(492,918,l),
(346,833,l),
(200,918,l),
(200,826,l),
(346,746,l)
);
}
);
};
hints = (
{
horizontal = 1;
place = (-4,106);
type = Stem;
},
{
horizontal = 1;
place = (587,105);
type = Stem;
},
{
place = (64,124);
type = Stem;
},
{
place = (531,127);
type = Stem;
},
{
place = (141,288);
type = Stem;
}
);
layerId = m01;
shapes = (
{
ref = D;
},
{
pos = (200,0);
ref = caroncomb.case;
}
);
width = 703;
},
{
background = {
anchors = (
{
name = bottom;
pos = (342,0);
},
{
name = center;
pos = (342,350);
},
{
name = top;
pos = (342,901);
}
);
hints = (
{
horizontal = 1;
place = (0,70);
type = Stem;
},
{
horizontal = 1;
place = (630,70);
type = Stem;
},
{
place = (74,84);
type = Stem;
},
{
place = (562,87);
type = Stem;
},
{
horizontal = 1;
place = (754,147);
type = Stem;
},
{
place = (205,274);
type = Stem;
}
);
shapes = (
{
closed = 1;
nodes = (
(289,0,ls),
(536,0,o),
(649,133,o),
(649,348,cs),
(649,567,o),
(536,700,o),
(289,700,cs),
(74,700,l),
(74,0,l)
);
},
{
closed = 1;
nodes = (
(158,630,l),
(287,630,ls),
(478,630,o),
(562,539,o),
(562,348,cs),
(562,171,o),
(487,70,o),
(287,70,cs),
(158,70,l)
);
},
{
closed = 1;
nodes = (
(479,836,l),
(479,901,l),
(342,817,l),
(205,901,l),
(205,836,l),
(342,754,l)
);
}
);
};
hints = (
{
horizontal = 1;
place = (0,70);
type = Stem;
},
{
horizontal = 1;
place = (630,70);
type = Stem;
},
{
place = (74,84);
type = Stem;
},
{
place = (562,87);
type = Stem;
},
{
place = (149,274);
type = Stem;
}
);
layerId = "E8FC3098-FD3B-4CCD-A487-BB9306939620";
shapes = (
{
ref = D;
},
{
pos = (205,0);
ref = caroncomb.case;
}
);
width = 696;
},
{
background = {
anchors = (
{
name = bottom;
pos = (334,0);
},
{
name = center;
pos = (334,350);
},
{
name = top;
pos = (334,929);
}
);
hints = (
{
horizontal = 1;
place = (-17,120);
type = Stem;
},
{
horizontal = 1;
place = (548,118);
type = Stem;
},
{
place = (47,141);
type = Stem;
},
{
place = (500,144);
type = Stem;
},
{
horizontal = 1;
place = (741,189);
type = Stem;
},
{
place = (182,304);
type = Stem;
}
);
shapes = (
{
closed = 1;
nodes = (
(302,0,ls),
(524,0,o),
(661,120,o),
(661,351,cs),
(661,552,o),
(554,700,o),
(302,700,cs),
(47,700,l),
(47,0,l)
);
},
{
closed = 1;
nodes = (
(205,565,l),
(294,565,ls),
(431,565,o),
(500,502,o),
(500,351,cs),
(500,223,o),
(457,137,o),
(294,137,cs),
(205,137,l)
);
},
{
closed = 1;
nodes = (
(486,819,l),
(486,929,l),
(334,844,l),
(182,929,l),
(182,819,l),
(334,741,l)
);
}
);
};
hints = (
{
horizontal = 1;
place = (-17,120);
type = Stem;
},
{
horizontal = 1;
place = (548,118);
type = Stem;
},
{
place = (47,141);
type = Stem;
},
{
place = (500,144);
type = Stem;
},
{
place = (126,287);
type = Stem;
}
);
layerId = "E93BD6B3-FA9D-4EFB-B4A0-6094DEE674CC";
shapes = (
{
ref = D;
},
{
pos = (182,0);
ref = caroncomb.case;
}
);
width = 688;
}
);
note = Dcaron;
unicode = 270;
},
{
glyphname = Dcroat;
kernRight = D;
lastChange = "2023-05-03 07:58:21 +0000";
layers = (
{
background = {
shapes = (
{
closed = 1;
nodes = (
(316,0,ls),
(548,0,o),
(675,125,o),
(675,350,cs),
(675,558,o),
(566,700,o),
(316,700,cs),
(77,700,l),
(77,405,l),
(2,405,l),
(2,295,l),
(77,295,l),
(77,0,l)
);
},
{
closed = 1;
nodes = (
(205,295,l),
(382,295,l),
(382,405,l),
(205,405,l),
(205,591,l),
(310,591,ls),
(469,591,o),
(544,517,o),
(544,350,cs),
(544,202,o),
(488,110,o),
(310,110,cs),
(205,110,l)
);
}
);
};
hints = (
{
horizontal = 1;
place = (-4,106);
type = Stem;
},
{
horizontal = 1;
place = (291,106);
type = Stem;
},
{
horizontal = 1;
place = (587,105);
type = Stem;
},
{
place = (77,124);
type = Stem;
},
{
place = (544,127);
type = Stem;
}
);
layerId = m01;
shapes = (
{
closed = 1;
nodes = (
(316,0,ls),
(548,0,o),
(675,125,o),
(675,350,cs),
(675,558,o),
(566,700,o),
(316,700,cs),
(77,700,l),
(77,405,l),
(2,405,l),
(2,295,l),
(77,295,l),
(77,0,l)
);
},
{
closed = 1;
nodes = (
(205,295,l),
(382,295,l),
(382,405,l),
(205,405,l),
(205,591,l),
(310,591,ls),
(469,591,o),
(544,517,o),
(544,350,cs),
(544,202,o),
(488,110,o),
(310,110,cs),
(205,110,l)
);
}
);
width = 716;
},
{
background = {
shapes = (
{
closed = 1;
nodes = (
(310,0,ls),
(557,0,o),
(670,133,o),
(670,348,cs),
(670,567,o),
(557,700,o),
(310,700,cs),
(95,700,l),
(95,387,l),
(8,387,l),
(8,311,l),
(95,311,l),
(95,0,l)
);
},
{
closed = 1;
nodes = (
(179,311,l),
(381,311,l),
(381,387,l),
(179,387,l),
(179,630,l),
(309,630,ls),
(499,630,o),
(584,538,o),
(584,348,cs),
(584,184,o),
(520,70,o),
(309,70,cs),
(179,70,l)
);
}
);
};
hints = (
{
horizontal = 1;
place = (0,70);
type = Stem;
},
{
horizontal = 1;
place = (311,76);
type = Stem;
},
{
horizontal = 1;
place = (630,70);
type = Stem;
},
{
place = (95,84);
type = Stem;
},
{
place = (584,86);
type = Stem;
}
);
layerId = "E8FC3098-FD3B-4CCD-A487-BB9306939620";
shapes = (
{
closed = 1;
nodes = (
(310,0,ls),
(557,0,o),
(670,133,o),
(670,348,cs),
(670,567,o),
(557,700,o),
(310,700,cs),
(95,700,l),
(95,387,l),
(8,387,l),
(8,311,l),
(95,311,l),
(95,0,l)
);
},
{
closed = 1;
nodes = (
(179,311,l),
(381,311,l),
(381,387,l),
(179,387,l),
(179,630,l),
(309,630,ls),
(499,630,o),
(584,538,o),
(584,348,cs),
(584,184,o),
(520,70,o),
(309,70,cs),
(179,70,l)
);
}
);
width = 717;
},
{
background = {
shapes = (
{
closed = 1;
nodes = (
(310,0,ls),
(532,0,o),
(668,120,o),
(668,351,cs),
(668,552,o),
(562,700,o),
(310,700,cs),
(55,700,l),
(55,417,l),
(-12,417,l),
(-12,284,l),
(55,284,l),
(55,0,l)
);
},
{
closed = 1;
nodes = (
(212,284,l),
(373,284,l),
(373,417,l),
(212,417,l),
(212,565,l),
(301,565,ls),
(439,565,o),
(507,503,o),
(507,351,cs),
(507,214,o),
(457,137,o),
(301,137,cs),
(212,137,l)
);
}
);
};
hints = (
{
horizontal = 1;
place = (-17,120);
type = Stem;
},
{
horizontal = 1;
place = (268,116);
type = Stem;
},
{
horizontal = 1;
place = (548,118);
type = Stem;
},
{
place = (55,141);
type = Stem;
},
{
place = (507,144);
type = Stem;
}
);
layerId = "E93BD6B3-FA9D-4EFB-B4A0-6094DEE674CC";
shapes = (
{
closed = 1;
nodes = (
(310,0,ls),
(532,0,o),
(668,120,o),
(668,351,cs),
(668,552,o),
(562,700,o),
(310,700,cs),
(55,700,l),
(55,417,l),
(-12,417,l),
(-12,284,l),
(55,284,l),
(55,0,l)
);
},
{
closed = 1;
nodes = (
(212,284,l),
(373,284,l),
(373,417,l),
(212,417,l),
(212,565,l),
(301,565,ls),
(439,565,o),
(507,503,o),
(507,351,cs),
(507,214,o),
(457,137,o),
(301,137,cs),
(212,137,l)
);
}
);
width = 695;
}
);
note = Dcroat;
unicode = 272;
},
{
glyphname = E;
lastChange = "2023-05-03 07:58:21 +0000";
layers = (
{
anchors = (
{
name = bottom;
pos = (281,0);
},
{
name = ogonek;
pos = (513,0);
},
{
name = top;
pos = (281,700);
},
{
name = topleft;
pos = (20,700);
}
);
background = {
anchors = (
{
name = bottom;
pos = (281,0);
},
{
name = ogonek;
pos = (513,0);
},
{
name = top;
pos = (281,700);
},
{
name = topleft;
pos = (20,700);
}
);
shapes = (
{
closed = 1;
nodes = (
(513,0,l),
(513,109,l),
(192,109,l),
(192,315,l),
(467,315,l),
(467,424,l),
(192,424,l),
(192,591,l),
(513,591,l),
(513,700,l),
(64,700,l),
(64,0,l)
);
}
);
};
hints = (
{
horizontal = 1;
place = (-4,99);
type = Stem;
},
{
horizontal = 1;
place = (301,96);
type = Stem;
},
{
horizontal = 1;
place = (593,99);
type = Stem;
},
{
place = (64,124);
type = Stem;
}
);
layerId = m01;
shapes = (
{
closed = 1;
nodes = (
(513,0,l),
(513,109,l),
(192,109,l),
(192,315,l),
(467,315,l),
(467,424,l),
(192,424,l),
(192,591,l),
(513,591,l),
(513,700,l),
(64,700,l),
(64,0,l)
);
}
);
width = 562;
},
{
anchors = (
{
name = bottom;
pos = (282,0);
},
{
name = ogonek;
pos = (507,0);
},
{
name = top;
pos = (282,700);
},
{
name = topleft;
pos = (20,700);
}
);
background = {
anchors = (
{
name = bottom;
pos = (282,0);
},
{
name = ogonek;
pos = (507,0);
},
{
name = top;
pos = (282,700);
},
{
name = topleft;
pos = (20,700);
}
);
shapes = (
{
closed = 1;
nodes = (
(507,0,l),
(507,69,l),
(158,69,l),
(158,336,l),
(463,336,l),
(463,404,l),
(158,404,l),
(158,631,l),
(507,631,l),
(507,700,l),
(74,700,l),
(74,0,l)
);
}
);
};
hints = (
{
horizontal = 1;
place = (0,69);
type = Stem;
},
{
horizontal = 1;
place = (319,68);
type = Stem;
},
{
horizontal = 1;
place = (631,69);
type = Stem;
},
{
place = (74,84);
type = Stem;
}
);
layerId = "E8FC3098-FD3B-4CCD-A487-BB9306939620";
shapes = (
{
closed = 1;
nodes = (
(507,0,l),
(507,69,l),
(158,69,l),
(158,336,l),
(463,336,l),
(463,404,l),
(158,404,l),
(158,631,l),
(507,631,l),
(507,700,l),
(74,700,l),
(74,0,l)
);
}
);
width = 564;
},
{
anchors = (
{
name = bottom;
pos = (271,0);
},
{
name = ogonek;
pos = (507,0);
},
{
name = top;
pos = (271,700);
},
{
name = topleft;
pos = (20,700);
}
);
background = {
anchors = (
{
name = bottom;
pos = (271,0);
},
{
name = ogonek;
pos = (507,0);
},
{
name = top;
pos = (271,700);
},
{
name = topleft;
pos = (20,700);
}
);
shapes = (
{
closed = 1;
nodes = (
(507,0,l),
(507,136,l),
(205,136,l),
(205,301,l),
(460,301,l),
(460,437,l),
(205,437,l),
(205,564,l),
(507,564,l),
(507,700,l),
(47,700,l),
(47,0,l)
);
}
);
};
hints = (
{
horizontal = 1;
place = (-17,109);
type = Stem;
},
{
horizontal = 1;
place = (279,105);
type = Stem;
},
{
horizontal = 1;
place = (558,109);
type = Stem;
},
{
place = (47,141);
type = Stem;
}
);
layerId = "E93BD6B3-FA9D-4EFB-B4A0-6094DEE674CC";
shapes = (
{
closed = 1;
nodes = (
(507,0,l),
(507,136,l),
(205,136,l),
(205,301,l),
(460,301,l),
(460,437,l),
(205,437,l),
(205,564,l),
(507,564,l),
(507,700,l),
(47,700,l),
(47,0,l)
);
}
);
width = 541;
}
);
note = E;
unicode = 69;
},
{
glyphname = Eacute;
lastChange = "2023-05-03 07:58:28 +0000";
layers = (
{
background = {
anchors = (
{
name = bottom;
pos = (281,0);
},
{
name = ogonek;
pos = (513,0);
},
{
name = top;
pos = (281,952);
},
{
name = topleft;
pos = (20,700);
}
);
hints = (
{
horizontal = 1;
place = (-4,99);
type = Stem;
},
{
horizontal = 1;
place = (301,96);
type = Stem;
},
{
horizontal = 1;
place = (593,99);
type = Stem;
},
{
place = (64,124);
type = Stem;
},
{
horizontal = 1;
place = (740,212);
type = Stem;
},
{
place = (168,226);
type = Stem;
}
);
shapes = (
{
closed = 1;
nodes = (
(513,0,l),
(513,109,l),
(192,109,l),
(192,315,l),
(467,315,l),
(467,424,l),
(192,424,l),
(192,591,l),
(513,591,l),
(513,700,l),
(64,700,l),
(64,0,l)
);
},
{
closed = 1;
nodes = (
(394,848,l),
(394,952,l),
(168,830,l),
(168,740,l)
);
}
);
};
hints = (
{
horizontal = 1;
place = (-4,99);
type = Stem;
},
{
horizontal = 1;
place = (301,96);
type = Stem;
},
{
horizontal = 1;
place = (593,99);
type = Stem;
},
{
place = (64,124);
type = Stem;
},
{
place = (245,222);
type = Stem;
}
);
layerId = m01;
shapes = (
{
ref = E;
},
{
pos = (168,0);
ref = acutecomb.case;
}
);
width = 562;
},
{
background = {
anchors = (
{
name = bottom;
pos = (282,0);
},
{
name = ogonek;
pos = (507,0);
},
{
name = top;
pos = (282,931);
},
{
name = topleft;
pos = (20,700);
}
);
hints = (
{
horizontal = 1;
place = (0,69);
type = Stem;
},
{
horizontal = 1;
place = (319,68);
type = Stem;
},
{
horizontal = 1;
place = (631,69);
type = Stem;
},
{
place = (74,84);
type = Stem;
},
{
horizontal = 1;
place = (741,190);
type = Stem;
},
{
place = (177,210);
type = Stem;
}
);
shapes = (
{
closed = 1;
nodes = (
(507,0,l),
(507,69,l),
(158,69,l),
(158,336,l),
(463,336,l),
(463,404,l),
(158,404,l),
(158,631,l),
(507,631,l),
(507,700,l),
(74,700,l),
(74,0,l)
);
},
{
closed = 1;
nodes = (
(387,858,l),
(387,931,l),
(177,804,l),
(177,741,l)
);
}
);
};
hints = (
{
horizontal = 1;
place = (0,69);
type = Stem;
},
{
horizontal = 1;
place = (319,68);
type = Stem;
},
{
horizontal = 1;
place = (631,69);
type = Stem;
},
{
place = (74,84);
type = Stem;
},
{
place = (251,210);
type = Stem;
}
);
layerId = "E8FC3098-FD3B-4CCD-A487-BB9306939620";
shapes = (
{
ref = E;
},
{
pos = (177,0);
ref = acutecomb.case;
}
);
width = 564;
},
{
background = {
anchors = (
{
name = bottom;
pos = (271,0);
},
{
name = ogonek;
pos = (507,0);
},
{
name = top;
pos = (271,966);
},
{
name = topleft;
pos = (20,700);
}
);
hints = (
{
horizontal = 1;
place = (-17,109);
type = Stem;
},
{
horizontal = 1;
place = (279,105);
type = Stem;
},
{
horizontal = 1;
place = (558,109);
type = Stem;
},
{
place = (47,141);
type = Stem;
},
{
horizontal = 1;
place = (739,227);
type = Stem;
},
{
place = (152,237);
type = Stem;
}
);
shapes = (
{
closed = 1;
nodes = (
(507,0,l),
(507,136,l),
(205,136,l),
(205,301,l),
(460,301,l),
(460,437,l),
(205,437,l),
(205,564,l),
(507,564,l),
(507,700,l),
(47,700,l),
(47,0,l)
);
},
{
closed = 1;
nodes = (
(389,841,l),
(389,966,l),
(152,847,l),
(152,739,l)
);
}
);
};
hints = (
{
horizontal = 1;
place = (-17,109);
type = Stem;
},
{
horizontal = 1;
place = (279,105);
type = Stem;
},
{
horizontal = 1;
place = (558,109);
type = Stem;
},
{
place = (47,141);
type = Stem;
},
{
place = (231,220);
type = Stem;
}
);
layerId = "E93BD6B3-FA9D-4EFB-B4A0-6094DEE674CC";
shapes = (
{
ref = E;
},
{
pos = (152,0);
ref = acutecomb.case;
}
);
width = 541;
}
);
note = Eacute;
unicode = 201;
},
{
glyphname = Ebreve;
lastChange = "2023-05-03 07:58:28 +0000";
layers = (
{
background = {
anchors = (
{
name = bottom;
pos = (281,0);
},
{
name = ogonek;
pos = (513,0);
},
{
name = top;
pos = (281,917);
},
{
name = topleft;
pos = (20,700);
}
);
hints = (
{
horizontal = 1;
place = (-4,99);
type = Stem;
},
{
horizontal = 1;
place = (301,96);
type = Stem;
},
{
horizontal = 1;
place = (593,99);
type = Stem;
},
{
place = (64,124);
type = Stem;
},
{
horizontal = 1;
place = (749,96);
type = Stem;
},
{
place = (125,68);
type = Stem;
},
{
place = (368,68);
type = Stem;
}
);
shapes = (
{
closed = 1;
nodes = (
(513,0,l),
(513,109,l),
(192,109,l),
(192,315,l),
(467,315,l),
(467,424,l),
(192,424,l),
(192,591,l),
(513,591,l),
(513,700,l),
(64,700,l),
(64,0,l)
);
},
{
closed = 1;
nodes = (
(376,749,o),
(436,808,o),
(436,900,cs),
(436,917,l),
(368,917,l),
(368,872,o),
(345,845,o),
(280,845,cs),
(216,845,o),
(193,872,o),
(193,917,c),
(125,917,l),
(125,901,ls),
(125,808,o),
(184,749,o),
(280,749,cs)
);
}
);
};
hints = (
{
horizontal = 1;
place = (-4,99);
type = Stem;
},
{
horizontal = 1;
place = (301,96);
type = Stem;
},
{
horizontal = 1;
place = (593,99);
type = Stem;
},
{
horizontal = 1;
place = (745,92);
type = Stem;
},
{
place = (140,64);
type = Stem;
},
{
place = (383,64);
type = Stem;
},
{
place = (64,124);
type = Stem;
}
);
layerId = m01;
shapes = (
{
ref = E;
},
{
pos = (125,0);
ref = brevecomb.case;
}
);
width = 562;
},
{
background = {
anchors = (
{
name = bottom;
pos = (282,0);
},
{
name = ogonek;
pos = (507,0);
},
{
name = top;
pos = (282,901);
},
{
name = topleft;
pos = (20,700);
}
);
hints = (
{
horizontal = 1;
place = (0,69);
type = Stem;
},
{
horizontal = 1;
place = (319,68);
type = Stem;
},
{
horizontal = 1;
place = (631,69);
type = Stem;
},
{
place = (74,84);
type = Stem;
},
{
horizontal = 1;
place = (757,66);
type = Stem;
},
{
place = (141,50);
type = Stem;
},
{
place = (371,51);
type = Stem;
}
);
shapes = (
{
closed = 1;
nodes = (
(507,0,l),
(507,69,l),
(158,69,l),
(158,336,l),
(463,336,l),
(463,404,l),
(158,404,l),
(158,631,l),
(507,631,l),
(507,700,l),
(74,700,l),
(74,0,l)
);
},
{
closed = 1;
nodes = (
(372,757,o),
(422,814,o),
(422,887,cs),
(422,901,l),
(371,901,l),
(371,852,o),
(345,823,o),
(281,823,cs),
(217,823,o),
(191,852,o),
(191,901,c),
(141,901,l),
(141,887,ls),
(141,814,o),
(189,757,o),
(281,757,cs)
);
}
);
};
hints = (
{
horizontal = 1;
place = (0,69);
type = Stem;
},
{
horizontal = 1;
place = (319,68);
type = Stem;
},
{
horizontal = 1;
place = (631,69);
type = Stem;
},
{
horizontal = 1;
place = (757,66);
type = Stem;
},
{
place = (155,50);
type = Stem;
},
{
place = (385,51);
type = Stem;
},
{
place = (74,84);
type = Stem;
}
);
layerId = "E8FC3098-FD3B-4CCD-A487-BB9306939620";
shapes = (
{
ref = E;
},
{
pos = (141,0);
ref = brevecomb.case;
}
);
width = 564;
},
{
background = {
anchors = (
{
name = bottom;
pos = (271,0);
},
{
name = ogonek;
pos = (507,0);
},
{
name = top;
pos = (271,928);
},
{
name = topleft;
pos = (20,700);
}
);
hints = (
{
horizontal = 1;
place = (-17,109);
type = Stem;
},
{
horizontal = 1;
place = (279,105);
type = Stem;
},
{
horizontal = 1;
place = (558,109);
type = Stem;
},
{
place = (47,141);
type = Stem;
},
{
horizontal = 1;
place = (744,116);
type = Stem;
},
{
place = (105,80);
type = Stem;
},
{
place = (357,79);
type = Stem;
}
);
shapes = (
{
closed = 1;
nodes = (
(507,0,l),
(507,136,l),
(205,136,l),
(205,301,l),
(460,301,l),
(460,437,l),
(205,437,l),
(205,564,l),
(507,564,l),
(507,700,l),
(47,700,l),
(47,0,l)
);
},
{
closed = 1;
nodes = (
(369,746,o),
(436,804,o),
(436,909,cs),
(436,928,l),
(357,928,l),
(357,885,o),
(336,860,o),
(270,860,cs),
(206,860,o),
(185,885,o),
(185,928,c),
(105,928,l),
(105,910,ls),
(105,804,o),
(171,746,o),
(270,746,cs)
);
}
);
};
hints = (
{
horizontal = 1;
place = (-17,109);
type = Stem;
},
{
horizontal = 1;
place = (279,105);
type = Stem;
},
{
horizontal = 1;
place = (558,109);
type = Stem;
},
{
horizontal = 1;
place = (727,99);
type = Stem;
},
{
place = (120,63);
type = Stem;
},
{
place = (372,63);
type = Stem;
},
{
place = (47,141);
type = Stem;
}
);
layerId = "E93BD6B3-FA9D-4EFB-B4A0-6094DEE674CC";
shapes = (
{
ref = E;
},
{
pos = (105,0);
ref = brevecomb.case;
}
);
width = 541;
}
);
note = Ebreve;
unicode = 276;
},
{
glyphname = Ecaron;
lastChange = "2023-05-03 07:58:28 +0000";
layers = (
{
background = {
anchors = (
{
name = bottom;
pos = (281,0);
},
{
name = ogonek;
pos = (513,0);
},
{
name = top;
pos = (281,918);
},
{
name = topleft;
pos = (20,700);
}
);
hints = (
{
horizontal = 1;
place = (-4,99);
type = Stem;
},
{
horizontal = 1;
place = (301,96);
type = Stem;
},
{
horizontal = 1;
place = (593,99);
type = Stem;
},
{
place = (64,124);
type = Stem;
},
{
horizontal = 1;
place = (746,172);
type = Stem;
},
{
place = (135,292);
type = Stem;
}
);
shapes = (
{
closed = 1;
nodes = (
(513,0,l),
(513,109,l),
(192,109,l),
(192,315,l),
(467,315,l),
(467,424,l),
(192,424,l),
(192,591,l),
(513,591,l),
(513,700,l),
(64,700,l),
(64,0,l)
);
},
{
closed = 1;
nodes = (
(427,826,l),
(427,918,l),
(281,833,l),
(135,918,l),
(135,826,l),
(281,746,l)
);
}
);
};
hints = (
{
horizontal = 1;
place = (-4,99);
type = Stem;
},
{
horizontal = 1;
place = (301,96);
type = Stem;
},
{
horizontal = 1;
place = (593,99);
type = Stem;
},
{
place = (64,124);
type = Stem;
},
{
place = (149,288);
type = Stem;
}
);
layerId = m01;
shapes = (
{
ref = E;
},
{
pos = (135,0);
ref = caroncomb.case;
}
);
width = 562;
},
{
background = {
anchors = (
{
name = bottom;
pos = (282,0);
},
{
name = ogonek;
pos = (507,0);
},
{
name = top;
pos = (282,901);
},
{
name = topleft;
pos = (20,700);
}
);
hints = (
{
horizontal = 1;
place = (0,69);
type = Stem;
},
{
horizontal = 1;
place = (319,68);
type = Stem;
},
{
horizontal = 1;
place = (631,69);
type = Stem;
},
{
place = (74,84);
type = Stem;
},
{
horizontal = 1;
place = (754,147);
type = Stem;
},
{
place = (145,274);
type = Stem;
}
);
shapes = (
{
closed = 1;
nodes = (
(507,0,l),
(507,69,l),
(158,69,l),
(158,336,l),
(463,336,l),
(463,404,l),
(158,404,l),
(158,631,l),
(507,631,l),
(507,700,l),
(74,700,l),
(74,0,l)
);
},
{
closed = 1;
nodes = (
(419,836,l),
(419,901,l),
(282,817,l),
(145,901,l),
(145,836,l),
(282,754,l)
);
}
);
};
hints = (
{
horizontal = 1;
place = (0,69);
type = Stem;
},
{
horizontal = 1;
place = (319,68);
type = Stem;
},
{
horizontal = 1;
place = (631,69);
type = Stem;
},
{
place = (74,84);
type = Stem;
},
{
place = (158,274);
type = Stem;
}
);
layerId = "E8FC3098-FD3B-4CCD-A487-BB9306939620";
shapes = (
{
ref = E;
},
{
pos = (145,0);
ref = caroncomb.case;
}
);
width = 564;
},
{
background = {
anchors = (
{
name = bottom;
pos = (271,0);
},
{
name = ogonek;
pos = (507,0);
},
{
name = top;
pos = (271,929);
},
{
name = topleft;
pos = (20,700);
}
);
hints = (
{
horizontal = 1;
place = (-17,109);
type = Stem;
},
{
horizontal = 1;
place = (279,105);
type = Stem;
},
{
horizontal = 1;
place = (558,109);
type = Stem;
},
{
place = (47,141);
type = Stem;
},
{
horizontal = 1;
place = (741,189);
type = Stem;
},
{
place = (119,304);
type = Stem;
}
);
shapes = (
{
closed = 1;
nodes = (
(507,0,l),
(507,136,l),
(205,136,l),
(205,301,l),
(460,301,l),
(460,437,l),
(205,437,l),
(205,564,l),
(507,564,l),
(507,700,l),
(47,700,l),
(47,0,l)
);
},
{
closed = 1;
nodes = (
(423,819,l),
(423,929,l),
(271,844,l),
(119,929,l),
(119,819,l),
(271,741,l)
);
}
);
};
hints = (
{
horizontal = 1;
place = (-17,109);
type = Stem;
},
{
horizontal = 1;
place = (279,105);
type = Stem;
},
{
horizontal = 1;
place = (558,109);
type = Stem;
},
{
place = (47,141);
type = Stem;
},
{
place = (133,287);
type = Stem;
}
);
layerId = "E93BD6B3-FA9D-4EFB-B4A0-6094DEE674CC";
shapes = (
{
ref = E;
},
{
pos = (119,0);
ref = caroncomb.case;
}
);
width = 541;
}
);
note = Ecaron;
unicode = 282;
},
{
glyphname = Ecircumflex;
lastChange = "2023-05-03 07:58:28 +0000";
layers = (
{
background = {
anchors = (
{
name = bottom;
pos = (281,0);
},
{
name = ogonek;
pos = (513,0);
},
{
name = top;
pos = (281,919);
},
{
name = topleft;
pos = (20,700);
}
);
hints = (
{
horizontal = 1;
place = (-4,99);
type = Stem;
},
{
horizontal = 1;
place = (301,96);
type = Stem;
},
{
horizontal = 1;
place = (593,99);
type = Stem;
},
{
place = (64,124);
type = Stem;
},
{
horizontal = 1;
place = (747,172);
type = Stem;
},
{
place = (135,292);
type = Stem;
}
);
shapes = (
{
closed = 1;
nodes = (
(513,0,l),
(513,109,l),
(192,109,l),
(192,315,l),
(467,315,l),
(467,424,l),
(192,424,l),
(192,591,l),
(513,591,l),
(513,700,l),
(64,700,l),
(64,0,l)
);
},
{
closed = 1;
nodes = (
(281,829,l),
(427,747,l),
(427,839,l),
(281,919,l),
(135,839,l),
(135,747,l)
);
}
);
};
hints = (
{
horizontal = 1;
place = (-4,99);
type = Stem;
},
{
horizontal = 1;
place = (301,96);
type = Stem;
},
{
horizontal = 1;
place = (593,99);
type = Stem;
},
{
place = (149,288);
type = Stem;
},
{
place = (64,124);
type = Stem;
}
);
layerId = m01;
shapes = (
{
ref = E;
},
{
pos = (135,0);
ref = circumflexcomb.case;
}
);
width = 562;
},
{
background = {
anchors = (
{
name = bottom;
pos = (282,0);
},
{
name = ogonek;
pos = (507,0);
},
{
name = top;
pos = (282,902);
},
{
name = topleft;
pos = (20,700);
}
);
hints = (
{
horizontal = 1;
place = (0,69);
type = Stem;
},
{
horizontal = 1;
place = (319,68);
type = Stem;
},
{
horizontal = 1;
place = (631,69);
type = Stem;
},
{
place = (74,84);
type = Stem;
},
{
horizontal = 1;
place = (755,147);
type = Stem;
},
{
place = (145,274);
type = Stem;
}
);
shapes = (
{
closed = 1;
nodes = (
(507,0,l),
(507,69,l),
(158,69,l),
(158,336,l),
(463,336,l),
(463,404,l),
(158,404,l),
(158,631,l),
(507,631,l),
(507,700,l),
(74,700,l),
(74,0,l)
);
},
{
closed = 1;
nodes = (
(282,839,l),
(419,755,l),
(419,821,l),
(282,902,l),
(145,821,l),
(145,755,l)
);
}
);
};
hints = (
{
horizontal = 1;
place = (0,69);
type = Stem;
},
{
horizontal = 1;
place = (319,68);
type = Stem;
},
{
horizontal = 1;
place = (631,69);
type = Stem;
},
{
place = (158,274);
type = Stem;
},
{
place = (74,84);
type = Stem;
}
);
layerId = "E8FC3098-FD3B-4CCD-A487-BB9306939620";
shapes = (
{
ref = E;
},
{
pos = (145,0);
ref = circumflexcomb.case;
}
);
width = 564;
},
{
background = {
anchors = (
{
name = bottom;
pos = (271,0);
},
{
name = ogonek;
pos = (507,0);
},
{
name = top;
pos = (271,930);
},
{
name = topleft;
pos = (20,700);
}
);
hints = (
{
horizontal = 1;
place = (-17,109);
type = Stem;
},
{
horizontal = 1;
place = (279,105);
type = Stem;
},
{
horizontal = 1;
place = (558,109);
type = Stem;
},
{
place = (47,141);
type = Stem;
},
{
horizontal = 1;
place = (742,189);
type = Stem;
},
{
place = (119,304);
type = Stem;
}
);
shapes = (
{
closed = 1;
nodes = (
(507,0,l),
(507,136,l),
(205,136,l),
(205,301,l),
(460,301,l),
(460,437,l),
(205,437,l),
(205,564,l),
(507,564,l),
(507,700,l),
(47,700,l),
(47,0,l)
);
},
{
closed = 1;
nodes = (
(271,822,l),
(423,742,l),
(423,851,l),
(271,930,l),
(119,851,l),
(119,742,l)
);
}
);
};
hints = (
{
horizontal = 1;
place = (-17,109);
type = Stem;
},
{
horizontal = 1;
place = (279,105);
type = Stem;
},
{
horizontal = 1;
place = (558,109);
type = Stem;
},
{
place = (133,287);
type = Stem;
},
{
place = (47,141);
type = Stem;
}
);
layerId = "E93BD6B3-FA9D-4EFB-B4A0-6094DEE674CC";
shapes = (
{
ref = E;
},
{
pos = (119,0);
ref = circumflexcomb.case;
}
);
width = 541;
}
);
note = Ecircumflex;
unicode = 202;
},
{
glyphname = Edieresis;
lastChange = "2023-05-03 07:58:28 +0000";
layers = (
{
background = {
anchors = (
{
name = bottom;
pos = (281,0);
},
{
name = ogonek;
pos = (513,0);
},
{
name = top;
pos = (281,934);
},
{
name = topleft;
pos = (20,700);
}
);
hints = (
{
horizontal = 1;
place = (-4,99);
type = Stem;
},
{
horizontal = 1;
place = (301,96);
type = Stem;
},
{
horizontal = 1;
place = (593,99);
type = Stem;
},
{
place = (64,124);
type = Stem;
},
{
horizontal = 1;
place = (768,124);
type = Stem;
},
{
place = (87,124);
type = Stem;
},
{
place = (267,124);
type = Stem;
}
);
shapes = (
{
closed = 1;
nodes = (
(513,0,l),
(513,109,l),
(192,109,l),
(192,315,l),
(467,315,l),
(467,424,l),
(192,424,l),
(192,591,l),
(513,591,l),
(513,700,l),
(64,700,l),
(64,0,l)
);
},
{
closed = 1;
nodes = (
(217,768,o),
(253,804,o),
(253,851,cs),
(253,898,o),
(217,934,o),
(170,934,cs),
(123,934,o),
(87,898,o),
(87,851,cs),
(87,804,o),
(123,768,o),
(170,768,cs)
);
},
{
closed = 1;
nodes = (
(439,768,o),
(475,804,o),
(475,851,cs),
(475,898,o),
(439,934,o),
(392,934,cs),
(345,934,o),
(309,898,o),
(309,851,cs),
(309,804,o),
(345,768,o),
(392,768,cs)
);
}
);
};
hints = (
{
horizontal = 1;
place = (-4,99);
type = Stem;
},
{
horizontal = 1;
place = (301,96);
type = Stem;
},
{
horizontal = 1;
place = (593,99);
type = Stem;
},
{
horizontal = 1;
place = (764,120);
type = Stem;
},
{
place = (143,120);
type = Stem;
},
{
place = (323,120);
type = Stem;
},
{
place = (64,124);
type = Stem;
}
);
layerId = m01;
shapes = (
{
ref = E;
},
{
pos = (87,0);
ref = dieresiscomb.case;
}
);
width = 562;
},
{
background = {
anchors = (
{
name = bottom;
pos = (282,0);
},
{
name = ogonek;
pos = (507,0);
},
{
name = top;
pos = (282,889);
},
{
name = topleft;
pos = (20,700);
}
);
hints = (
{
horizontal = 1;
place = (0,69);
type = Stem;
},
{
horizontal = 1;
place = (319,68);
type = Stem;
},
{
horizontal = 1;
place = (631,69);
type = Stem;
},
{
place = (74,84);
type = Stem;
},
{
horizontal = 1;
place = (775,100);
type = Stem;
},
{
place = (135,100);
type = Stem;
},
{
place = (295,99);
type = Stem;
}
);
shapes = (
{
closed = 1;
nodes = (
(507,0,l),
(507,69,l),
(158,69,l),
(158,336,l),
(463,336,l),
(463,404,l),
(158,404,l),
(158,631,l),
(507,631,l),
(507,700,l),
(74,700,l),
(74,0,l)
);
},
{
closed = 1;
nodes = (
(225,775,o),
(251,800,o),
(251,833,cs),
(251,865,o),
(225,889,o),
(193,889,cs),
(160,889,o),
(135,865,o),
(135,833,cs),
(135,800,o),
(160,775,o),
(193,775,cs)
);
},
{
closed = 1;
nodes = (
(402,775,o),
(428,800,o),
(428,833,cs),
(428,865,o),
(402,889,o),
(370,889,cs),
(337,889,o),
(312,865,o),
(312,833,cs),
(312,800,o),
(337,775,o),
(370,775,cs)
);
}
);
};
hints = (
{
horizontal = 1;
place = (0,69);
type = Stem;
},
{
horizontal = 1;
place = (319,68);
type = Stem;
},
{
horizontal = 1;
place = (631,69);
type = Stem;
},
{
horizontal = 1;
place = (775,100);
type = Stem;
},
{
place = (74,84);
type = Stem;
},
{
place = (166,100);
type = Stem;
},
{
place = (326,99);
type = Stem;
}
);
layerId = "E8FC3098-FD3B-4CCD-A487-BB9306939620";
shapes = (
{
ref = E;
},
{
pos = (135,0);
ref = dieresiscomb.case;
}
);
width = 564;
},
{
background = {
anchors = (
{
name = bottom;
pos = (271,0);
},
{
name = ogonek;
pos = (507,0);
},
{
name = top;
pos = (271,949);
},
{
name = topleft;
pos = (20,700);
}
);
hints = (
{
horizontal = 1;
place = (-17,109);
type = Stem;
},
{
horizontal = 1;
place = (279,105);
type = Stem;
},
{
horizontal = 1;
place = (558,109);
type = Stem;
},
{
place = (47,141);
type = Stem;
},
{
horizontal = 1;
place = (763,140);
type = Stem;
},
{
place = (57,140);
type = Stem;
},
{
place = (250,141);
type = Stem;
}
);
shapes = (
{
closed = 1;
nodes = (
(507,0,l),
(507,136,l),
(205,136,l),
(205,301,l),
(460,301,l),
(460,437,l),
(205,437,l),
(205,564,l),
(507,564,l),
(507,700,l),
(47,700,l),
(47,0,l)
);
},
{
closed = 1;
nodes = (
(207,759,o),
(247,801,o),
(247,854,cs),
(247,909,o),
(207,949,o),
(152,949,cs),
(98,949,o),
(57,909,o),
(57,854,cs),
(57,801,o),
(98,759,o),
(152,759,cs)
);
},
{
closed = 1;
nodes = (
(444,759,o),
(485,801,o),
(485,854,cs),
(485,909,o),
(444,949,o),
(390,949,cs),
(336,949,o),
(295,909,o),
(295,854,cs),
(295,801,o),
(336,759,o),
(390,759,cs)
);
}
);
};
hints = (
{
horizontal = 1;
place = (-17,109);
type = Stem;
},
{
horizontal = 1;
place = (279,105);
type = Stem;
},
{
horizontal = 1;
place = (558,109);
type = Stem;
},
{
horizontal = 1;
place = (747,123);
type = Stem;
},
{
place = (118,123);
type = Stem;
},
{
place = (311,124);
type = Stem;
},
{
place = (47,141);
type = Stem;
}
);
layerId = "E93BD6B3-FA9D-4EFB-B4A0-6094DEE674CC";
shapes = (
{
ref = E;
},
{
pos = (57,0);
ref = dieresiscomb.case;
}
);
width = 541;
}
);
note = Edieresis;
unicode = 203;
},
{
glyphname = Edotaccent;
lastChange = "2023-05-03 07:58:28 +0000";
layers = (
{
background = {
anchors = (
{
name = bottom;
pos = (281,0);
},
{
name = ogonek;
pos = (513,0);
},
{
name = top;
pos = (281,934);
},
{
name = topleft;
pos = (20,700);
}
);
hints = (
{
horizontal = 1;
place = (-4,99);
type = Stem;
},
{
horizontal = 1;
place = (301,96);
type = Stem;
},
{
horizontal = 1;
place = (593,99);
type = Stem;
},
{
place = (64,124);
type = Stem;
},
{
horizontal = 1;
place = (764,124);
type = Stem;
},
{
place = (198,124);
type = Stem;
}
);
shapes = (
{
closed = 1;
nodes = (
(513,0,l),
(513,109,l),
(192,109,l),
(192,315,l),
(467,315,l),
(467,424,l),
(192,424,l),
(192,591,l),
(513,591,l),
(513,700,l),
(64,700,l),
(64,0,l)
);
},
{
closed = 1;
nodes = (
(328,768,o),
(364,804,o),
(364,851,cs),
(364,898,o),
(328,934,o),
(281,934,cs),
(234,934,o),
(198,898,o),
(198,851,cs),
(198,804,o),
(234,768,o),
(281,768,cs)
);
}
);
};
hints = (
{
horizontal = 1;
place = (-4,99);
type = Stem;
},
{
horizontal = 1;
place = (301,96);
type = Stem;
},
{
horizontal = 1;
place = (593,99);
type = Stem;
},
{
horizontal = 1;
place = (760,120);
type = Stem;
},
{
place = (64,124);
type = Stem;
},
{
place = (233,120);
type = Stem;
}
);
layerId = m01;
shapes = (
{
ref = E;
},
{
pos = (198,0);
ref = dotaccentcomb.case;
}
);
width = 562;
},
{
background = {
anchors = (
{
name = bottom;
pos = (282,0);
},
{
name = ogonek;
pos = (507,0);
},
{
name = top;
pos = (282,889);
},
{
name = topleft;
pos = (20,700);
}
);
hints = (
{
horizontal = 1;
place = (0,69);
type = Stem;
},
{
horizontal = 1;
place = (319,68);
type = Stem;
},
{
horizontal = 1;
place = (631,69);
type = Stem;
},
{
place = (74,84);
type = Stem;
},
{
horizontal = 1;
place = (766,100);
type = Stem;
},
{
place = (224,100);
type = Stem;
}
);
shapes = (
{
closed = 1;
nodes = (
(507,0,l),
(507,69,l),
(158,69,l),
(158,336,l),
(463,336,l),
(463,404,l),
(158,404,l),
(158,631,l),
(507,631,l),
(507,700,l),
(74,700,l),
(74,0,l)
);
},
{
closed = 1;
nodes = (
(314,775,o),
(340,800,o),
(340,833,cs),
(340,865,o),
(314,889,o),
(282,889,cs),
(249,889,o),
(224,865,o),
(224,833,cs),
(224,800,o),
(249,775,o),
(282,775,cs)
);
}
);
};
hints = (
{
horizontal = 1;
place = (0,69);
type = Stem;
},
{
horizontal = 1;
place = (319,68);
type = Stem;
},
{
horizontal = 1;
place = (631,69);
type = Stem;
},
{
horizontal = 1;
place = (766,100);
type = Stem;
},
{
place = (74,84);
type = Stem;
},
{
place = (245,100);
type = Stem;
}
);
layerId = "E8FC3098-FD3B-4CCD-A487-BB9306939620";
shapes = (
{
ref = E;
},
{
pos = (224,0);
ref = dotaccentcomb.case;
}
);
width = 564;
},
{
background = {
anchors = (
{
name = bottom;
pos = (271,0);
},
{
name = ogonek;
pos = (507,0);
},
{
name = top;
pos = (273,949);
},
{
name = topleft;
pos = (20,700);
}
);
hints = (
{
horizontal = 1;
place = (-17,109);
type = Stem;
},
{
horizontal = 1;
place = (279,105);
type = Stem;
},
{
horizontal = 1;
place = (558,109);
type = Stem;
},
{
place = (47,141);
type = Stem;
},
{
horizontal = 1;
place = (763,140);
type = Stem;
},
{
place = (177,140);
type = Stem;
}
);
shapes = (
{
closed = 1;
nodes = (
(507,0,l),
(507,136,l),
(205,136,l),
(205,301,l),
(460,301,l),
(460,437,l),
(205,437,l),
(205,564,l),
(507,564,l),
(507,700,l),
(47,700,l),
(47,0,l)
);
},
{
closed = 1;
nodes = (
(326,759,o),
(368,800,o),
(368,854,cs),
(368,908,o),
(326,949,o),
(271,949,cs),
(221,949,o),
(177,908,o),
(177,854,cs),
(177,800,o),
(221,759,o),
(271,759,cs)
);
}
);
};
hints = (
{
horizontal = 1;
place = (-17,109);
type = Stem;
},
{
horizontal = 1;
place = (279,105);
type = Stem;
},
{
horizontal = 1;
place = (558,109);
type = Stem;
},
{
horizontal = 1;
place = (746,123);
type = Stem;
},
{
place = (47,141);
type = Stem;
},
{
place = (215,123);
type = Stem;
}
);
layerId = "E93BD6B3-FA9D-4EFB-B4A0-6094DEE674CC";
shapes = (
{
ref = E;
},
{
pos = (177,0);
ref = dotaccentcomb.case;
}
);
width = 541;
}
);
note = Edotaccent;
unicode = 278;
},
{
glyphname = Egrave;
lastChange = "2023-05-03 07:58:28 +0000";
layers = (
{
background = {
anchors = (
{
name = bottom;
pos = (281,0);
},
{
name = ogonek;
pos = (513,0);
},
{
name = top;
pos = (281,952);
},
{
name = topleft;
pos = (20,700);
}
);
hints = (
{
horizontal = 1;
place = (-4,99);
type = Stem;
},
{
horizontal = 1;
place = (301,96);
type = Stem;
},
{
horizontal = 1;
place = (593,99);
type = Stem;
},
{
place = (64,124);
type = Stem;
},
{
horizontal = 1;
place = (740,212);
type = Stem;
},
{
place = (168,226);
type = Stem;
}
);
shapes = (
{
closed = 1;
nodes = (
(513,0,l),
(513,109,l),
(192,109,l),
(192,315,l),
(467,315,l),
(467,424,l),
(192,424,l),
(192,591,l),
(513,591,l),
(513,700,l),
(64,700,l),
(64,0,l)
);
},
{
closed = 1;
nodes = (
(394,830,l),
(168,952,l),
(168,848,l),
(394,740,l)
);
}
);
};
hints = (
{
horizontal = 1;
place = (-4,99);
type = Stem;
},
{
horizontal = 1;
place = (301,96);
type = Stem;
},
{
horizontal = 1;
place = (593,99);
type = Stem;
},
{
place = (119,222);
type = Stem;
},
{
place = (64,124);
type = Stem;
}
);
layerId = m01;
shapes = (
{
ref = E;
},
{
pos = (168,0);
ref = gravecomb.case;
}
);
width = 562;
},
{
background = {
anchors = (
{
name = bottom;
pos = (282,0);
},
{
name = ogonek;
pos = (507,0);
},
{
name = top;
pos = (282,931);
},
{
name = topleft;
pos = (20,700);
}
);
hints = (
{
horizontal = 1;
place = (0,69);
type = Stem;
},
{
horizontal = 1;
place = (319,68);
type = Stem;
},
{
horizontal = 1;
place = (631,69);
type = Stem;
},
{
place = (74,84);
type = Stem;
},
{
horizontal = 1;
place = (741,190);
type = Stem;
},
{
place = (177,210);
type = Stem;
}
);
shapes = (
{
closed = 1;
nodes = (
(507,0,l),
(507,69,l),
(158,69,l),
(158,336,l),
(463,336,l),
(463,404,l),
(158,404,l),
(158,631,l),
(507,631,l),
(507,700,l),
(74,700,l),
(74,0,l)
);
},
{
closed = 1;
nodes = (
(387,804,l),
(177,931,l),
(177,858,l),
(387,741,l)
);
}
);
};
hints = (
{
horizontal = 1;
place = (0,69);
type = Stem;
},
{
horizontal = 1;
place = (319,68);
type = Stem;
},
{
horizontal = 1;
place = (631,69);
type = Stem;
},
{
place = (130,210);
type = Stem;
},
{
place = (74,84);
type = Stem;
}
);
layerId = "E8FC3098-FD3B-4CCD-A487-BB9306939620";
shapes = (
{
ref = E;
},
{
pos = (177,0);
ref = gravecomb.case;
}
);
width = 564;
},
{
background = {
anchors = (
{
name = bottom;
pos = (271,0);
},
{
name = ogonek;
pos = (507,0);
},
{
name = top;
pos = (271,966);
},
{
name = topleft;
pos = (20,700);
}
);
hints = (
{
horizontal = 1;
place = (-17,109);
type = Stem;
},
{
horizontal = 1;
place = (279,105);
type = Stem;
},
{
horizontal = 1;
place = (558,109);
type = Stem;
},
{
place = (47,141);
type = Stem;
},
{
horizontal = 1;
place = (739,227);
type = Stem;
},
{
place = (152,237);
type = Stem;
}
);
shapes = (
{
closed = 1;
nodes = (
(507,0,l),
(507,136,l),
(205,136,l),
(205,301,l),
(460,301,l),
(460,437,l),
(205,437,l),
(205,564,l),
(507,564,l),
(507,700,l),
(47,700,l),
(47,0,l)
);
},
{
closed = 1;
nodes = (
(390,847,l),
(153,966,l),
(153,841,l),
(390,739,l)
);
}
);
};
hints = (
{
horizontal = 1;
place = (-17,109);
type = Stem;
},
{
horizontal = 1;
place = (279,105);
type = Stem;
},
{
horizontal = 1;
place = (558,109);
type = Stem;
},
{
place = (102,220);
type = Stem;
},
{
place = (47,141);
type = Stem;
}
);
layerId = "E93BD6B3-FA9D-4EFB-B4A0-6094DEE674CC";
shapes = (
{
ref = E;
},
{
pos = (152,0);
ref = gravecomb.case;
}
);
width = 541;
}
);
note = Egrave;
unicode = 200;
},
{
glyphname = Emacron;
lastChange = "2023-05-08 22:59:23 +0000";
layers = (
{
background = {
anchors = (
{
name = bottom;
pos = (281,0);
},
{
name = ogonek;
pos = (513,0);
},
{
name = top;
pos = (281,874);
},
{
name = topleft;
pos = (20,700);
}
);
hints = (
{
horizontal = 1;
place = (-4,99);
type = Stem;
},
{
horizontal = 1;
place = (301,96);
type = Stem;
},
{
horizontal = 1;
place = (593,99);
type = Stem;
},
{
place = (64,124);
type = Stem;
},
{
horizontal = 1;
place = (783,91);
type = Stem;
},
{
place = (94,374);
type = Stem;
}
);
shapes = (
{
closed = 1;
nodes = (
(513,0,l),
(513,109,l),
(192,109,l),
(192,315,l),
(467,315,l),
(467,424,l),
(192,424,l),
(192,591,l),
(513,591,l),
(513,700,l),
(64,700,l),
(64,0,l)
);
},
{
closed = 1;
nodes = (
(468,783,l),
(468,874,l),
(94,874,l),
(94,783,l)
);
}
);
};
hints = (
{
horizontal = 1;
place = (-4,99);
type = Stem;
},
{
horizontal = 1;
place = (301,96);
type = Stem;
},
{
horizontal = 1;
place = (593,99);
type = Stem;
},
{
horizontal = 1;
place = (779,87);
type = Stem;
},
{
place = (64,124);
type = Stem;
}
);
layerId = m01;
shapes = (
{
ref = E;
},
{
pos = (104,0);
ref = macroncomb.case;
}
);
width = 562;
},
{
background = {
anchors = (
{
name = bottom;
pos = (282,0);
},
{
name = ogonek;
pos = (507,0);
},
{
name = top;
pos = (282,859);
},
{
name = topleft;
pos = (20,700);
}
);
hints = (
{
horizontal = 1;
place = (0,69);
type = Stem;
},
{
horizontal = 1;
place = (319,68);
type = Stem;
},
{
horizontal = 1;
place = (631,69);
type = Stem;
},
{
place = (74,84);
type = Stem;
},
{
horizontal = 1;
place = (796,63);
type = Stem;
},
{
place = (108,347);
type = Stem;
}
);
shapes = (
{
closed = 1;
nodes = (
(507,0,l),
(507,69,l),
(158,69,l),
(158,336,l),
(463,336,l),
(463,404,l),
(158,404,l),
(158,631,l),
(507,631,l),
(507,700,l),
(74,700,l),
(74,0,l)
);
},
{
closed = 1;
nodes = (
(455,796,l),
(455,859,l),
(108,859,l),
(108,796,l)
);
}
);
};
hints = (
{
horizontal = 1;
place = (0,69);
type = Stem;
},
{
horizontal = 1;
place = (319,68);
type = Stem;
},
{
horizontal = 1;
place = (631,69);
type = Stem;
},
{
horizontal = 1;
place = (796,63);
type = Stem;
},
{
place = (74,84);
type = Stem;
}
);
layerId = "E8FC3098-FD3B-4CCD-A487-BB9306939620";
shapes = (
{
ref = E;
},
{
pos = (108,0);
ref = macroncomb.case;
}
);
width = 564;
},
{
background = {
anchors = (
{
name = bottom;
pos = (271,0);
},
{
name = ogonek;
pos = (507,0);
},
{
name = top;
pos = (271,884);
},
{
name = topleft;
pos = (20,700);
}
);
hints = (
{
horizontal = 1;
place = (-17,109);
type = Stem;
},
{
horizontal = 1;
place = (279,105);
type = Stem;
},
{
horizontal = 1;
place = (558,109);
type = Stem;
},
{
place = (47,141);
type = Stem;
},
{
horizontal = 1;
place = (774,110);
type = Stem;
},
{
place = (75,392);
type = Stem;
}
);
shapes = (
{
closed = 1;
nodes = (
(507,0,l),
(507,136,l),
(205,136,l),
(205,301,l),
(460,301,l),
(460,437,l),
(205,437,l),
(205,564,l),
(507,564,l),
(507,700,l),
(47,700,l),
(47,0,l)
);
},
{
closed = 1;
nodes = (
(467,774,l),
(467,884,l),
(75,884,l),
(75,774,l)
);
}
);
};
hints = (
{
horizontal = 1;
place = (-17,109);
type = Stem;
},
{
horizontal = 1;
place = (279,105);
type = Stem;
},
{
horizontal = 1;
place = (558,109);
type = Stem;
},
{
horizontal = 1;
place = (758,93);
type = Stem;
},
{
place = (47,141);
type = Stem;
}
);
layerId = "E93BD6B3-FA9D-4EFB-B4A0-6094DEE674CC";
shapes = (
{
ref = E;
},
{
pos = (85,0);
ref = macroncomb.case;
}
);
width = 541;
}
);
note = Emacron;
unicode = 274;
},
{
glyphname = Eogonek;
lastChange = "2023-05-03 07:58:28 +0000";
layers = (
{
background = {
anchors = (
{
name = bottom;
pos = (281,0);
},
{
name = ogonek;
pos = (513,0);
},
{
name = top;
pos = (281,700);
},
{
name = topleft;
pos = (20,700);
}
);
hints = (
{
horizontal = 1;
place = (-4,99);
type = Stem;
},
{
horizontal = 1;
place = (301,96);
type = Stem;
},
{
horizontal = 1;
place = (593,99);
type = Stem;
},
{
place = (64,124);
type = Stem;
},
{
horizontal = 1;
place = (-210,75);
type = Stem;
},
{
place = (298,97);
type = Stem;
},
{
place = (298,220);
type = Stem;
}
);
shapes = (
{
closed = 1;
nodes = (
(513,0,l),
(513,109,l),
(192,109,l),
(192,315,l),
(467,315,l),
(467,424,l),
(192,424,l),
(192,591,l),
(513,591,l),
(513,700,l),
(64,700,l),
(64,0,l)
);
},
{
closed = 1;
nodes = (
(462,-210,o),
(493,-204,o),
(518,-196,c),
(518,-120,l),
(492,-130,o),
(468,-135,o),
(447,-135,cs),
(415,-135,o),
(395,-119,o),
(395,-94,cs),
(395,-70,o),
(413,-50,o),
(461,-26,cs),
(513,0,l),
(484,60,l),
(438,40,ls),
(332,-6,o),
(298,-53,o),
(298,-106,cs),
(298,-178,o),
(359,-210,o),
(431,-210,cs)
);
}
);
};
hints = (
{
horizontal = 1;
place = (-214,71);
type = Stem;
},
{
horizontal = 1;
place = (-4,99);
type = Stem;
},
{
horizontal = 1;
place = (301,96);
type = Stem;
},
{
horizontal = 1;
place = (593,99);
type = Stem;
},
{
place = (64,124);
type = Stem;
},
{
place = (306,93);
type = Stem;
},
{
place = (306,216);
type = Stem;
}
);
layerId = m01;
shapes = (
{
ref = E;
},
{
pos = (298,0);
ref = ogonekcomb.case;
}
);
width = 562;
},
{
background = {
anchors = (
{
name = bottom;
pos = (282,0);
},
{
name = ogonek;
pos = (507,0);
},
{
name = top;
pos = (282,700);
},
{
name = topleft;
pos = (20,700);
}
);
hints = (
{
horizontal = 1;
place = (0,69);
type = Stem;
},
{
horizontal = 1;
place = (319,68);
type = Stem;
},
{
horizontal = 1;
place = (631,69);
type = Stem;
},
{
place = (74,84);
type = Stem;
},
{
horizontal = 1;
place = (-203,54);
type = Stem;
},
{
place = (317,68);
type = Stem;
}
);
shapes = (
{
closed = 1;
nodes = (
(507,0,l),
(507,69,l),
(158,69,l),
(158,336,l),
(463,336,l),
(463,404,l),
(158,404,l),
(158,631,l),
(507,631,l),
(507,700,l),
(74,700,l),
(74,0,l)
);
},
{
closed = 1;
nodes = (
(460,-203,o),
(485,-199,o),
(510,-190,c),
(510,-134,l),
(487,-144,o),
(465,-149,o),
(445,-149,cs),
(409,-149,o),
(385,-131,o),
(385,-100,cs),
(385,-75,o),
(401,-51,o),
(449,-28,cs),
(507,0,l),
(486,43,l),
(433,20,ls),
(346,-18,o),
(317,-61,o),
(317,-108,cs),
(317,-174,o),
(373,-203,o),
(435,-203,cs)
);
}
);
};
hints = (
{
horizontal = 1;
place = (-203,54);
type = Stem;
},
{
horizontal = 1;
place = (0,69);
type = Stem;
},
{
horizontal = 1;
place = (319,68);
type = Stem;
},
{
horizontal = 1;
place = (631,69);
type = Stem;
},
{
place = (74,84);
type = Stem;
},
{
place = (317,68);
type = Stem;
}
);
layerId = "E8FC3098-FD3B-4CCD-A487-BB9306939620";
shapes = (
{
ref = E;
},
{
pos = (317,0);
ref = ogonekcomb.case;
}
);
width = 564;
},
{
background = {
anchors = (
{
name = bottom;
pos = (271,0);
},
{
name = ogonek;
pos = (507,0);
},
{
name = top;
pos = (271,700);
},
{
name = topleft;
pos = (20,700);
}
);
hints = (
{
horizontal = 1;
place = (-17,109);
type = Stem;
},
{
horizontal = 1;
place = (279,105);
type = Stem;
},
{
horizontal = 1;
place = (558,109);
type = Stem;
},
{
place = (47,141);
type = Stem;
},
{
horizontal = 1;
place = (-215,89);
type = Stem;
},
{
place = (275,162);
type = Stem;
},
{
place = (275,321);
type = Stem;
}
);
shapes = (
{
closed = 1;
nodes = (
(507,0,l),
(507,136,l),
(205,136,l),
(205,301,l),
(460,301,l),
(460,437,l),
(205,437,l),
(205,564,l),
(507,564,l),
(507,700,l),
(47,700,l),
(47,0,l)
);
},
{
closed = 1;
nodes = (
(453,-215,o),
(488,-207,o),
(513,-200,c),
(513,-111,l),
(485,-121,o),
(460,-126,o),
(438,-126,cs),
(409,-126,o),
(391,-111,o),
(391,-90,cs),
(391,-67,o),
(411,-50,o),
(459,-25,cs),
(507,0,l),
(472,71,l),
(431,53,ls),
(312,1,o),
(275,-48,o),
(275,-105,cs),
(275,-181,o),
(339,-215,o),
(418,-215,cs)
);
}
);
};
hints = (
{
horizontal = 1;
place = (-231,72);
type = Stem;
},
{
horizontal = 1;
place = (-17,109);
type = Stem;
},
{
horizontal = 1;
place = (279,105);
type = Stem;
},
{
horizontal = 1;
place = (558,109);
type = Stem;
},
{
place = (97,197);
type = Stem;
},
{
place = (451,89);
type = Stem;
},
{
place = (289,305);
type = Stem;
}
);
layerId = "E93BD6B3-FA9D-4EFB-B4A0-6094DEE674CC";
shapes = (
{
ref = E;
},
{
pos = (275,0);
ref = ogonekcomb.case;
}
);
width = 541;
}
);
note = Eogonek;
unicode = 280;
},
{
glyphname = Ereversed;
lastChange = "2023-05-03 07:58:46 +0000";
layers = (
{
background = {
shapes = (
{
closed = 1;
nodes = (
(494,0,l),
(494,700,l),
(45,700,l),
(45,591,l),
(366,591,l),
(366,424,l),
(91,424,l),
(91,315,l),
(366,315,l),
(366,109,l),
(45,109,l),
(45,0,l)
);
}
);
};
layerId = m01;
shapes = (
{
closed = 1;
nodes = (
(494,0,l),
(494,700,l),
(45,700,l),
(45,591,l),
(366,591,l),
(366,424,l),
(91,424,l),
(91,315,l),
(366,315,l),
(366,109,l),
(45,109,l),
(45,0,l)
);
}
);
width = 554;
},
{
background = {
shapes = (
{
closed = 1;
nodes = (
(507,0,l),
(507,700,l),
(74,700,l),
(74,631,l),
(423,631,l),
(423,404,l),
(118,404,l),
(118,336,l),
(423,336,l),
(423,69,l),
(74,69,l),
(74,0,l)
);
}
);
};
layerId = "E8FC3098-FD3B-4CCD-A487-BB9306939620";
shapes = (
{
closed = 1;
nodes = (
(507,0,l),
(507,700,l),
(74,700,l),
(74,631,l),
(423,631,l),
(423,404,l),
(118,404,l),
(118,336,l),
(423,336,l),
(423,69,l),
(74,69,l),
(74,0,l)
);
}
);
width = 600;
},
{
background = {
shapes = (
{
closed = 1;
nodes = (
(493,0,l),
(493,700,l),
(34,700,l),
(34,564,l),
(336,564,l),
(336,437,l),
(81,437,l),
(81,301,l),
(336,301,l),
(336,136,l),
(34,136,l),
(34,0,l)
);
}
);
};
layerId = "E93BD6B3-FA9D-4EFB-B4A0-6094DEE674CC";
shapes = (
{
closed = 1;
nodes = (
(493,0,l),
(493,700,l),
(34,700,l),
(34,564,l),
(336,564,l),
(336,437,l),
(81,437,l),
(81,301,l),
(336,301,l),
(336,136,l),
(34,136,l),
(34,0,l)
);
}
);
width = 540;
}
);
unicode = (398,477);
},
{
glyphname = Etilde;
lastChange = "2023-05-10 16:40:43 +0000";
layers = (
{
background = {
anchors = (
{
name = bottom;
pos = (281,0);
},
{
name = ogonek;
pos = (513,0);
},
{
name = top;
pos = (281,877);
},
{
name = topleft;
pos = (20,700);
}
);
hints = (
{
horizontal = 1;
place = (-4,99);
type = Stem;
},
{
horizontal = 1;
place = (301,96);
type = Stem;
},
{
horizontal = 1;
place = (593,99);
type = Stem;
},
{
place = (64,124);
type = Stem;
},
{
horizontal = 1;
place = (752,79);
type = Stem;
},
{
place = (105,351);
type = Stem;
},
{
horizontal = 1;
place = (798,79);
type = Stem;
}
);
shapes = (
{
closed = 1;
nodes = (
(513,0,l),
(513,109,l),
(192,109,l),
(192,315,l),
(467,315,l),
(467,424,l),
(192,424,l),
(192,591,l),
(513,591,l),
(513,700,l),
(64,700,l),
(64,0,l)
);
},
{
closed = 1;
nodes = (
(399,752,o),
(444,791,o),
(456,876,c),
(388,876,l),
(384,845,o),
(368,831,o),
(345,831,cs),
(298,831,o),
(277,877,o),
(222,877,cs),
(161,877,o),
(118,838,o),
(105,753,c),
(173,753,l),
(178,783,o),
(192,798,o),
(216,798,cs),
(263,798,o),
(284,752,o),
(339,752,cs)
);
}
);
};
hints = (
{
horizontal = 1;
place = (-4,99);
type = Stem;
},
{
horizontal = 1;
place = (301,96);
type = Stem;
},
{
horizontal = 1;
place = (593,99);
type = Stem;
},
{
horizontal = 1;
place = (748,75);
type = Stem;
},
{
place = (64,124);
type = Stem;
},
{
horizontal = 1;
place = (794,75);
type = Stem;
}
);
layerId = m01;
shapes = (
{
ref = E;
},
{
pos = (105,0);
ref = tildecomb.case;
}
);
width = 562;
},
{
background = {
anchors = (
{
name = bottom;
pos = (282,0);
},
{
name = ogonek;
pos = (507,0);
},
{
name = top;
pos = (282,859);
},
{
name = topleft;
pos = (20,700);
}
);
hints = (
{
horizontal = 1;
place = (0,69);
type = Stem;
},
{
horizontal = 1;
place = (319,68);
type = Stem;
},
{
horizontal = 1;
place = (631,69);
type = Stem;
},
{
place = (74,84);
type = Stem;
},
{
horizontal = 1;
place = (756,56);
type = Stem;
},
{
place = (131,49);
type = Stem;
},
{
place = (384,49);
type = Stem;
},
{
horizontal = 1;
place = (803,56);
type = Stem;
}
);
shapes = (
{
closed = 1;
nodes = (
(507,0,l),
(507,69,l),
(158,69,l),
(158,336,l),
(463,336,l),
(463,404,l),
(158,404,l),
(158,631,l),
(507,631,l),
(507,700,l),
(74,700,l),
(74,0,l)
);
},
{
closed = 1;
nodes = (
(388,756,o),
(425,792,o),
(433,857,c),
(384,857,l),
(380,826,o),
(362,812,o),
(341,812,cs),
(295,812,o),
(280,859,o),
(226,859,cs),
(175,859,o),
(140,826,o),
(131,758,c),
(180,758,l),
(184,788,o),
(198,803,o),
(222,803,cs),
(269,803,o),
(282,756,o),
(337,756,cs)
);
}
);
};
hints = (
{
horizontal = 1;
place = (0,69);
type = Stem;
},
{
horizontal = 1;
place = (319,68);
type = Stem;
},
{
horizontal = 1;
place = (631,69);
type = Stem;
},
{
horizontal = 1;
place = (756,56);
type = Stem;
},
{
place = (154,49);
type = Stem;
},
{
place = (407,49);
type = Stem;
},
{
horizontal = 1;
place = (803,56);
type = Stem;
},
{
place = (74,84);
type = Stem;
}
);
layerId = "E8FC3098-FD3B-4CCD-A487-BB9306939620";
shapes = (
{
ref = E;
},
{
pos = (131,0);
ref = tildecomb.case;
}
);
width = 564;
},
{
background = {
anchors = (
{
name = bottom;
pos = (271,0);
},
{
name = ogonek;
pos = (507,0);
},
{
name = top;
pos = (271,889);
},
{
name = topleft;
pos = (20,700);
}
);
hints = (
{
horizontal = 1;
place = (-17,109);
type = Stem;
},
{
horizontal = 1;
place = (279,105);
type = Stem;
},
{
horizontal = 1;
place = (558,109);
type = Stem;
},
{
place = (47,141);
type = Stem;
},
{
horizontal = 1;
place = (749,94);
type = Stem;
},
{
place = (-90,552);
type = Stem;
},
{
horizontal = 1;
place = (795,94);
type = Stem;
}
);
shapes = (
{
closed = 1;
nodes = (
(507,0,l),
(507,136,l),
(205,136,l),
(205,301,l),
(460,301,l),
(460,437,l),
(205,437,l),
(205,564,l),
(507,564,l),
(507,700,l),
(47,700,l),
(47,0,l)
);
},
{
closed = 1;
nodes = (
(398,749,o),
(448,790,o),
(463,889,c),
(382,889,l),
(378,858,o),
(363,844,o),
(339,844,cs),
(291,844,o),
(266,889,o),
(211,889,cs),
(143,889,o),
(95,846,o),
(79,750,c),
(160,750,l),
(165,780,o),
(179,795,o),
(203,795,cs),
(250,795,o),
(277,749,o),
(332,749,cs)
);
}
);
};
hints = (
{
horizontal = 1;
place = (-17,109);
type = Stem;
},
{
horizontal = 1;
place = (279,105);
type = Stem;
},
{
horizontal = 1;
place = (558,109);
type = Stem;
},
{
horizontal = 1;
place = (733,78);
type = Stem;
},
{
place = (-175,164);
type = Stem;
},
{
horizontal = 1;
place = (778,78);
type = Stem;
}
);
layerId = "E93BD6B3-FA9D-4EFB-B4A0-6094DEE674CC";
shapes = (
{
ref = E;
},
{
pos = (89,0);
ref = tildecomb.case;
}
);
width = 541;
}
);
note = uni1EBC;
unicode = 7868;
},
{
glyphname = Schwa;
kernRight = D;
lastChange = "2023-05-03 07:58:21 +0000";
layers = (
{
background = {
shapes = (
{
closed = 1;
nodes = (
(444,-12,o),
(504,3,o),
(555,33,cs),
(657,93,o),
(717,204,o),
(717,348,cs),
(717,421,o),
(703,485,o),
(674,540,cs),
(617,648,o),
(512,712,o),
(376,712,cs),
(321,712,o),
(272,702,o),
(227,682,cs),
(138,642,o),
(76,567,o),
(49,474,c),
(190,474,l),
(215,550,o),
(289,596,o),
(378,596,cs),
(415,596,o),
(449,588,o),
(479,571,cs),
(539,538,o),
(578,474,o),
(582,386,c),
(45,386,l),
(42,366,o),
(41,345,o),
(41,326,cs),
(41,255,o),
(55,194,o),
(84,144,cs),
(140,43,o),
(243,-12,o),
(376,-12,cs)
);
},
{
closed = 1;
nodes = (
(335,105,o),
(300,113,o),
(270,129,cs),
(210,160,o),
(174,217,o),
(173,292,c),
(582,292,l),
(579,252,o),
(568,218,o),
(549,191,cs),
(511,135,o),
(447,105,o),
(374,105,cs)
);
}
);
};
hints = (
{
horizontal = 1;
place = (-16,113);
type = Stem;
},
{
horizontal = 1;
place = (288,90);
type = Stem;
},
{
horizontal = 1;
place = (592,112);
type = Stem;
},
{
place = (41,128);
type = Stem;
},
{
place = (582,131);
type = Stem;
}
);
layerId = m01;
shapes = (
{
closed = 1;
nodes = (
(444,-12,o),
(504,3,o),
(555,33,cs),
(657,93,o),
(717,204,o),
(717,348,cs),
(717,421,o),
(703,485,o),
(674,540,cs),
(617,648,o),
(512,712,o),
(376,712,cs),
(321,712,o),
(272,702,o),
(227,682,cs),
(138,642,o),
(76,567,o),
(49,474,c),
(190,474,l),
(215,550,o),
(289,596,o),
(378,596,cs),
(415,596,o),
(449,588,o),
(479,571,cs),
(539,538,o),
(578,474,o),
(582,386,c),
(45,386,l),
(42,366,o),
(41,345,o),
(41,326,cs),
(41,255,o),
(55,194,o),
(84,144,cs),
(140,43,o),
(243,-12,o),
(376,-12,cs)
);
},
{
closed = 1;
nodes = (
(335,105,o),
(300,113,o),
(270,129,cs),
(210,160,o),
(174,217,o),
(173,292,c),
(582,292,l),
(579,252,o),
(568,218,o),
(549,191,cs),
(511,135,o),
(447,105,o),
(374,105,cs)
);
}
);
width = 758;
},
{
background = {
shapes = (
{
closed = 1;
nodes = (
(439,-12,o),
(498,3,o),
(549,33,cs),
(649,93,o),
(708,203,o),
(708,346,cs),
(708,419,o),
(694,483,o),
(666,538,cs),
(610,647,o),
(507,712,o),
(375,712,cs),
(322,712,o),
(273,702,o),
(230,683,cs),
(142,644,o),
(80,572,o),
(52,479,c),
(147,479,l),
(178,578,o),
(267,636,o),
(375,636,cs),
(420,636,o),
(461,626,o),
(497,605,cs),
(569,563,o),
(614,484,o),
(618,375,c),
(50,375,l),
(48,354,o),
(47,334,o),
(47,316,cs),
(47,247,o),
(61,188,o),
(89,139,cs),
(144,42,o),
(245,-12,o),
(372,-12,cs)
);
},
{
closed = 1;
nodes = (
(324,64,o),
(282,74,o),
(246,94,cs),
(174,133,o),
(134,207,o),
(135,303,c),
(618,303,l),
(615,252,o),
(603,209,o),
(581,174,cs),
(537,102,o),
(461,64,o),
(372,64,cs)
);
}
);
};
hints = (
{
horizontal = 1;
place = (-12,76);
type = Stem;
},
{
horizontal = 1;
place = (303,72);
type = Stem;
},
{
horizontal = 1;
place = (636,76);
type = Stem;
},
{
place = (47,88);
type = Stem;
},
{
place = (618,90);
type = Stem;
}
);
layerId = "E8FC3098-FD3B-4CCD-A487-BB9306939620";
shapes = (
{
closed = 1;
nodes = (
(439,-12,o),
(498,3,o),
(549,33,cs),
(649,93,o),
(708,203,o),
(708,346,cs),
(708,419,o),
(694,483,o),
(666,538,cs),
(610,647,o),
(507,712,o),
(375,712,cs),
(322,712,o),
(273,702,o),
(230,683,cs),
(142,644,o),
(80,572,o),
(52,479,c),
(147,479,l),
(178,578,o),
(267,636,o),
(375,636,cs),
(420,636,o),
(461,626,o),
(497,605,cs),
(569,563,o),
(614,484,o),
(618,375,c),
(50,375,l),
(48,354,o),
(47,334,o),
(47,316,cs),
(47,247,o),
(61,188,o),
(89,139,cs),
(144,42,o),
(245,-12,o),
(372,-12,cs)
);
},
{
closed = 1;
nodes = (
(324,64,o),
(282,74,o),
(246,94,cs),
(174,133,o),
(134,207,o),
(135,303,c),
(618,303,l),
(615,252,o),
(603,209,o),
(581,174,cs),
(537,102,o),
(461,64,o),
(372,64,cs)
);
}
);
width = 755;
},
{
background = {
shapes = (
{
closed = 1;
nodes = (
(437,-12,o),
(498,3,o),
(549,33,cs),
(652,93,o),
(713,205,o),
(713,349,cs),
(713,422,o),
(699,486,o),
(669,541,cs),
(612,649,o),
(505,712,o),
(367,712,cs),
(310,712,o),
(261,702,o),
(215,681,cs),
(125,641,o),
(63,564,o),
(37,471,c),
(209,471,l),
(230,531,o),
(294,569,o),
(370,569,cs),
(402,569,o),
(431,563,o),
(457,548,cs),
(509,521,o),
(544,467,o),
(548,393,c),
(32,393,l),
(28,374,o),
(27,352,o),
(27,333,cs),
(27,260,o),
(41,198,o),
(71,147,cs),
(127,44,o),
(232,-12,o),
(369,-12,cs)
);
},
{
closed = 1;
nodes = (
(332,132,o),
(302,139,o),
(276,152,cs),
(224,178,o),
(191,224,o),
(188,285,c),
(548,285,l),
(545,252,o),
(535,224,o),
(518,202,cs),
(484,157,o),
(428,132,o),
(365,132,cs)
);
}
);
};
hints = (
{
horizontal = 1;
place = (-29,128);
type = Stem;
},
{
horizontal = 1;
place = (268,92);
type = Stem;
},
{
horizontal = 1;
place = (553,126);
type = Stem;
},
{
place = (27,145);
type = Stem;
},
{
place = (548,148);
type = Stem;
}
);
layerId = "E93BD6B3-FA9D-4EFB-B4A0-6094DEE674CC";
shapes = (
{
closed = 1;
nodes = (
(437,-12,o),
(498,3,o),
(549,33,cs),
(652,93,o),
(713,205,o),
(713,349,cs),
(713,422,o),
(699,486,o),
(669,541,cs),
(612,649,o),
(505,712,o),
(367,712,cs),
(310,712,o),
(261,702,o),
(215,681,cs),
(125,641,o),
(63,564,o),
(37,471,c),
(209,471,l),
(230,531,o),
(294,569,o),
(370,569,cs),
(402,569,o),
(431,563,o),
(457,548,cs),
(509,521,o),
(544,467,o),
(548,393,c),
(32,393,l),
(28,374,o),
(27,352,o),
(27,333,cs),
(27,260,o),
(41,198,o),
(71,147,cs),
(127,44,o),
(232,-12,o),
(369,-12,cs)
);
},
{
closed = 1;
nodes = (
(332,132,o),
(302,139,o),
(276,152,cs),
(224,178,o),
(191,224,o),
(188,285,c),
(548,285,l),
(545,252,o),
(535,224,o),
(518,202,cs),
(484,157,o),
(428,132,o),
(365,132,cs)
);
}
);
width = 740;
}
);
note = uni018F;
unicode = 399;
},
{
glyphname = F;
lastChange = "2023-05-03 07:58:21 +0000";
layers = (
{
background = {
shapes = (
{
closed = 1;
nodes = (
(192,0,l),
(192,307,l),
(466,307,l),
(466,416,l),
(192,416,l),
(192,591,l),
(505,591,l),
(505,700,l),
(64,700,l),
(64,0,l)
);
}
);
};
hints = (
{
horizontal = 1;
place = (296,97);
type = Stem;
},
{
horizontal = 1;
place = (593,99);
type = Stem;
},
{
place = (64,124);
type = Stem;
}
);
layerId = m01;
shapes = (
{
closed = 1;
nodes = (
(192,0,l),
(192,307,l),
(466,307,l),
(466,416,l),
(192,416,l),
(192,591,l),
(505,591,l),
(505,700,l),
(64,700,l),
(64,0,l)
);
}
);
width = 532;
},
{
background = {
shapes = (
{
closed = 1;
nodes = (
(158,0,l),
(158,327,l),
(449,327,l),
(449,395,l),
(158,395,l),
(158,631,l),
(500,631,l),
(500,700,l),
(74,700,l),
(74,0,l)
);
}
);
};
hints = (
{
horizontal = 1;
place = (317,68);
type = Stem;
},
{
horizontal = 1;
place = (631,69);
type = Stem;
},
{
place = (74,84);
type = Stem;
}
);
layerId = "E8FC3098-FD3B-4CCD-A487-BB9306939620";
shapes = (
{
closed = 1;
nodes = (
(158,0,l),
(158,327,l),
(449,327,l),
(449,395,l),
(158,395,l),
(158,631,l),
(500,631,l),
(500,700,l),
(74,700,l),
(74,0,l)
);
}
);
width = 534;
},
{
background = {
shapes = (
{
closed = 1;
nodes = (
(205,0,l),
(205,294,l),
(467,294,l),
(467,430,l),
(205,430,l),
(205,564,l),
(498,564,l),
(498,700,l),
(47,700,l),
(47,0,l)
);
}
);
};
hints = (
{
horizontal = 1;
place = (272,106);
type = Stem;
},
{
horizontal = 1;
place = (558,109);
type = Stem;
},
{
place = (47,141);
type = Stem;
}
);
layerId = "E93BD6B3-FA9D-4EFB-B4A0-6094DEE674CC";
shapes = (
{
closed = 1;
nodes = (
(205,0,l),
(205,294,l),
(467,294,l),
(467,430,l),
(205,430,l),
(205,564,l),
(498,564,l),
(498,700,l),
(47,700,l),
(47,0,l)
);
}
);
width = 518;
}
);
note = F;
unicode = 70;
},
{
glyphname = G;
kernLeft = C;
kernRight = G;
lastChange = "2023-05-10 00:56:33 +0000";
layers = (
{
anchors = (
{
name = bottom;
pos = (383,0);
},
{
name = top;
pos = (383,700);
}
);
background = {
anchors = (
{
name = bottom;
pos = (383,0);
},
{
name = top;
pos = (383,700);
}
);
shapes = (
{
closed = 1;
nodes = (
(475,-12,o),
(540,25,o),
(585,92,c),
(595,0,l),
(713,0,l),
(713,378,l),
(358,378,l),
(358,270,l),
(581,270,l),
(563,168,o),
(502,102,o),
(382,102,cs),
(253,102,o),
(172,190,o),
(172,345,cs),
(172,500,o),
(251,594,o),
(391,594,cs),
(479,594,o),
(536,555,o),
(557,490,c),
(700,490,l),
(668,629,o),
(555,712,o),
(391,712,cs),
(164,712,o),
(41,552,o),
(41,346,cs),
(41,133,o),
(171,-12,o),
(370,-12,cs)
);
}
);
};
hints = (
{
horizontal = 1;
place = (-16,110);
type = Stem;
},
{
horizontal = 1;
place = (285,92);
type = Stem;
},
{
horizontal = 1;
place = (590,114);
type = Stem;
},
{
place = (41,127);
type = Stem;
},
{
place = (590,119);
type = Stem;
},
{
horizontal = 1;
place = (-4,98);
type = Stem;
}
);
layerId = m01;
shapes = (
{
closed = 1;
nodes = (
(475,-12,o),
(540,25,o),
(585,92,c),
(595,0,l),
(713,0,l),
(713,378,l),
(358,378,l),
(358,270,l),
(581,270,l),
(563,168,o),
(502,102,o),
(382,102,cs),
(253,102,o),
(172,190,o),
(172,345,cs),
(172,500,o),
(251,594,o),
(391,594,cs),
(479,594,o),
(536,555,o),
(557,490,c),
(700,490,l),
(668,629,o),
(555,712,o),
(391,712,cs),
(164,712,o),
(41,552,o),
(41,346,cs),
(41,133,o),
(171,-12,o),
(370,-12,cs)
);
}
);
width = 765;
},
{
anchors = (
{
name = bottom;
pos = (379,0);
},
{
name = top;
pos = (379,700);
}
);
background = {
anchors = (
{
name = bottom;
pos = (379,0);
},
{
name = top;
pos = (379,700);
}
);
shapes = (
{
closed = 1;
nodes = (
(496,-12,o),
(563,34,o),
(614,115,c),
(621,0,l),
(698,0,l),
(698,374,l),
(360,374,l),
(360,308,l),
(612,308,l),
(601,156,o),
(527,63,o),
(378,63,cs),
(223,63,o),
(133,184,o),
(133,349,cs),
(133,510,o),
(220,635,o),
(387,635,cs),
(496,635,o),
(569,582,o),
(588,498,c),
(685,498,l),
(654,631,o),
(544,712,o),
(387,712,cs),
(171,712,o),
(47,556,o),
(47,349,cs),
(47,138,o),
(175,-12,o),
(375,-12,cs)
);
}
);
};
hints = (
{
horizontal = 1;
place = (-12,75);
type = Stem;
},
{
horizontal = 1;
place = (308,66);
type = Stem;
},
{
horizontal = 1;
place = (635,77);
type = Stem;
},
{
place = (47,86);
type = Stem;
},
{
place = (612,86);
type = Stem;
},
{
place = (617.5,80.5);
type = Stem;
}
);
layerId = "E8FC3098-FD3B-4CCD-A487-BB9306939620";
shapes = (
{
closed = 1;
nodes = (
(496,-12,o),
(563,34,o),
(614,115,c),
(621,0,l),
(698,0,l),
(698,374,l),
(360,374,l),
(360,308,l),
(612,308,l),
(601,156,o),
(527,63,o),
(378,63,cs),
(223,63,o),
(133,184,o),
(133,349,cs),
(133,510,o),
(220,635,o),
(387,635,cs),
(496,635,o),
(569,582,o),
(588,498,c),
(685,498,l),
(654,631,o),
(544,712,o),
(387,712,cs),
(171,712,o),
(47,556,o),
(47,349,cs),
(47,138,o),
(175,-12,o),
(375,-12,cs)
);
}
);
width = 757;
},
{
anchors = (
{
name = bottom;
pos = (375,0);
},
{
name = top;
pos = (375,700);
}
);
background = {
anchors = (
{
name = bottom;
pos = (375,0);
},
{
name = top;
pos = (375,700);
}
);
shapes = (
{
closed = 1;
nodes = (
(451,-12,o),
(515,19,o),
(556,77,c),
(568,0,l),
(713,0,l),
(713,381,l),
(347,381,l),
(347,245,l),
(550,245,l),
(528,176,o),
(475,128,o),
(375,128,cs),
(270,128,o),
(188,201,o),
(188,342,cs),
(188,486,o),
(270,567,o),
(384,567,cs),
(458,567,o),
(504,537,o),
(526,485,c),
(700,485,l),
(667,628,o),
(552,712,o),
(384,712,cs),
(149,712,o),
(27,549,o),
(27,344,cs),
(27,130,o),
(158,-12,o),
(357,-12,cs)
);
}
);
};
hints = (
{
horizontal = 1;
place = (-448,120);
type = Stem;
},
{
horizontal = 1;
place = (260,99);
type = Stem;
},
{
horizontal = 1;
place = (550,129);
type = Stem;
},
{
place = (27,144);
type = Stem;
},
{
place = (565,131);
type = Stem;
},
{
horizontal = 1;
place = (-9,103);
type = Stem;
}
);
layerId = "E93BD6B3-FA9D-4EFB-B4A0-6094DEE674CC";
shapes = (
{
closed = 1;
nodes = (
(451,-12,o),
(515,19,o),
(556,77,c),
(568,0,l),
(713,0,l),
(713,381,l),
(347,381,l),
(347,245,l),
(550,245,l),
(528,176,o),
(475,128,o),
(375,128,cs),
(270,128,o),
(188,201,o),
(188,342,cs),
(188,486,o),
(270,567,o),
(384,567,cs),
(458,567,o),
(504,537,o),
(526,485,c),
(700,485,l),
(667,628,o),
(552,712,o),
(384,712,cs),
(149,712,o),
(27,549,o),
(27,344,cs),
(27,130,o),
(158,-12,o),
(357,-12,cs)
);
}
);
width = 750;
}
);
note = G;
unicode = 71;
},
{
glyphname = Gbreve;
kernLeft = C;
kernRight = G;
lastChange = "2023-05-03 07:58:28 +0000";
layers = (
{
background = {
anchors = (
{
name = bottom;
pos = (383,0);
},
{
name = top;
pos = (383,917);
}
);
hints = (
{
horizontal = 1;
place = (-16,110);
type = Stem;
},
{
horizontal = 1;
place = (285,92);
type = Stem;
},
{
horizontal = 1;
place = (590,114);
type = Stem;
},
{
place = (41,127);
type = Stem;
},
{
place = (590,119);
type = Stem;
},
{
horizontal = 1;
place = (-4,98);
type = Stem;
},
{
horizontal = 1;
place = (749,96);
type = Stem;
},
{
place = (227,68);
type = Stem;
},
{
place = (470,68);
type = Stem;
}
);
shapes = (
{
closed = 1;
nodes = (
(475,-12,o),
(540,25,o),
(585,92,c),
(595,0,l),
(713,0,l),
(713,378,l),
(358,378,l),
(358,270,l),
(581,270,l),
(563,168,o),
(502,102,o),
(382,102,cs),
(253,102,o),
(172,190,o),
(172,345,cs),
(172,500,o),
(251,594,o),
(391,594,cs),
(479,594,o),
(536,555,o),
(557,490,c),
(700,490,l),
(668,629,o),
(555,712,o),
(391,712,cs),
(164,712,o),
(41,552,o),
(41,346,cs),
(41,133,o),
(171,-12,o),
(370,-12,cs)
);
},
{
closed = 1;
nodes = (
(478,749,o),
(538,808,o),
(538,900,cs),
(538,917,l),
(470,917,l),
(470,872,o),
(447,845,o),
(382,845,cs),
(318,845,o),
(295,872,o),
(295,917,c),
(227,917,l),
(227,901,ls),
(227,808,o),
(286,749,o),
(382,749,cs)
);
}
);
};
hints = (
{
horizontal = 1;
place = (-16,110);
type = Stem;
},
{
horizontal = 1;
place = (285,92);
type = Stem;
},
{
horizontal = 1;
place = (590,114);
type = Stem;
},
{
horizontal = 1;
place = (745,92);
type = Stem;
},
{
place = (41,127);
type = Stem;
},
{
place = (235,64);
type = Stem;
},
{
place = (478,64);
type = Stem;
},
{
place = (590,119);
type = Stem;
},
{
horizontal = 1;
place = (-4,98);
type = Stem;
}
);
layerId = m01;
shapes = (
{
ref = G;
},
{
pos = (227,0);
ref = brevecomb.case;
}
);
width = 765;
},
{
background = {
anchors = (
{
name = bottom;
pos = (379,0);
},
{
name = top;
pos = (379,901);
}
);
hints = (
{
horizontal = 1;
place = (-12,75);
type = Stem;
},
{
horizontal = 1;
place = (308,66);
type = Stem;
},
{
horizontal = 1;
place = (635,77);
type = Stem;
},
{
place = (47,86);
type = Stem;
},
{
place = (612,86);
type = Stem;
},
{
place = (617.5,80.5);
type = Stem;
},
{
horizontal = 1;
place = (757,66);
type = Stem;
},
{
place = (238,50);
type = Stem;
},
{
place = (468,51);
type = Stem;
}
);
shapes = (
{
closed = 1;
nodes = (
(496,-12,o),
(563,34,o),
(614,115,c),
(621,0,l),
(698,0,l),
(698,374,l),
(360,374,l),
(360,308,l),
(612,308,l),
(601,156,o),
(527,63,o),
(378,63,cs),
(223,63,o),
(133,184,o),
(133,349,cs),
(133,510,o),
(220,635,o),
(387,635,cs),
(496,635,o),
(569,582,o),
(588,498,c),
(685,498,l),
(654,631,o),
(544,712,o),
(387,712,cs),
(171,712,o),
(47,556,o),
(47,349,cs),
(47,138,o),
(175,-12,o),
(375,-12,cs)
);
},
{
closed = 1;
nodes = (
(469,757,o),
(519,814,o),
(519,887,cs),
(519,901,l),
(468,901,l),
(468,852,o),
(442,823,o),
(378,823,cs),
(314,823,o),
(288,852,o),
(288,901,c),
(238,901,l),
(238,887,ls),
(238,814,o),
(286,757,o),
(378,757,cs)
);
}
);
};
hints = (
{
horizontal = 1;
place = (-12,75);
type = Stem;
},
{
horizontal = 1;
place = (308,66);
type = Stem;
},
{
horizontal = 1;
place = (635,77);
type = Stem;
},
{
horizontal = 1;
place = (757,66);
type = Stem;
},
{
place = (47,86);
type = Stem;
},
{
place = (247,50);
type = Stem;
},
{
place = (477,51);
type = Stem;
},
{
place = (612,86);
type = Stem;
},
{
place = (617.5,80.5);
type = Stem;
}
);
layerId = "E8FC3098-FD3B-4CCD-A487-BB9306939620";
shapes = (
{
ref = G;
},
{
pos = (238,0);
ref = brevecomb.case;
}
);
width = 757;
},
{
background = {
anchors = (
{
name = bottom;
pos = (375,0);
},
{
name = top;
pos = (375,928);
}
);
hints = (
{
horizontal = 1;
place = (-448,120);
type = Stem;
},
{
horizontal = 1;
place = (260,99);
type = Stem;
},
{
horizontal = 1;
place = (550,129);
type = Stem;
},
{
place = (27,144);
type = Stem;
},
{
place = (565,131);
type = Stem;
},
{
horizontal = 1;
place = (-9,103);
type = Stem;
},
{
horizontal = 1;
place = (744,116);
type = Stem;
},
{
place = (209,80);
type = Stem;
},
{
place = (461,79);
type = Stem;
}
);
shapes = (
{
closed = 1;
nodes = (
(451,-12,o),
(515,19,o),
(556,77,c),
(568,0,l),
(713,0,l),
(713,381,l),
(347,381,l),
(347,245,l),
(550,245,l),
(528,176,o),
(475,128,o),
(375,128,cs),
(270,128,o),
(188,201,o),
(188,342,cs),
(188,486,o),
(270,567,o),
(384,567,cs),
(458,567,o),
(504,537,o),
(526,485,c),
(700,485,l),
(667,628,o),
(552,712,o),
(384,712,cs),
(149,712,o),
(27,549,o),
(27,344,cs),
(27,130,o),
(158,-12,o),
(357,-12,cs)
);
},
{
closed = 1;
nodes = (
(473,746,o),
(540,804,o),
(540,909,cs),
(540,928,l),
(461,928,l),
(461,885,o),
(440,860,o),
(374,860,cs),
(310,860,o),
(289,885,o),
(289,928,c),
(209,928,l),
(209,910,ls),
(209,804,o),
(275,746,o),
(374,746,cs)
);
}
);
};
hints = (
{
horizontal = 1;
place = (-448,120);
type = Stem;
},
{
horizontal = 1;
place = (260,99);
type = Stem;
},
{
horizontal = 1;
place = (550,129);
type = Stem;
},
{
horizontal = 1;
place = (727,99);
type = Stem;
},
{
place = (27,144);
type = Stem;
},
{
place = (217,63);
type = Stem;
},
{
place = (469,63);
type = Stem;
},
{
place = (565,131);
type = Stem;
},
{
horizontal = 1;
place = (-9,103);
type = Stem;
}
);
layerId = "E93BD6B3-FA9D-4EFB-B4A0-6094DEE674CC";
shapes = (
{
ref = G;
},
{
pos = (209,0);
ref = brevecomb.case;
}
);
width = 750;
}
);
note = Gbreve;
unicode = 286;
},
{
glyphname = Gcommaaccent;
kernLeft = C;
kernRight = G;
lastChange = "2023-05-03 07:58:28 +0000";
layers = (
{
background = {
anchors = (
{
name = bottom;
pos = (383,-274);
},
{
name = top;
pos = (383,700);
}
);
hints = (
{
horizontal = 1;
place = (-16,110);
type = Stem;
},
{
horizontal = 1;
place = (285,92);
type = Stem;
},
{
horizontal = 1;
place = (590,114);
type = Stem;
},
{
place = (41,127);
type = Stem;
},
{
place = (590,119);
type = Stem;
},
{
horizontal = 1;
place = (-4,98);
type = Stem;
},
{
horizontal = 1;
place = (-294,32);
type = Stem;
},
{
horizontal = 1;
place = (-165,80);
type = Stem;
},
{
horizontal = 1;
place = (380,88);
type = Stem;
},
{
place = (366,108);
type = Stem;
},
{
place = (616,49);
type = Stem;
},
{
place = (724,108);
type = Stem;
},
{
place = (366,98);
type = Stem;
},
{
horizontal = 1;
place = (380,76);
type = Stem;
},
{
place = (561,104);
type = Stem;
}
);
shapes = (
{
closed = 1;
nodes = (
(475,-12,o),
(540,25,o),
(585,92,c),
(595,0,l),
(713,0,l),
(713,378,l),
(358,378,l),
(358,270,l),
(581,270,l),
(563,168,o),
(502,102,o),
(382,102,cs),
(253,102,o),
(172,190,o),
(172,345,cs),
(172,500,o),
(251,594,o),
(391,594,cs),
(479,594,o),
(536,555,o),
(557,490,c),
(700,490,l),
(668,629,o),
(555,712,o),
(391,712,cs),
(164,712,o),
(41,552,o),
(41,346,cs),
(41,133,o),
(171,-12,o),
(370,-12,cs)
);
},
{
closed = 1;
nodes = (
(405,-274,o),
(445,-226,o),
(445,-141,cs),
(445,-113,o),
(441,-80,o),
(430,-45,c),
(321,-45,l),
(321,-145,l),
(376,-145,l),
(376,-160,ls),
(376,-201,o),
(359,-222,o),
(326,-222,c),
(326,-274,l)
);
}
);
};
hints = (
{
horizontal = 1;
place = (-278,48);
type = Stem;
},
{
horizontal = 1;
place = (-149,96);
type = Stem;
},
{
horizontal = 1;
place = (-16,110);
type = Stem;
},
{
horizontal = 1;
place = (285,92);
type = Stem;
},
{
horizontal = 1;
place = (590,114);
type = Stem;
},
{
place = (41,127);
type = Stem;
},
{
place = (381,65);
type = Stem;
},
{
place = (590,119);
type = Stem;
},
{
horizontal = 1;
place = (-4,98);
type = Stem;
},
{
place = (327,119);
type = Stem;
}
);
layerId = m01;
shapes = (
{
ref = G;
},
{
pos = (321,0);
ref = commaaccentcomb;
}
);
width = 765;
},
{
background = {
anchors = (
{
name = bottom;
pos = (379,-238);
},
{
name = top;
pos = (379,700);
}
);
hints = (
{
horizontal = 1;
place = (-12,75);
type = Stem;
},
{
horizontal = 1;
place = (308,66);
type = Stem;
},
{
horizontal = 1;
place = (635,77);
type = Stem;
},
{
place = (47,86);
type = Stem;
},
{
place = (612,86);
type = Stem;
},
{
place = (617.5,80.5);
type = Stem;
},
{
horizontal = 1;
place = (-238,40);
type = Stem;
},
{
horizontal = 1;
place = (-127,77);
type = Stem;
},
{
horizontal = 1;
place = (436,72);
type = Stem;
},
{
place = (399,84);
type = Stem;
},
{
place = (634,50);
type = Stem;
},
{
place = (760,84);
type = Stem;
},
{
place = (399,78.5);
type = Stem;
}
);
shapes = (
{
closed = 1;
nodes = (
(496,-12,o),
(563,34,o),
(614,115,c),
(621,0,l),
(698,0,l),
(698,374,l),
(360,374,l),
(360,308,l),
(612,308,l),
(601,156,o),
(527,63,o),
(378,63,cs),
(223,63,o),
(133,184,o),
(133,349,cs),
(133,510,o),
(220,635,o),
(387,635,cs),
(496,635,o),
(569,582,o),
(588,498,c),
(685,498,l),
(654,631,o),
(544,712,o),
(387,712,cs),
(171,712,o),
(47,556,o),
(47,349,cs),
(47,138,o),
(175,-12,o),
(375,-12,cs)
);
},
{
closed = 1;
nodes = (
(393,-238,o),
(427,-204,o),
(427,-124,cs),
(427,-102,o),
(424,-77,o),
(418,-50,c),
(332,-50,l),
(332,-127,l),
(377,-127,l),
(377,-141,ls),
(377,-179,o),
(361,-198,o),
(330,-198,c),
(330,-238,l)
);
}
);
};
hints = (
{
horizontal = 1;
place = (-238,40);
type = Stem;
},
{
horizontal = 1;
place = (-127,77);
type = Stem;
},
{
horizontal = 1;
place = (-12,75);
type = Stem;
},
{
horizontal = 1;
place = (308,66);
type = Stem;
},
{
horizontal = 1;
place = (635,77);
type = Stem;
},
{
place = (47,86);
type = Stem;
},
{
place = (393,50);
type = Stem;
},
{
place = (612,86);
type = Stem;
},
{
place = (617.5,80.5);
type = Stem;
}
);
layerId = "E8FC3098-FD3B-4CCD-A487-BB9306939620";
shapes = (
{
ref = G;
},
{
pos = (330,0);
ref = commaaccentcomb;
}
);
width = 757;
},
{
background = {
anchors = (
{
name = bottom;
pos = (375,-298);
},
{
name = top;
pos = (375,700);
}
);
hints = (
{
horizontal = 1;
place = (-448,120);
type = Stem;
},
{
horizontal = 1;
place = (260,99);
type = Stem;
},
{
horizontal = 1;
place = (550,129);
type = Stem;
},
{
place = (27,144);
type = Stem;
},
{
place = (565,131);
type = Stem;
},
{
horizontal = 1;
place = (-9,103);
type = Stem;
},
{
horizontal = 1;
place = (-777,-3);
type = Stem;
},
{
horizontal = 1;
place = (-116,107);
type = Stem;
},
{
horizontal = 1;
place = (343,99);
type = Stem;
},
{
place = (378,180);
type = Stem;
},
{
place = (749,26);
type = Stem;
},
{
place = (772,147);
type = Stem;
},
{
place = (378,163);
type = Stem;
},
{
horizontal = 1;
place = (718,75);
type = Stem;
},
{
place = (657,121);
type = Stem;
}
);
shapes = (
{
closed = 1;
nodes = (
(451,-12,o),
(515,19,o),
(556,77,c),
(568,0,l),
(713,0,l),
(713,381,l),
(347,381,l),
(347,245,l),
(550,245,l),
(528,176,o),
(475,128,o),
(375,128,cs),
(270,128,o),
(188,201,o),
(188,342,cs),
(188,486,o),
(270,567,o),
(384,567,cs),
(458,567,o),
(504,537,o),
(526,485,c),
(700,485,l),
(667,628,o),
(552,712,o),
(384,712,cs),
(149,712,o),
(27,549,o),
(27,344,cs),
(27,130,o),
(158,-12,o),
(357,-12,cs)
);
},
{
closed = 1;
nodes = (
(402,-298,o),
(446,-241,o),
(446,-152,cs),
(446,-120,o),
(442,-82,o),
(427,-42,c),
(303,-42,l),
(303,-157,l),
(365,-157,l),
(365,-173,ls),
(365,-216,o),
(347,-238,o),
(313,-238,c),
(313,-298,l)
);
}
);
};
hints = (
{
horizontal = 1;
place = (-885,16);
type = Stem;
},
{
horizontal = 1;
place = (-100,123);
type = Stem;
},
{
horizontal = 1;
place = (48,122);
type = Stem;
},
{
horizontal = 1;
place = (260,99);
type = Stem;
},
{
horizontal = 1;
place = (550,129);
type = Stem;
},
{
place = (58,202);
type = Stem;
},
{
place = (363,65);
type = Stem;
},
{
place = (565,131);
type = Stem;
},
{
horizontal = 1;
place = (-9,103);
type = Stem;
},
{
place = (504,131);
type = Stem;
}
);
layerId = "E93BD6B3-FA9D-4EFB-B4A0-6094DEE674CC";
shapes = (
{
ref = G;
},
{
pos = (303,0);
ref = commaaccentcomb;
}
);
width = 750;
}
);
note = uni0122;
unicode = 290;
},
{
glyphname = Gdotaccent;
kernLeft = C;
kernRight = G;
lastChange = "2023-05-03 07:58:28 +0000";
layers = (
{
background = {
anchors = (
{
name = bottom;
pos = (383,0);
},
{
name = top;
pos = (383,934);
}
);
hints = (
{
horizontal = 1;
place = (-16,110);
type = Stem;
},
{
horizontal = 1;
place = (285,92);
type = Stem;
},
{
horizontal = 1;
place = (590,114);
type = Stem;
},
{
place = (41,127);
type = Stem;
},
{
place = (590,119);
type = Stem;
},
{
horizontal = 1;
place = (-4,98);
type = Stem;
},
{
horizontal = 1;
place = (764,124);
type = Stem;
},
{
place = (300,124);
type = Stem;
}
);
shapes = (
{
closed = 1;
nodes = (
(475,-12,o),
(540,25,o),
(585,92,c),
(595,0,l),
(713,0,l),
(713,378,l),
(358,378,l),
(358,270,l),
(581,270,l),
(563,168,o),
(502,102,o),
(382,102,cs),
(253,102,o),
(172,190,o),
(172,345,cs),
(172,500,o),
(251,594,o),
(391,594,cs),
(479,594,o),
(536,555,o),
(557,490,c),
(700,490,l),
(668,629,o),
(555,712,o),
(391,712,cs),
(164,712,o),
(41,552,o),
(41,346,cs),
(41,133,o),
(171,-12,o),
(370,-12,cs)
);
},
{
closed = 1;
nodes = (
(430,768,o),
(466,804,o),
(466,851,cs),
(466,898,o),
(430,934,o),
(383,934,cs),
(336,934,o),
(300,898,o),
(300,851,cs),
(300,804,o),
(336,768,o),
(383,768,cs)
);
}
);
};
hints = (
{
horizontal = 1;
place = (-16,110);
type = Stem;
},
{
horizontal = 1;
place = (285,92);
type = Stem;
},
{
horizontal = 1;
place = (590,114);
type = Stem;
},
{
horizontal = 1;
place = (760,120);
type = Stem;
},
{
place = (41,127);
type = Stem;
},
{
place = (328,120);
type = Stem;
},
{
place = (590,119);
type = Stem;
},
{
horizontal = 1;
place = (-4,98);
type = Stem;
}
);
layerId = m01;
shapes = (
{
ref = G;
},
{
pos = (300,0);
ref = dotaccentcomb.case;
}
);
width = 765;
},
{
background = {
anchors = (
{
name = bottom;
pos = (379,0);
},
{
name = top;
pos = (379,889);
}
);
hints = (
{
horizontal = 1;
place = (-12,75);
type = Stem;
},
{
horizontal = 1;
place = (308,66);
type = Stem;
},
{
horizontal = 1;
place = (635,77);
type = Stem;
},
{
place = (47,86);
type = Stem;
},
{
place = (612,86);
type = Stem;
},
{
place = (617.5,80.5);
type = Stem;
},
{
horizontal = 1;
place = (766,100);
type = Stem;
},
{
place = (321,100);
type = Stem;
}
);
shapes = (
{
closed = 1;
nodes = (
(496,-12,o),
(563,34,o),
(614,115,c),
(621,0,l),
(698,0,l),
(698,374,l),
(360,374,l),
(360,308,l),
(612,308,l),
(601,156,o),
(527,63,o),
(378,63,cs),
(223,63,o),
(133,184,o),
(133,349,cs),
(133,510,o),
(220,635,o),
(387,635,cs),
(496,635,o),
(569,582,o),
(588,498,c),
(685,498,l),
(654,631,o),
(544,712,o),
(387,712,cs),
(171,712,o),
(47,556,o),
(47,349,cs),
(47,138,o),
(175,-12,o),
(375,-12,cs)
);
},
{
closed = 1;
nodes = (
(411,775,o),
(437,800,o),
(437,833,cs),
(437,865,o),
(411,889,o),
(379,889,cs),
(346,889,o),
(321,865,o),
(321,833,cs),
(321,800,o),
(346,775,o),
(379,775,cs)
);
}
);
};
hints = (
{
horizontal = 1;
place = (-12,75);
type = Stem;
},
{
horizontal = 1;
place = (308,66);
type = Stem;
},
{
horizontal = 1;
place = (635,77);
type = Stem;
},
{
horizontal = 1;
place = (766,100);
type = Stem;
},
{
place = (47,86);
type = Stem;
},
{
place = (337,100);
type = Stem;
},
{
place = (612,86);
type = Stem;
},
{
place = (617.5,80.5);
type = Stem;
}
);
layerId = "E8FC3098-FD3B-4CCD-A487-BB9306939620";
shapes = (
{
ref = G;
},
{
pos = (321,0);
ref = dotaccentcomb.case;
}
);
width = 757;
},
{
background = {
anchors = (
{
name = bottom;
pos = (375,0);
},
{
name = top;
pos = (377,949);
}
);
hints = (
{
horizontal = 1;
place = (-448,120);
type = Stem;
},
{
horizontal = 1;
place = (260,99);
type = Stem;
},
{
horizontal = 1;
place = (550,129);
type = Stem;
},
{
place = (27,144);
type = Stem;
},
{
place = (565,131);
type = Stem;
},
{
horizontal = 1;
place = (-9,103);
type = Stem;
},
{
horizontal = 1;
place = (763,140);
type = Stem;
},
{
place = (281,140);
type = Stem;
}
);
shapes = (
{
closed = 1;
nodes = (
(451,-12,o),
(515,19,o),
(556,77,c),
(568,0,l),
(713,0,l),
(713,381,l),
(347,381,l),
(347,245,l),
(550,245,l),
(528,176,o),
(475,128,o),
(375,128,cs),
(270,128,o),
(188,201,o),
(188,342,cs),
(188,486,o),
(270,567,o),
(384,567,cs),
(458,567,o),
(504,537,o),
(526,485,c),
(700,485,l),
(667,628,o),
(552,712,o),
(384,712,cs),
(149,712,o),
(27,549,o),
(27,344,cs),
(27,130,o),
(158,-12,o),
(357,-12,cs)
);
},
{
closed = 1;
nodes = (
(430,759,o),
(472,800,o),
(472,854,cs),
(472,908,o),
(430,949,o),
(375,949,cs),
(325,949,o),
(281,908,o),
(281,854,cs),
(281,800,o),
(325,759,o),
(375,759,cs)
);
}
);
};
hints = (
{
horizontal = 1;
place = (-448,120);
type = Stem;
},
{
horizontal = 1;
place = (260,99);
type = Stem;
},
{
horizontal = 1;
place = (550,129);
type = Stem;
},
{
horizontal = 1;
place = (746,123);
type = Stem;
},
{
place = (27,144);
type = Stem;
},
{
place = (312,123);
type = Stem;
},
{
place = (565,131);
type = Stem;
},
{
horizontal = 1;
place = (-9,103);
type = Stem;
}
);
layerId = "E93BD6B3-FA9D-4EFB-B4A0-6094DEE674CC";
shapes = (
{
ref = G;
},
{
pos = (281,0);
ref = dotaccentcomb.case;
}
);
width = 750;
}
);
note = Gdotaccent;
unicode = 288;
},
{
glyphname = H;
lastChange = "2023-05-03 07:58:21 +0000";
layers = (
{
background = {
shapes = (
{
closed = 1;
nodes = (
(192,0,l),
(192,316,l),
(506,316,l),
(506,0,l),
(634,0,l),
(634,700,l),
(506,700,l),
(506,425,l),
(192,425,l),
(192,700,l),
(64,700,l),
(64,0,l)
);
}
);
};
hints = (
{
horizontal = 1;
place = (301,100);
type = Stem;
},
{
place = (64,124);
type = Stem;
},
{
place = (506,124);
type = Stem;
}
);
layerId = m01;
shapes = (
{
closed = 1;
nodes = (
(192,0,l),
(192,316,l),
(506,316,l),
(506,0,l),
(634,0,l),
(634,700,l),
(506,700,l),
(506,425,l),
(192,425,l),
(192,700,l),
(64,700,l),
(64,0,l)
);
}
);
width = 698;
},
{
background = {
shapes = (
{
closed = 1;
nodes = (
(158,0,l),
(158,336,l),
(521,336,l),
(521,0,l),
(605,0,l),
(605,700,l),
(521,700,l),
(521,405,l),
(158,405,l),
(158,700,l),
(74,700,l),
(74,0,l)
);
}
);
};
hints = (
{
horizontal = 1;
place = (322,69);
type = Stem;
},
{
place = (74,84);
type = Stem;
},
{
place = (521,84);
type = Stem;
}
);
layerId = "E8FC3098-FD3B-4CCD-A487-BB9306939620";
shapes = (
{
closed = 1;
nodes = (
(158,0,l),
(158,336,l),
(521,336,l),
(521,0,l),
(605,0,l),
(605,700,l),
(521,700,l),
(521,405,l),
(158,405,l),
(158,700,l),
(74,700,l),
(74,0,l)
);
}
);
width = 679;
},
{
background = {
shapes = (
{
closed = 1;
nodes = (
(205,0,l),
(205,302,l),
(486,302,l),
(486,0,l),
(643,0,l),
(643,700,l),
(486,700,l),
(486,438,l),
(205,438,l),
(205,700,l),
(47,700,l),
(47,0,l)
);
}
);
};
hints = (
{
horizontal = 1;
place = (277,111);
type = Stem;
},
{
place = (47,141);
type = Stem;
},
{
place = (486,141);
type = Stem;
}
);
layerId = "E93BD6B3-FA9D-4EFB-B4A0-6094DEE674CC";
shapes = (
{
closed = 1;
nodes = (
(205,0,l),
(205,302,l),
(486,302,l),
(486,0,l),
(643,0,l),
(643,700,l),
(486,700,l),
(486,438,l),
(205,438,l),
(205,700,l),
(47,700,l),
(47,0,l)
);
}
);
width = 690;
}
);
note = H;
unicode = 72;
},
{
glyphname = Hbar;
lastChange = "2023-05-03 07:58:21 +0000";
layers = (
{
background = {
shapes = (
{
closed = 1;
nodes = (
(158,0,l),
(158,336,l),
(521,336,l),
(521,0,l),
(605,0,l),
(605,513,l),
(655,513,l),
(655,582,l),
(605,582,l),
(605,700,l),
(521,700,l),
(521,582,l),
(158,582,l),
(158,700,l),
(74,700,l),
(74,582,l),
(24,582,l),
(24,513,l),
(74,513,l),
(74,0,l)
);
},
{
closed = 1;
nodes = (
(158,513,l),
(521,513,l),
(521,405,l),
(158,405,l)
);
}
);
};
layerId = "E8FC3098-FD3B-4CCD-A487-BB9306939620";
shapes = (
{
closed = 1;
nodes = (
(158,0,l),
(158,336,l),
(521,336,l),
(521,0,l),
(605,0,l),
(605,513,l),
(655,513,l),
(655,582,l),
(605,582,l),
(605,700,l),
(521,700,l),
(521,582,l),
(158,582,l),
(158,700,l),
(74,700,l),
(74,582,l),
(24,582,l),
(24,513,l),
(74,513,l),
(74,0,l)
);
},
{
closed = 1;
nodes = (
(158,513,l),
(521,513,l),
(521,405,l),
(158,405,l)
);
}
);
width = 679;
},
{
background = {
shapes = (
{
closed = 1;
nodes = (
(193,0,l),
(193,316,l),
(507,316,l),
(507,0,l),
(635,0,l),
(635,493,l),
(675,493,l),
(675,602,l),
(635,602,l),
(635,700,l),
(507,700,l),
(507,602,l),
(193,602,l),
(193,700,l),
(65,700,l),
(65,602,l),
(24,602,l),
(24,493,l),
(65,493,l),
(65,0,l)
);
},
{
closed = 1;
nodes = (
(193,493,l),
(507,493,l),
(507,425,l),
(193,425,l)
);
}
);
};
layerId = m01;
shapes = (
{
closed = 1;
nodes = (
(193,0,l),
(193,316,l),
(507,316,l),
(507,0,l),
(635,0,l),
(635,493,l),
(675,493,l),
(675,602,l),
(635,602,l),
(635,700,l),
(507,700,l),
(507,602,l),
(193,602,l),
(193,700,l),
(65,700,l),
(65,602,l),
(24,602,l),
(24,493,l),
(65,493,l),
(65,0,l)
);
},
{
closed = 1;
nodes = (
(193,493,l),
(507,493,l),
(507,425,l),
(193,425,l)
);
}
);
width = 699;
},
{
background = {
shapes = (
{
closed = 1;
nodes = (
(206,0,l),
(206,302,l),
(487,302,l),
(487,0,l),
(644,0,l),
(644,479,l),
(681,479,l),
(681,616,l),
(644,616,l),
(644,700,l),
(487,700,l),
(487,616,l),
(206,616,l),
(206,700,l),
(48,700,l),
(48,616,l),
(10,616,l),
(10,479,l),
(48,479,l),
(48,0,l)
);
},
{
closed = 1;
nodes = (
(206,479,l),
(487,479,l),
(487,438,l),
(206,438,l)
);
}
);
};
layerId = "E93BD6B3-FA9D-4EFB-B4A0-6094DEE674CC";
shapes = (
{
closed = 1;
nodes = (
(206,0,l),
(206,302,l),
(487,302,l),
(487,0,l),
(644,0,l),
(644,479,l),
(681,479,l),
(681,616,l),
(644,616,l),
(644,700,l),
(487,700,l),
(487,616,l),
(206,616,l),
(206,700,l),
(48,700,l),
(48,616,l),
(10,616,l),
(10,479,l),
(48,479,l),
(48,0,l)
);
},
{
closed = 1;
nodes = (
(206,479,l),
(487,479,l),
(487,438,l),
(206,438,l)
);
}
);
width = 691;
}
);
unicode = 294;
},
{
glyphname = I;
lastChange = "2023-05-03 07:58:21 +0000";
layers = (
{
anchors = (
{
name = bottom;
pos = (128,0);
},
{
name = ogonek;
pos = (192,0);
},
{
name = top;
pos = (128,700);
},
{
name = topleft;
pos = (20,700);
}
);
background = {
anchors = (
{
name = bottom;
pos = (128,0);
},
{
name = ogonek;
pos = (192,0);
},
{
name = top;
pos = (128,700);
},
{
name = topleft;
pos = (20,700);
}
);
shapes = (
{
closed = 1;
nodes = (
(192,0,l),
(192,700,l),
(64,700,l),
(64,0,l)
);
}
);
};
hints = (
{
horizontal = 1;
place = (-4,696);
type = Stem;
},
{
place = (64,124);
type = Stem;
}
);
layerId = m01;
shapes = (
{
closed = 1;
nodes = (
(192,0,l),
(192,700,l),
(64,700,l),
(64,0,l)
);
}
);
width = 256;
},
{
anchors = (
{
name = bottom;
pos = (116,0);
},
{
name = ogonek;
pos = (158,0);
},
{
name = top;
pos = (116,700);
},
{
name = topleft;
pos = (20,700);
}
);
background = {
anchors = (
{
name = bottom;
pos = (116,0);
},
{
name = ogonek;
pos = (158,0);
},
{
name = top;
pos = (116,700);
},
{
name = topleft;
pos = (20,700);
}
);
shapes = (
{
closed = 1;
nodes = (
(158,0,l),
(158,700,l),
(74,700,l),
(74,0,l)
);
}
);
};
hints = (
{
horizontal = 1;
place = (0,700);
type = Stem;
},
{
place = (74,84);
type = Stem;
}
);
layerId = "E8FC3098-FD3B-4CCD-A487-BB9306939620";
shapes = (
{
closed = 1;
nodes = (
(158,0,l),
(158,700,l),
(74,700,l),
(74,0,l)
);
}
);
width = 232;
},
{
anchors = (
{
name = bottom;
pos = (127,0);
},
{
name = ogonek;
pos = (206,0);
},
{
name = top;
pos = (127,700);
},
{
name = topleft;
pos = (20,700);
}
);
background = {
anchors = (
{
name = bottom;
pos = (127,0);
},
{
name = ogonek;
pos = (206,0);
},
{
name = top;
pos = (127,700);
},
{
name = topleft;
pos = (20,700);
}
);
shapes = (
{
closed = 1;
nodes = (
(206,0,l),
(206,700,l),
(48,700,l),
(48,0,l)
);
}
);
};
hints = (
{
horizontal = 1;
place = (-17,683);
type = Stem;
},
{
place = (47,141);
type = Stem;
}
);
layerId = "E93BD6B3-FA9D-4EFB-B4A0-6094DEE674CC";
shapes = (
{
closed = 1;
nodes = (
(206,0,l),
(206,700,l),
(48,700,l),
(48,0,l)
);
}
);
width = 254;
}
);
note = I;
unicode = 73;
},
{
glyphname = IJ;
lastChange = "2023-05-03 07:58:28 +0000";
layers = (
{
background = {
anchors = (
{
name = bottom;
pos = (482,0);
},
{
name = ogonek;
pos = (158,0);
},
{
name = top;
pos = (616,700);
},
{
name = topleft;
pos = (20,700);
}
);
hints = (
{
horizontal = 1;
place = (0,700);
type = Stem;
},
{
place = (74,84);
type = Stem;
},
{
horizontal = 1;
place = (-12,75);
type = Stem;
},
{
place = (259,85);
type = Stem;
},
{
place = (573,84);
type = Stem;
}
);
shapes = (
{
closed = 1;
nodes = (
(158,0,l),
(158,700,l),
(74,700,l),
(74,0,l)
);
},
{
closed = 1;
nodes = (
(585,-12,o),
(657,61,o),
(657,185,cs),
(657,700,l),
(573,700,l),
(573,185,ls),
(573,116,o),
(545,63,o),
(461,63,cs),
(374,63,o),
(344,117,o),
(344,188,c),
(259,188,l),
(259,63,o),
(335,-12,o),
(462,-12,cs)
);
}
);
};
layerId = "E8FC3098-FD3B-4CCD-A487-BB9306939620";
shapes = (
{
ref = I;
},
{
pos = (232,0);
ref = J;
}
);
width = 731;
},
{
background = {
anchors = (
{
name = bottom;
pos = (518,0);
},
{
name = ogonek;
pos = (192,0);
},
{
name = top;
pos = (653,700);
},
{
name = topleft;
pos = (20,700);
}
);
hints = (
{
horizontal = 1;
place = (-4,696);
type = Stem;
},
{
place = (64,124);
type = Stem;
},
{
horizontal = 1;
place = (-16,110);
type = Stem;
},
{
place = (278,124);
type = Stem;
},
{
place = (588,124);
type = Stem;
}
);
shapes = (
{
closed = 1;
nodes = (
(192,0,l),
(192,700,l),
(64,700,l),
(64,0,l)
);
},
{
closed = 1;
nodes = (
(634,-12,o),
(716,65,o),
(716,202,cs),
(716,700,l),
(588,700,l),
(588,202,ls),
(588,142,o),
(561,102,o),
(500,102,cs),
(435,102,o),
(407,144,o),
(406,209,c),
(278,209,l),
(278,68,o),
(367,-12,o),
(503,-12,cs)
);
}
);
};
layerId = m01;
shapes = (
{
ref = I;
},
{
pos = (256,0);
ref = J;
}
);
width = 780;
},
{
background = {
anchors = (
{
name = bottom;
pos = (515,0);
},
{
name = ogonek;
pos = (206,0);
},
{
name = top;
pos = (651,700);
},
{
name = topleft;
pos = (20,700);
}
);
hints = (
{
horizontal = 1;
place = (-17,683);
type = Stem;
},
{
place = (47,141);
type = Stem;
},
{
horizontal = 1;
place = (-29,123);
type = Stem;
},
{
place = (263,140);
type = Stem;
},
{
place = (570,141);
type = Stem;
}
);
shapes = (
{
closed = 1;
nodes = (
(206,0,l),
(206,700,l),
(48,700,l),
(48,0,l)
);
},
{
closed = 1;
nodes = (
(639,-12,o),
(727,68,o),
(727,213,cs),
(727,700,l),
(570,700,l),
(570,213,ls),
(570,159,o),
(544,128,o),
(498,128,cs),
(448,128,o),
(421,162,o),
(419,223,c),
(263,223,l),
(263,71,o),
(360,-12,o),
(502,-12,cs)
);
}
);
};
layerId = "E93BD6B3-FA9D-4EFB-B4A0-6094DEE674CC";
shapes = (
{
ref = I;
},
{
pos = (254,0);
ref = J;
}
);
width = 775;
}
);
unicode = 306;
},
{
glyphname = Iacute;
lastChange = "2023-05-03 07:58:28 +0000";
layers = (
{
background = {
anchors = (
{
name = bottom;
pos = (128,0);
},
{
name = ogonek;
pos = (192,0);
},
{
name = top;
pos = (128,952);
},
{
name = topleft;
pos = (20,700);
}
);
hints = (
{
horizontal = 1;
place = (-4,696);
type = Stem;
},
{
place = (64,124);
type = Stem;
},
{
horizontal = 1;
place = (740,212);
type = Stem;
},
{
place = (15,226);
type = Stem;
}
);
shapes = (
{
closed = 1;
nodes = (
(192,0,l),
(192,700,l),
(64,700,l),
(64,0,l)
);
},
{
closed = 1;
nodes = (
(241,848,l),
(241,952,l),
(15,830,l),
(15,740,l)
);
}
);
};
hints = (
{
horizontal = 1;
place = (-4,948);
type = Stem;
},
{
place = (78,110);
type = Stem;
},
{
place = (64,124);
type = Stem;
}
);
layerId = m01;
shapes = (
{
ref = I;
},
{
pos = (15,0);
ref = acutecomb.case;
}
);
width = 256;
},
{
background = {
anchors = (
{
name = bottom;
pos = (116,0);
},
{
name = ogonek;
pos = (158,0);
},
{
name = top;
pos = (116,931);
},
{
name = topleft;
pos = (20,700);
}
);
hints = (
{
horizontal = 1;
place = (0,700);
type = Stem;
},
{
place = (74,84);
type = Stem;
},
{
horizontal = 1;
place = (741,190);
type = Stem;
},
{
place = (11,210);
type = Stem;
}
);
shapes = (
{
closed = 1;
nodes = (
(158,0,l),
(158,700,l),
(74,700,l),
(74,0,l)
);
},
{
closed = 1;
nodes = (
(221,858,l),
(221,931,l),
(11,804,l),
(11,741,l)
);
}
);
};
hints = (
{
horizontal = 1;
place = (0,931);
type = Stem;
},
{
place = (71,87);
type = Stem;
},
{
place = (74,84);
type = Stem;
}
);
layerId = "E8FC3098-FD3B-4CCD-A487-BB9306939620";
shapes = (
{
ref = I;
},
{
pos = (11,0);
ref = acutecomb.case;
}
);
width = 232;
},
{
background = {
anchors = (
{
name = bottom;
pos = (127,0);
},
{
name = ogonek;
pos = (206,0);
},
{
name = top;
pos = (127,966);
},
{
name = topleft;
pos = (20,700);
}
);
hints = (
{
horizontal = 1;
place = (-17,683);
type = Stem;
},
{
place = (47,141);
type = Stem;
},
{
horizontal = 1;
place = (739,227);
type = Stem;
},
{
place = (8,237);
type = Stem;
}
);
shapes = (
{
closed = 1;
nodes = (
(206,0,l),
(206,700,l),
(48,700,l),
(48,0,l)
);
},
{
closed = 1;
nodes = (
(245,841,l),
(245,966,l),
(8,847,l),
(8,739,l)
);
}
);
};
hints = (
{
horizontal = 1;
place = (-17,949);
type = Stem;
},
{
place = (71,117);
type = Stem;
},
{
place = (49,139);
type = Stem;
}
);
layerId = "E93BD6B3-FA9D-4EFB-B4A0-6094DEE674CC";
shapes = (
{
ref = I;
},
{
pos = (8,0);
ref = acutecomb.case;
}
);
width = 254;
}
);
note = Iacute;
unicode = 205;
},
{
glyphname = Ibreve;
lastChange = "2023-05-03 07:58:28 +0000";
layers = (
{
background = {
anchors = (
{
name = bottom;
pos = (128,0);
},
{
name = ogonek;
pos = (192,0);
},
{
name = top;
pos = (128,917);
},
{
name = topleft;
pos = (20,700);
}
);
hints = (
{
horizontal = 1;
place = (-4,696);
type = Stem;
},
{
place = (64,124);
type = Stem;
},
{
horizontal = 1;
place = (749,96);
type = Stem;
},
{
place = (-28,68);
type = Stem;
},
{
place = (215,68);
type = Stem;
}
);
shapes = (
{
closed = 1;
nodes = (
(192,0,l),
(192,700,l),
(64,700,l),
(64,0,l)
);
},
{
closed = 1;
nodes = (
(223,749,o),
(283,808,o),
(283,900,cs),
(283,917,l),
(215,917,l),
(215,872,o),
(192,845,o),
(127,845,cs),
(63,845,o),
(40,872,o),
(40,917,c),
(-28,917,l),
(-28,901,ls),
(-28,808,o),
(31,749,o),
(127,749,cs)
);
}
);
};
hints = (
{
horizontal = 1;
place = (745,92);
type = Stem;
},
{
place = (-27,64);
type = Stem;
},
{
place = (64,124);
type = Stem;
},
{
place = (216,64);
type = Stem;
}
);
layerId = m01;
shapes = (
{
ref = I;
},
{
pos = (-28,0);
ref = brevecomb.case;
}
);
width = 256;
},
{
background = {
anchors = (
{
name = bottom;
pos = (116,0);
},
{
name = ogonek;
pos = (158,0);
},
{
name = top;
pos = (116,901);
},
{
name = topleft;
pos = (20,700);
}
);
hints = (
{
horizontal = 1;
place = (0,700);
type = Stem;
},
{
place = (74,84);
type = Stem;
},
{
horizontal = 1;
place = (757,66);
type = Stem;
},
{
place = (-25,50);
type = Stem;
},
{
place = (205,51);
type = Stem;
}
);
shapes = (
{
closed = 1;
nodes = (
(158,0,l),
(158,700,l),
(74,700,l),
(74,0,l)
);
},
{
closed = 1;
nodes = (
(206,757,o),
(256,814,o),
(256,887,cs),
(256,901,l),
(205,901,l),
(205,852,o),
(179,823,o),
(115,823,cs),
(51,823,o),
(25,852,o),
(25,901,c),
(-25,901,l),
(-25,887,ls),
(-25,814,o),
(23,757,o),
(115,757,cs)
);
}
);
};
hints = (
{
horizontal = 1;
place = (757,66);
type = Stem;
},
{
place = (-24,50);
type = Stem;
},
{
place = (74,84);
type = Stem;
},
{
place = (206,51);
type = Stem;
}
);
layerId = "E8FC3098-FD3B-4CCD-A487-BB9306939620";
shapes = (
{
ref = I;
},
{
pos = (-25,0);
ref = brevecomb.case;
}
);
width = 232;
},
{
background = {
anchors = (
{
name = bottom;
pos = (127,0);
},
{
name = ogonek;
pos = (206,0);
},
{
name = top;
pos = (127,928);
},
{
name = topleft;
pos = (20,700);
}
);
hints = (
{
horizontal = 1;
place = (-17,683);
type = Stem;
},
{
place = (47,141);
type = Stem;
},
{
horizontal = 1;
place = (744,116);
type = Stem;
},
{
place = (-39,80);
type = Stem;
},
{
place = (213,79);
type = Stem;
}
);
shapes = (
{
closed = 1;
nodes = (
(206,0,l),
(206,700,l),
(48,700,l),
(48,0,l)
);
},
{
closed = 1;
nodes = (
(225,746,o),
(292,804,o),
(292,909,cs),
(292,928,l),
(213,928,l),
(213,885,o),
(192,860,o),
(126,860,cs),
(62,860,o),
(41,885,o),
(41,928,c),
(-39,928,l),
(-39,910,ls),
(-39,804,o),
(27,746,o),
(126,746,cs)
);
}
);
};
hints = (
{
horizontal = 1;
place = (727,99);
type = Stem;
},
{
place = (-39,63);
type = Stem;
},
{
place = (47,141);
type = Stem;
},
{
place = (213,63);
type = Stem;
}
);
layerId = "E93BD6B3-FA9D-4EFB-B4A0-6094DEE674CC";
shapes = (
{
ref = I;
},
{
pos = (-39,0);
ref = brevecomb.case;
}
);
width = 254;
}
);
note = Ibreve;
unicode = 300;
},
{
glyphname = Icircumflex;
lastChange = "2023-05-03 07:58:28 +0000";
layers = (
{
background = {
anchors = (
{
name = bottom;
pos = (128,0);
},
{
name = ogonek;
pos = (192,0);
},
{
name = top;
pos = (128,919);
},
{
name = topleft;
pos = (20,700);
}
);
hints = (
{
horizontal = 1;
place = (-4,696);
type = Stem;
},
{
place = (64,124);
type = Stem;
},
{
horizontal = 1;
place = (747,172);
type = Stem;
},
{
place = (-18,292);
type = Stem;
}
);
shapes = (
{
closed = 1;
nodes = (
(192,0,l),
(192,700,l),
(64,700,l),
(64,0,l)
);
},
{
closed = 1;
nodes = (
(128,829,l),
(274,747,l),
(274,839,l),
(128,919,l),
(-18,839,l),
(-18,747,l)
);
}
);
};
hints = (
{
horizontal = 1;
place = (-4,915);
type = Stem;
},
{
place = (64,124);
type = Stem;
}
);
layerId = m01;
shapes = (
{
ref = I;
},
{
pos = (-18,0);
ref = circumflexcomb.case;
}
);
width = 256;
},
{
background = {
anchors = (
{
name = bottom;
pos = (116,0);
},
{
name = ogonek;
pos = (158,0);
},
{
name = top;
pos = (116,902);
},
{
name = topleft;
pos = (20,700);
}
);
hints = (
{
horizontal = 1;
place = (0,700);
type = Stem;
},
{
place = (74,84);
type = Stem;
},
{
horizontal = 1;
place = (755,147);
type = Stem;
},
{
place = (-21,274);
type = Stem;
}
);
shapes = (
{
closed = 1;
nodes = (
(158,0,l),
(158,700,l),
(74,700,l),
(74,0,l)
);
},
{
closed = 1;
nodes = (
(116,839,l),
(253,755,l),
(253,821,l),
(116,902,l),
(-21,821,l),
(-21,755,l)
);
}
);
};
hints = (
{
horizontal = 1;
place = (0,902);
type = Stem;
},
{
place = (-21,179);
type = Stem;
},
{
place = (74,179);
type = Stem;
},
{
place = (74,84);
type = Stem;
}
);
layerId = "E8FC3098-FD3B-4CCD-A487-BB9306939620";
shapes = (
{
ref = I;
},
{
pos = (-21,0);
ref = circumflexcomb.case;
}
);
width = 232;
},
{
background = {
anchors = (
{
name = bottom;
pos = (127,0);
},
{
name = ogonek;
pos = (206,0);
},
{
name = top;
pos = (127,930);
},
{
name = topleft;
pos = (20,700);
}
);
hints = (
{
horizontal = 1;
place = (-17,683);
type = Stem;
},
{
place = (47,141);
type = Stem;
},
{
horizontal = 1;
place = (742,189);
type = Stem;
},
{
place = (-25,304);
type = Stem;
}
);
shapes = (
{
closed = 1;
nodes = (
(206,0,l),
(206,700,l),
(48,700,l),
(48,0,l)
);
},
{
closed = 1;
nodes = (
(127,822,l),
(279,742,l),
(279,851,l),
(127,930,l),
(-25,851,l),
(-25,742,l)
);
}
);
};
hints = (
{
horizontal = 1;
place = (-17,914);
type = Stem;
},
{
place = (47,77);
type = Stem;
}
);
layerId = "E93BD6B3-FA9D-4EFB-B4A0-6094DEE674CC";
shapes = (
{
ref = I;
},
{
pos = (-25,0);
ref = circumflexcomb.case;
}
);
width = 254;
}
);
note = Icircumflex;
unicode = 206;
},
{
glyphname = Idieresis;
lastChange = "2023-05-03 07:58:28 +0000";
layers = (
{
background = {
anchors = (
{
name = bottom;
pos = (128,0);
},
{
name = ogonek;
pos = (192,0);
},
{
name = top;
pos = (128,934);
},
{
name = topleft;
pos = (20,700);
}
);
hints = (
{
horizontal = 1;
place = (-4,696);
type = Stem;
},
{
place = (64,124);
type = Stem;
},
{
horizontal = 1;
place = (768,124);
type = Stem;
},
{
place = (-66,124);
type = Stem;
},
{
place = (114,124);
type = Stem;
}
);
shapes = (
{
closed = 1;
nodes = (
(192,0,l),
(192,700,l),
(64,700,l),
(64,0,l)
);
},
{
closed = 1;
nodes = (
(64,768,o),
(100,804,o),
(100,851,cs),
(100,898,o),
(64,934,o),
(17,934,cs),
(-30,934,o),
(-66,898,o),
(-66,851,cs),
(-66,804,o),
(-30,768,o),
(17,768,cs)
);
},
{
closed = 1;
nodes = (
(286,768,o),
(322,804,o),
(322,851,cs),
(322,898,o),
(286,934,o),
(239,934,cs),
(192,934,o),
(156,898,o),
(156,851,cs),
(156,804,o),
(192,768,o),
(239,768,cs)
);
}
);
};
hints = (
{
horizontal = 1;
place = (764,120);
type = Stem;
},
{
place = (-24,120);
type = Stem;
},
{
place = (156,120);
type = Stem;
},
{
place = (64,124);
type = Stem;
}
);
layerId = m01;
shapes = (
{
ref = I;
},
{
pos = (-66,0);
ref = dieresiscomb.case;
}
);
width = 256;
},
{
background = {
anchors = (
{
name = bottom;
pos = (116,0);
},
{
name = ogonek;
pos = (158,0);
},
{
name = top;
pos = (116,889);
},
{
name = topleft;
pos = (20,700);
}
);
hints = (
{
horizontal = 1;
place = (0,700);
type = Stem;
},
{
place = (74,84);
type = Stem;
},
{
horizontal = 1;
place = (775,100);
type = Stem;
},
{
place = (-31,100);
type = Stem;
},
{
place = (129,99);
type = Stem;
}
);
shapes = (
{
closed = 1;
nodes = (
(158,0,l),
(158,700,l),
(74,700,l),
(74,0,l)
);
},
{
closed = 1;
nodes = (
(59,775,o),
(85,800,o),
(85,833,cs),
(85,865,o),
(59,889,o),
(27,889,cs),
(-6,889,o),
(-31,865,o),
(-31,833,cs),
(-31,800,o),
(-6,775,o),
(27,775,cs)
);
},
{
closed = 1;
nodes = (
(236,775,o),
(262,800,o),
(262,833,cs),
(262,865,o),
(236,889,o),
(204,889,cs),
(171,889,o),
(146,865,o),
(146,833,cs),
(146,800,o),
(171,775,o),
(204,775,cs)
);
}
);
};
hints = (
{
horizontal = 1;
place = (775,100);
type = Stem;
},
{
place = (-13,100);
type = Stem;
},
{
place = (147,99);
type = Stem;
},
{
place = (74,84);
type = Stem;
}
);
layerId = "E8FC3098-FD3B-4CCD-A487-BB9306939620";
shapes = (
{
ref = I;
},
{
pos = (-31,0);
ref = dieresiscomb.case;
}
);
width = 232;
},
{
background = {
anchors = (
{
name = bottom;
pos = (127,0);
},
{
name = ogonek;
pos = (206,0);
},
{
name = top;
pos = (127,949);
},
{
name = topleft;
pos = (20,700);
}
);
hints = (
{
horizontal = 1;
place = (-17,683);
type = Stem;
},
{
place = (47,141);
type = Stem;
},
{
horizontal = 1;
place = (763,140);
type = Stem;
},
{
place = (-87,140);
type = Stem;
},
{
place = (106,141);
type = Stem;
}
);
shapes = (
{
closed = 1;
nodes = (
(206,0,l),
(206,700,l),
(48,700,l),
(48,0,l)
);
},
{
closed = 1;
nodes = (
(63,759,o),
(103,801,o),
(103,854,cs),
(103,909,o),
(63,949,o),
(8,949,cs),
(-46,949,o),
(-87,909,o),
(-87,854,cs),
(-87,801,o),
(-46,759,o),
(8,759,cs)
);
},
{
closed = 1;
nodes = (
(300,759,o),
(341,801,o),
(341,854,cs),
(341,909,o),
(300,949,o),
(246,949,cs),
(192,949,o),
(151,909,o),
(151,854,cs),
(151,801,o),
(192,759,o),
(246,759,cs)
);
}
);
};
hints = (
{
horizontal = 1;
place = (747,123);
type = Stem;
},
{
place = (-41,123);
type = Stem;
},
{
place = (152,124);
type = Stem;
},
{
place = (47,141);
type = Stem;
}
);
layerId = "E93BD6B3-FA9D-4EFB-B4A0-6094DEE674CC";
shapes = (
{
ref = I;
},
{
pos = (-87,0);
ref = dieresiscomb.case;
}
);
width = 254;
}
);
note = Idieresis;
unicode = 207;
},
{
glyphname = Idotaccent;
lastChange = "2023-05-03 07:58:28 +0000";
layers = (
{
background = {
anchors = (
{
name = bottom;
pos = (128,0);
},
{
name = ogonek;
pos = (192,0);
},
{
name = top;
pos = (128,934);
},
{
name = topleft;
pos = (20,700);
}
);
hints = (
{
horizontal = 1;
place = (-4,696);
type = Stem;
},
{
place = (64,124);
type = Stem;
},
{
horizontal = 1;
place = (764,124);
type = Stem;
},
{
place = (45,124);
type = Stem;
}
);
shapes = (
{
closed = 1;
nodes = (
(192,0,l),
(192,700,l),
(64,700,l),
(64,0,l)
);
},
{
closed = 1;
nodes = (
(175,768,o),
(211,804,o),
(211,851,cs),
(211,898,o),
(175,934,o),
(128,934,cs),
(81,934,o),
(45,898,o),
(45,851,cs),
(45,804,o),
(81,768,o),
(128,768,cs)
);
}
);
};
hints = (
{
horizontal = 1;
place = (760,120);
type = Stem;
},
{
place = (66,120);
type = Stem;
},
{
place = (64,124);
type = Stem;
}
);
layerId = m01;
shapes = (
{
ref = I;
},
{
pos = (45,0);
ref = dotaccentcomb.case;
}
);
width = 256;
},
{
background = {
anchors = (
{
name = bottom;
pos = (116,0);
},
{
name = ogonek;
pos = (158,0);
},
{
name = top;
pos = (116,889);
},
{
name = topleft;
pos = (20,700);
}
);
hints = (
{
horizontal = 1;
place = (0,700);
type = Stem;
},
{
place = (74,84);
type = Stem;
},
{
horizontal = 1;
place = (766,100);
type = Stem;
},
{
place = (58,100);
type = Stem;
}
);
shapes = (
{
closed = 1;
nodes = (
(158,0,l),
(158,700,l),
(74,700,l),
(74,0,l)
);
},
{
closed = 1;
nodes = (
(148,775,o),
(174,800,o),
(174,833,cs),
(174,865,o),
(148,889,o),
(116,889,cs),
(83,889,o),
(58,865,o),
(58,833,cs),
(58,800,o),
(83,775,o),
(116,775,cs)
);
}
);
};
hints = (
{
horizontal = 1;
place = (766,100);
type = Stem;
},
{
place = (74,84);
type = Stem;
}
);
layerId = "E8FC3098-FD3B-4CCD-A487-BB9306939620";
shapes = (
{
ref = I;
},
{
pos = (58,0);
ref = dotaccentcomb.case;
}
);
width = 232;
},
{
background = {
anchors = (
{
name = bottom;
pos = (127,0);
},
{
name = ogonek;
pos = (206,0);
},
{
name = top;
pos = (129,949);
},
{
name = topleft;
pos = (20,700);
}
);
hints = (
{
horizontal = 1;
place = (-17,683);
type = Stem;
},
{
place = (47,141);
type = Stem;
},
{
horizontal = 1;
place = (763,140);
type = Stem;
},
{
place = (33,140);
type = Stem;
}
);
shapes = (
{
closed = 1;
nodes = (
(206,0,l),
(206,700,l),
(48,700,l),
(48,0,l)
);
},
{
closed = 1;
nodes = (
(182,759,o),
(224,800,o),
(224,854,cs),
(224,908,o),
(182,949,o),
(127,949,cs),
(77,949,o),
(33,908,o),
(33,854,cs),
(33,800,o),
(77,759,o),
(127,759,cs)
);
}
);
};
hints = (
{
horizontal = 1;
place = (746,123);
type = Stem;
},
{
place = (51,134);
type = Stem;
},
{
place = (97,197);
type = Stem;
}
);
layerId = "E93BD6B3-FA9D-4EFB-B4A0-6094DEE674CC";
shapes = (
{
ref = I;
},
{
pos = (33,0);
ref = dotaccentcomb.case;
}
);
width = 254;
}
);
note = Idotaccent;
unicode = 304;
},
{
glyphname = Igrave;
lastChange = "2023-05-03 07:58:28 +0000";
layers = (
{
background = {
anchors = (
{
name = bottom;
pos = (128,0);
},
{
name = ogonek;
pos = (192,0);
},
{
name = top;
pos = (128,952);
},
{
name = topleft;
pos = (20,700);
}
);
hints = (
{
horizontal = 1;
place = (-4,696);
type = Stem;
},
{
place = (64,124);
type = Stem;
},
{
horizontal = 1;
place = (740,212);
type = Stem;
},
{
place = (15,226);
type = Stem;
}
);
shapes = (
{
closed = 1;
nodes = (
(192,0,l),
(192,700,l),
(64,700,l),
(64,0,l)
);
},
{
closed = 1;
nodes = (
(241,830,l),
(15,952,l),
(15,848,l),
(241,740,l)
);
}
);
};
hints = (
{
horizontal = 1;
place = (-4,948);
type = Stem;
},
{
place = (64,110);
type = Stem;
},
{
place = (64,124);
type = Stem;
}
);
layerId = m01;
shapes = (
{
ref = I;
},
{
pos = (15,0);
ref = gravecomb.case;
}
);
width = 256;
},
{
background = {
anchors = (
{
name = bottom;
pos = (116,0);
},
{
name = ogonek;
pos = (158,0);
},
{
name = top;
pos = (116,931);
},
{
name = topleft;
pos = (20,700);
}
);
hints = (
{
horizontal = 1;
place = (0,700);
type = Stem;
},
{
place = (74,84);
type = Stem;
},
{
horizontal = 1;
place = (741,190);
type = Stem;
},
{
place = (11,210);
type = Stem;
}
);
shapes = (
{
closed = 1;
nodes = (
(158,0,l),
(158,700,l),
(74,700,l),
(74,0,l)
);
},
{
closed = 1;
nodes = (
(221,804,l),
(11,931,l),
(11,858,l),
(221,741,l)
);
}
);
};
hints = (
{
horizontal = 1;
place = (0,931);
type = Stem;
},
{
place = (74,87);
type = Stem;
},
{
place = (74,84);
type = Stem;
}
);
layerId = "E8FC3098-FD3B-4CCD-A487-BB9306939620";
shapes = (
{
ref = I;
},
{
pos = (11,0);
ref = gravecomb.case;
}
);
width = 232;
},
{
background = {
anchors = (
{
name = bottom;
pos = (127,0);
},
{
name = ogonek;
pos = (206,0);
},
{
name = top;
pos = (127,966);
},
{
name = topleft;
pos = (20,700);
}
);
hints = (
{
horizontal = 1;
place = (-17,683);
type = Stem;
},
{
place = (47,141);
type = Stem;
},
{
horizontal = 1;
place = (739,227);
type = Stem;
},
{
place = (8,237);
type = Stem;
}
);
shapes = (
{
closed = 1;
nodes = (
(206,0,l),
(206,700,l),
(48,700,l),
(48,0,l)
);
},
{
closed = 1;
nodes = (
(246,847,l),
(9,966,l),
(9,841,l),
(246,739,l)
);
}
);
};
hints = (
{
horizontal = 1;
place = (-17,949);
type = Stem;
},
{
place = (47,117);
type = Stem;
},
{
place = (47,139);
type = Stem;
}
);
layerId = "E93BD6B3-FA9D-4EFB-B4A0-6094DEE674CC";
shapes = (
{
ref = I;
},
{
pos = (8,0);
ref = gravecomb.case;
}
);
width = 254;
}
);
note = Igrave;
unicode = 204;
},
{
glyphname = Imacron;
lastChange = "2023-05-08 22:59:23 +0000";
layers = (
{
background = {
anchors = (
{
name = bottom;
pos = (128,0);
},
{
name = ogonek;
pos = (192,0);
},
{
name = top;
pos = (128,874);
},
{
name = topleft;
pos = (20,700);
}
);
hints = (
{
horizontal = 1;
place = (-4,696);
type = Stem;
},
{
place = (64,124);
type = Stem;
},
{
horizontal = 1;
place = (783,91);
type = Stem;
},
{
place = (-59,374);
type = Stem;
}
);
shapes = (
{
closed = 1;
nodes = (
(192,0,l),
(192,700,l),
(64,700,l),
(64,0,l)
);
},
{
closed = 1;
nodes = (
(315,783,l),
(315,874,l),
(-59,874,l),
(-59,783,l)
);
}
);
};
hints = (
{
horizontal = 1;
place = (779,87);
type = Stem;
},
{
place = (64,124);
type = Stem;
}
);
layerId = m01;
shapes = (
{
ref = I;
},
{
pos = (-49,0);
ref = macroncomb.case;
}
);
width = 256;
},
{
background = {
anchors = (
{
name = bottom;
pos = (116,0);
},
{
name = ogonek;
pos = (158,0);
},
{
name = top;
pos = (116,859);
},
{
name = topleft;
pos = (20,700);
}
);
hints = (
{
horizontal = 1;
place = (0,700);
type = Stem;
},
{
place = (74,84);
type = Stem;
},
{
horizontal = 1;
place = (796,63);
type = Stem;
},
{
place = (-58,347);
type = Stem;
}
);
shapes = (
{
closed = 1;
nodes = (
(158,0,l),
(158,700,l),
(74,700,l),
(74,0,l)
);
},
{
closed = 1;
nodes = (
(289,796,l),
(289,859,l),
(-58,859,l),
(-58,796,l)
);
}
);
};
hints = (
{
horizontal = 1;
place = (796,63);
type = Stem;
},
{
place = (74,84);
type = Stem;
}
);
layerId = "E8FC3098-FD3B-4CCD-A487-BB9306939620";
shapes = (
{
ref = I;
},
{
pos = (-58,0);
ref = macroncomb.case;
}
);
width = 232;
},
{
background = {
anchors = (
{
name = bottom;
pos = (127,0);
},
{
name = ogonek;
pos = (206,0);
},
{
name = top;
pos = (127,884);
},
{
name = topleft;
pos = (20,700);
}
);
hints = (
{
horizontal = 1;
place = (-17,683);
type = Stem;
},
{
place = (47,141);
type = Stem;
},
{
horizontal = 1;
place = (774,110);
type = Stem;
},
{
place = (-69,392);
type = Stem;
}
);
shapes = (
{
closed = 1;
nodes = (
(206,0,l),
(206,700,l),
(48,700,l),
(48,0,l)
);
},
{
closed = 1;
nodes = (
(323,774,l),
(323,884,l),
(-69,884,l),
(-69,774,l)
);
}
);
};
hints = (
{
horizontal = 1;
place = (758,93);
type = Stem;
},
{
place = (47,141);
type = Stem;
}
);
layerId = "E93BD6B3-FA9D-4EFB-B4A0-6094DEE674CC";
shapes = (
{
ref = I;
},
{
pos = (-59,0);
ref = macroncomb.case;
}
);
width = 254;
}
);
note = Imacron;
unicode = 298;
},
{
glyphname = Iogonek;
lastChange = "2023-05-03 07:58:28 +0000";
layers = (
{
background = {
anchors = (
{
name = bottom;
pos = (128,0);
},
{
name = ogonek;
pos = (192,0);
},
{
name = top;
pos = (128,700);
},
{
name = topleft;
pos = (20,700);
}
);
hints = (
{
horizontal = 1;
place = (-4,696);
type = Stem;
},
{
place = (64,124);
type = Stem;
},
{
horizontal = 1;
place = (-210,75);
type = Stem;
},
{
place = (-23,97);
type = Stem;
},
{
place = (-23,220);
type = Stem;
}
);
shapes = (
{
closed = 1;
nodes = (
(192,0,l),
(192,700,l),
(64,700,l),
(64,0,l)
);
},
{
closed = 1;
nodes = (
(141,-210,o),
(172,-204,o),
(197,-196,c),
(197,-120,l),
(171,-130,o),
(147,-135,o),
(126,-135,cs),
(94,-135,o),
(74,-119,o),
(74,-94,cs),
(74,-70,o),
(92,-50,o),
(140,-26,cs),
(192,0,l),
(163,60,l),
(117,40,ls),
(11,-6,o),
(-23,-53,o),
(-23,-106,cs),
(-23,-178,o),
(38,-210,o),
(110,-210,cs)
);
}
);
};
hints = (
{
horizontal = 1;
place = (-214,71);
type = Stem;
},
{
place = (-23,93);
type = Stem;
},
{
place = (64,124);
type = Stem;
}
);
layerId = m01;
shapes = (
{
ref = I;
},
{
pos = (-23,0);
ref = ogonekcomb.case;
}
);
width = 256;
},
{
background = {
anchors = (
{
name = bottom;
pos = (116,0);
},
{
name = ogonek;
pos = (158,0);
},
{
name = top;
pos = (116,700);
},
{
name = topleft;
pos = (20,700);
}
);
hints = (
{
horizontal = 1;
place = (0,700);
type = Stem;
},
{
place = (74,84);
type = Stem;
},
{
horizontal = 1;
place = (-203,54);
type = Stem;
},
{
place = (-32,68);
type = Stem;
}
);
shapes = (
{
closed = 1;
nodes = (
(158,0,l),
(158,700,l),
(74,700,l),
(74,0,l)
);
},
{
closed = 1;
nodes = (
(111,-203,o),
(136,-199,o),
(161,-190,c),
(161,-134,l),
(138,-144,o),
(116,-149,o),
(96,-149,cs),
(60,-149,o),
(36,-131,o),
(36,-100,cs),
(36,-75,o),
(52,-51,o),
(100,-28,cs),
(158,0,l),
(137,43,l),
(84,20,ls),
(-3,-18,o),
(-32,-61,o),
(-32,-108,cs),
(-32,-174,o),
(24,-203,o),
(86,-203,cs)
);
}
);
};
hints = (
{
horizontal = 1;
place = (-202,54);
type = Stem;
},
{
place = (-32,68);
type = Stem;
},
{
place = (74,84);
type = Stem;
}
);
layerId = "E8FC3098-FD3B-4CCD-A487-BB9306939620";
shapes = (
{
ref = I;
},
{
pos = (-32,0);
ref = ogonekcomb.case;
}
);
width = 232;
},
{
background = {
anchors = (
{
name = bottom;
pos = (127,0);
},
{
name = ogonek;
pos = (206,0);
},
{
name = top;
pos = (127,700);
},
{
name = topleft;
pos = (20,700);
}
);
hints = (
{
horizontal = 1;
place = (-17,683);
type = Stem;
},
{
place = (47,141);
type = Stem;
},
{
horizontal = 1;
place = (-215,89);
type = Stem;
},
{
place = (-26,162);
type = Stem;
},
{
place = (-26,321);
type = Stem;
}
);
shapes = (
{
closed = 1;
nodes = (
(206,0,l),
(206,700,l),
(48,700,l),
(48,0,l)
);
},
{
closed = 1;
nodes = (
(152,-215,o),
(187,-207,o),
(212,-200,c),
(212,-111,l),
(184,-121,o),
(159,-126,o),
(137,-126,cs),
(108,-126,o),
(90,-111,o),
(90,-90,cs),
(90,-67,o),
(110,-50,o),
(158,-25,cs),
(206,0,l),
(171,71,l),
(130,53,ls),
(11,1,o),
(-26,-48,o),
(-26,-105,cs),
(-26,-181,o),
(38,-215,o),
(117,-215,cs)
);
}
);
};
hints = (
{
horizontal = 1;
place = (-232,72);
type = Stem;
},
{
place = (-27,100);
type = Stem;
},
{
place = (47,141);
type = Stem;
}
);
layerId = "E93BD6B3-FA9D-4EFB-B4A0-6094DEE674CC";
shapes = (
{
ref = I;
},
{
pos = (-26,0);
ref = ogonekcomb.case;
}
);
width = 254;
}
);
note = Iogonek;
unicode = 302;
},
{
glyphname = Itilde;
lastChange = "2023-05-10 16:40:43 +0000";
layers = (
{
background = {
anchors = (
{
name = bottom;
pos = (128,0);
},
{
name = ogonek;
pos = (192,0);
},
{
name = top;
pos = (128,877);
},
{
name = topleft;
pos = (20,700);
}
);
hints = (
{
horizontal = 1;
place = (-4,696);
type = Stem;
},
{
place = (64,124);
type = Stem;
},
{
horizontal = 1;
place = (752,79);
type = Stem;
},
{
place = (-48,351);
type = Stem;
},
{
horizontal = 1;
place = (798,79);
type = Stem;
}
);
shapes = (
{
closed = 1;
nodes = (
(192,0,l),
(192,700,l),
(64,700,l),
(64,0,l)
);
},
{
closed = 1;
nodes = (
(246,752,o),
(291,791,o),
(303,876,c),
(235,876,l),
(231,845,o),
(215,831,o),
(192,831,cs),
(145,831,o),
(124,877,o),
(69,877,cs),
(8,877,o),
(-35,838,o),
(-48,753,c),
(20,753,l),
(25,783,o),
(39,798,o),
(63,798,cs),
(110,798,o),
(131,752,o),
(186,752,cs)
);
}
);
};
hints = (
{
horizontal = 1;
place = (748,75);
type = Stem;
},
{
place = (64,124);
type = Stem;
},
{
horizontal = 1;
place = (794,75);
type = Stem;
}
);
layerId = m01;
shapes = (
{
ref = I;
},
{
pos = (-48,0);
ref = tildecomb.case;
}
);
width = 256;
},
{
background = {
anchors = (
{
name = bottom;
pos = (116,0);
},
{
name = ogonek;
pos = (158,0);
},
{
name = top;
pos = (116,859);
},
{
name = topleft;
pos = (20,700);
}
);
hints = (
{
horizontal = 1;
place = (0,700);
type = Stem;
},
{
place = (74,84);
type = Stem;
},
{
horizontal = 1;
place = (756,56);
type = Stem;
},
{
place = (-35,49);
type = Stem;
},
{
place = (218,49);
type = Stem;
},
{
horizontal = 1;
place = (803,56);
type = Stem;
}
);
shapes = (
{
closed = 1;
nodes = (
(158,0,l),
(158,700,l),
(74,700,l),
(74,0,l)
);
},
{
closed = 1;
nodes = (
(222,756,o),
(259,792,o),
(267,857,c),
(218,857,l),
(214,826,o),
(196,812,o),
(175,812,cs),
(129,812,o),
(114,859,o),
(60,859,cs),
(9,859,o),
(-26,826,o),
(-35,758,c),
(14,758,l),
(18,788,o),
(32,803,o),
(56,803,cs),
(103,803,o),
(116,756,o),
(171,756,cs)
);
}
);
};
hints = (
{
horizontal = 1;
place = (756,56);
type = Stem;
},
{
place = (-25,49);
type = Stem;
},
{
place = (74,84);
type = Stem;
},
{
place = (228,49);
type = Stem;
},
{
horizontal = 1;
place = (803,56);
type = Stem;
}
);
layerId = "E8FC3098-FD3B-4CCD-A487-BB9306939620";
shapes = (
{
ref = I;
},
{
pos = (-35,0);
ref = tildecomb.case;
}
);
width = 232;
},
{
background = {
anchors = (
{
name = bottom;
pos = (127,0);
},
{
name = ogonek;
pos = (206,0);
},
{
name = top;
pos = (127,889);
},
{
name = topleft;
pos = (20,700);
}
);
hints = (
{
horizontal = 1;
place = (-17,683);
type = Stem;
},
{
place = (47,141);
type = Stem;
},
{
horizontal = 1;
place = (749,94);
type = Stem;
},
{
place = (-234,552);
type = Stem;
},
{
horizontal = 1;
place = (795,94);
type = Stem;
}
);
shapes = (
{
closed = 1;
nodes = (
(206,0,l),
(206,700,l),
(48,700,l),
(48,0,l)
);
},
{
closed = 1;
nodes = (
(254,749,o),
(304,790,o),
(319,889,c),
(238,889,l),
(234,858,o),
(219,844,o),
(195,844,cs),
(147,844,o),
(122,889,o),
(67,889,cs),
(-1,889,o),
(-49,846,o),
(-65,750,c),
(16,750,l),
(21,780,o),
(35,795,o),
(59,795,cs),
(106,795,o),
(133,749,o),
(188,749,cs)
);
}
);
};
hints = (
{
horizontal = 1;
place = (733,78);
type = Stem;
},
{
place = (-55,164);
type = Stem;
},
{
horizontal = 1;
place = (778,78);
type = Stem;
}
);
layerId = "E93BD6B3-FA9D-4EFB-B4A0-6094DEE674CC";
shapes = (
{
ref = I;
},
{
pos = (-55,0);
ref = tildecomb.case;
}
);
width = 254;
}
);
note = Itilde;
unicode = 296;
},
{
glyphname = J;
lastChange = "2023-05-03 07:58:21 +0000";
layers = (
{
anchors = (
{
name = bottom;
pos = (262,0);
},
{
name = top;
pos = (397,700);
}
);
background = {
anchors = (
{
name = bottom;
pos = (262,0);
},
{
name = top;
pos = (397,700);
}
);
shapes = (
{
closed = 1;
nodes = (
(378,-12,o),
(460,65,o),
(460,202,cs),
(460,700,l),
(332,700,l),
(332,202,ls),
(332,142,o),
(305,102,o),
(244,102,cs),
(179,102,o),
(151,144,o),
(150,209,c),
(22,209,l),
(22,68,o),
(111,-12,o),
(247,-12,cs)
);
}
);
};
hints = (
{
horizontal = 1;
place = (-16,110);
type = Stem;
},
{
place = (22,124);
type = Stem;
},
{
place = (332,124);
type = Stem;
}
);
layerId = m01;
shapes = (
{
closed = 1;
nodes = (
(378,-12,o),
(460,65,o),
(460,202,cs),
(460,700,l),
(332,700,l),
(332,202,ls),
(332,142,o),
(305,102,o),
(244,102,cs),
(179,102,o),
(151,144,o),
(150,209,c),
(22,209,l),
(22,68,o),
(111,-12,o),
(247,-12,cs)
);
}
);
width = 524;
},
{
anchors = (
{
name = bottom;
pos = (250,0);
},
{
name = top;
pos = (384,700);
}
);
background = {
anchors = (
{
name = bottom;
pos = (250,0);
},
{
name = top;
pos = (384,700);
}
);
shapes = (
{
closed = 1;
nodes = (
(353,-12,o),
(425,61,o),
(425,185,cs),
(425,700,l),
(341,700,l),
(341,185,ls),
(341,116,o),
(313,63,o),
(229,63,cs),
(142,63,o),
(112,117,o),
(112,188,c),
(27,188,l),
(27,63,o),
(103,-12,o),
(230,-12,cs)
);
}
);
};
hints = (
{
horizontal = 1;
place = (-12,75);
type = Stem;
},
{
place = (27,85);
type = Stem;
},
{
place = (341,84);
type = Stem;
}
);
layerId = "E8FC3098-FD3B-4CCD-A487-BB9306939620";
shapes = (
{
closed = 1;
nodes = (
(353,-12,o),
(425,61,o),
(425,185,cs),
(425,700,l),
(341,700,l),
(341,185,ls),
(341,116,o),
(313,63,o),
(229,63,cs),
(142,63,o),
(112,117,o),
(112,188,c),
(27,188,l),
(27,63,o),
(103,-12,o),
(230,-12,cs)
);
}
);
width = 499;
},
{
anchors = (
{
name = bottom;
pos = (261,0);
},
{
name = top;
pos = (397,700);
}
);
background = {
anchors = (
{
name = bottom;
pos = (261,0);
},
{
name = top;
pos = (397,700);
}
);
shapes = (
{
closed = 1;
nodes = (
(385,-12,o),
(473,68,o),
(473,213,cs),
(473,700,l),
(316,700,l),
(316,213,ls),
(316,159,o),
(290,128,o),
(244,128,cs),
(194,128,o),
(167,162,o),
(165,223,c),
(9,223,l),
(9,71,o),
(106,-12,o),
(248,-12,cs)
);
}
);
};
hints = (
{
horizontal = 1;
place = (-29,123);
type = Stem;
},
{
place = (9,140);
type = Stem;
},
{
place = (316,141);
type = Stem;
}
);
layerId = "E93BD6B3-FA9D-4EFB-B4A0-6094DEE674CC";
shapes = (
{
closed = 1;
nodes = (
(385,-12,o),
(473,68,o),
(473,213,cs),
(473,700,l),
(316,700,l),
(316,213,ls),
(316,159,o),
(290,128,o),
(244,128,cs),
(194,128,o),
(167,162,o),
(165,223,c),
(9,223,l),
(9,71,o),
(106,-12,o),
(248,-12,cs)
);
}
);
width = 521;
}
);
note = J;
unicode = 74;
},
{
glyphname = Jacute;
lastChange = "2023-05-03 07:58:28 +0000";
layers = (
{
background = {
anchors = (
{
name = bottom;
pos = (250,0);
},
{
name = top;
pos = (384,931);
}
);
hints = (
{
horizontal = 1;
place = (-12,75);
type = Stem;
},
{
place = (27,85);
type = Stem;
},
{
place = (341,84);
type = Stem;
},
{
horizontal = 1;
place = (741,190);
type = Stem;
},
{
place = (279,210);
type = Stem;
}
);
shapes = (
{
closed = 1;
nodes = (
(353,-12,o),
(425,61,o),
(425,185,cs),
(425,700,l),
(341,700,l),
(341,185,ls),
(341,116,o),
(313,63,o),
(229,63,cs),
(142,63,o),
(112,117,o),
(112,188,c),
(27,188,l),
(27,63,o),
(103,-12,o),
(230,-12,cs)
);
},
{
closed = 1;
nodes = (
(489,858,l),
(489,931,l),
(279,804,l),
(279,741,l)
);
}
);
};
layerId = "E8FC3098-FD3B-4CCD-A487-BB9306939620";
shapes = (
{
ref = J;
},
{
pos = (279,0);
ref = acutecomb.case;
}
);
width = 499;
},
{
background = {
anchors = (
{
name = bottom;
pos = (262,0);
},
{
name = top;
pos = (397,952);
}
);
hints = (
{
horizontal = 1;
place = (-16,110);
type = Stem;
},
{
place = (22,124);
type = Stem;
},
{
place = (332,124);
type = Stem;
},
{
horizontal = 1;
place = (740,212);
type = Stem;
},
{
place = (284,226);
type = Stem;
}
);
shapes = (
{
closed = 1;
nodes = (
(378,-12,o),
(460,65,o),
(460,202,cs),
(460,700,l),
(332,700,l),
(332,202,ls),
(332,142,o),
(305,102,o),
(244,102,cs),
(179,102,o),
(151,144,o),
(150,209,c),
(22,209,l),
(22,68,o),
(111,-12,o),
(247,-12,cs)
);
},
{
closed = 1;
nodes = (
(510,848,l),
(510,952,l),
(284,830,l),
(284,740,l)
);
}
);
};
layerId = m01;
shapes = (
{
ref = J;
},
{
pos = (284,0);
ref = acutecomb.case;
}
);
width = 524;
},
{
background = {
anchors = (
{
name = bottom;
pos = (261,0);
},
{
name = top;
pos = (397,966);
}
);
hints = (
{
horizontal = 1;
place = (-29,123);
type = Stem;
},
{
place = (9,140);
type = Stem;
},
{
place = (316,141);
type = Stem;
},
{
horizontal = 1;
place = (739,227);
type = Stem;
},
{
place = (278,237);
type = Stem;
}
);
shapes = (
{
closed = 1;
nodes = (
(385,-12,o),
(473,68,o),
(473,213,cs),
(473,700,l),
(316,700,l),
(316,213,ls),
(316,159,o),
(290,128,o),
(244,128,cs),
(194,128,o),
(167,162,o),
(165,223,c),
(9,223,l),
(9,71,o),
(106,-12,o),
(248,-12,cs)
);
},
{
closed = 1;
nodes = (
(515,841,l),
(515,966,l),
(278,847,l),
(278,739,l)
);
}
);
};
layerId = "E93BD6B3-FA9D-4EFB-B4A0-6094DEE674CC";
shapes = (
{
ref = J;
},
{
pos = (278,0);
ref = acutecomb.case;
}
);
width = 521;
}
);
},
{
glyphname = K;
kernRight = K;
lastChange = "2023-05-13 01:09:30 +0000";
layers = (
{
anchors = (
{
name = bottom;
pos = (316,0);
},
{
name = top;
pos = (316,700);
}
);
background = {
anchors = (
{
name = bottom;
pos = (316,0);
},
{
name = top;
pos = (316,700);
}
);
shapes = (
{
closed = 1;
nodes = (
(439,700,l),
(192,431,l),
(192,700,l),
(64,700,l),
(64,0,l),
(192,0,l),
(192,261,l),
(261,338,l),
(465,0,l),
(616,0,l),
(347,431,l),
(595,700,l)
);
}
);
};
hints = (
{
horizontal = 1;
place = (-4,696);
type = Stem;
},
{
place = (64,124);
type = Stem;
}
);
layerId = m01;
shapes = (
{
closed = 1;
nodes = (
(439,700,l),
(192,431,l),
(192,700,l),
(64,700,l),
(64,0,l),
(192,0,l),
(192,261,l),
(261,338,l),
(465,0,l),
(616,0,l),
(347,431,l),
(595,700,l)
);
}
);
width = 632;
},
{
anchors = (
{
name = bottom;
pos = (291,0);
},
{
name = top;
pos = (291,700);
}
);
background = {
anchors = (
{
name = bottom;
pos = (291,0);
},
{
name = top;
pos = (291,700);
}
);
shapes = (
{
closed = 1;
nodes = (
(436,700,l),
(158,398,l),
(158,700,l),
(74,700,l),
(74,0,l),
(158,0,l),
(158,288,l),
(236,371,l),
(467,0,l),
(569,0,l),
(296,436,l),
(542,700,l)
);
}
);
};
hints = (
{
horizontal = 1;
place = (0,700);
type = Stem;
},
{
place = (74,84);
type = Stem;
}
);
layerId = "E8FC3098-FD3B-4CCD-A487-BB9306939620";
shapes = (
{
closed = 1;
nodes = (
(436,700,l),
(158,398,l),
(158,700,l),
(74,700,l),
(74,0,l),
(158,0,l),
(158,288,l),
(236,371,l),
(467,0,l),
(569,0,l),
(296,436,l),
(542,700,l)
);
}
);
width = 582;
},
{
anchors = (
{
name = bottom;
pos = (323,0);
},
{
name = top;
pos = (323,700);
}
);
background = {
anchors = (
{
name = bottom;
pos = (323,0);
},
{
name = top;
pos = (323,700);
}
);
shapes = (
{
closed = 1;
nodes = (
(421,700,l),
(205,463,l),
(205,700,l),
(47,700,l),
(47,0,l),
(205,0,l),
(205,256,l),
(266,323,l),
(460,0,l),
(643,0,l),
(370,434,l),
(615,700,l)
);
}
);
};
hints = (
{
horizontal = 1;
place = (-17,683);
type = Stem;
},
{
place = (47,141);
type = Stem;
}
);
layerId = "E93BD6B3-FA9D-4EFB-B4A0-6094DEE674CC";
shapes = (
{
closed = 1;
nodes = (
(421,700,l),
(205,463,l),
(205,700,l),
(47,700,l),
(47,0,l),
(205,0,l),
(205,256,l),
(266,323,l),
(460,0,l),
(643,0,l),
(370,434,l),
(615,700,l)
);
}
);
width = 645;
}
);
note = K;
unicode = 75;
},
